<svg xmlns="http://www.w3.org/2000/svg" width="10.937" height="11.716" viewBox="0 0 10.937 11.716">
  <g id="Group_14087" data-name="Group 14087" transform="translate(-591.066 -567.668)">
    <g id="Group_14087-2" data-name="Group 14087" transform="translate(591.066 567.668)">
      <path id="Path_6535" data-name="Path 6535" d="M666.137,573.917a3.124,3.124,0,1,1,3.123-3.119A3.127,3.127,0,0,1,666.137,573.917Z" transform="translate(-660.666 -567.668)" fill="#ff7642"/>
      <path id="Path_6536" data-name="Path 6536" d="M597.063,752.051h-4.742a1.177,1.177,0,0,1-1.252-1.253,7.322,7.322,0,0,1,.072-1.484,4.268,4.268,0,0,1,2.473-3.141.1.1,0,0,1,.138.018,3.894,3.894,0,0,0,2.486,1.161c.031,0,.062.01.1.017a3.522,3.522,0,0,0,.72,4.682Z" transform="translate(-591.066 -740.335)" fill="#ff7642"/>
      <path id="Path_6537" data-name="Path 6537" d="M758.823,762.022a2.733,2.733,0,1,1,2.689,2.738A2.737,2.737,0,0,1,758.823,762.022Zm3.124-.386c0-.133,0-.251,0-.368a.391.391,0,1,0-.78,0c0,.121,0,.241,0,.372h-.352a.392.392,0,1,0,0,.781h.351c0,.13,0,.239,0,.349a.392.392,0,1,0,.781,0c0-.116,0-.232,0-.353.14,0,.261,0,.383,0a.39.39,0,1,0,0-.78C762.207,761.634,762.085,761.636,761.948,761.636Z" transform="translate(-753.353 -753.044)" fill="#ff7642"/>
    </g>
  </g>
</svg>
