<svg xmlns="http://www.w3.org/2000/svg" width="18.477" height="18.471" viewBox="0 0 18.477 18.471">
  <g id="Group_14084" data-name="Group 14084" transform="translate(281.487 -467.19)">
    <g id="Group_14083" data-name="Group 14083" transform="translate(-281.487 467.19)">
      <path id="Path_6532" data-name="Path 6532" d="M-272.825,467.19h1.155c.046.01.092.022.139.03a13.886,13.886,0,0,1,1.734.308,9.089,9.089,0,0,1,6.645,7.308c.069.334.1.676.142,1.014V477c-.034.261-.064.523-.1.784a8.885,8.885,0,0,1-2.659,5.217,8.99,8.99,0,0,1-8.057,2.514,8.8,8.8,0,0,1-5.579-3.267,9.031,9.031,0,0,1-1.857-7.823,9.23,9.23,0,0,1,7.409-7.1C-273.514,467.277-273.169,467.237-272.825,467.19Zm-7.217,9.226a7.794,7.794,0,0,0,7.773,7.806,7.794,7.794,0,0,0,7.815-7.783,7.792,7.792,0,0,0-7.774-7.805A7.794,7.794,0,0,0-280.041,476.416Z" transform="translate(281.487 -467.19)" fill="#ff7642"/>
      <path id="Path_6533" data-name="Path 6533" d="M-173.9,587.616l2.231-.743.154-.051a.723.723,0,0,1,.968.865c-.2.965-.394,1.929-.588,2.894q-.19.945-.371,1.891a.955.955,0,0,1-.3.537,6.175,6.175,0,0,1-4.572,1.742,6.094,6.094,0,0,1-4.224-1.836.9.9,0,0,1-.213-.443c-.273-1.323-.532-2.648-.8-3.973-.054-.271-.113-.541-.168-.811a.722.722,0,0,1,.966-.866q1.121.365,2.237.747a.174.174,0,0,0,.244-.086c.5-.758,1-1.511,1.507-2.266a.731.731,0,0,1,1.324,0C-174.972,586.01-174.443,586.8-173.9,587.616Zm-6.2.962a.313.313,0,0,0-.009.064q.331,1.66.667,3.32a.348.348,0,0,0,.115.171,4.843,4.843,0,0,0,6.329.008.463.463,0,0,0,.136-.237c.133-.622.256-1.247.381-1.871.095-.475.188-.95.288-1.457-.088.027-.149.045-.209.065-.49.163-.979.328-1.469.49a.741.741,0,0,1-.975-.339q-.6-.892-1.19-1.785c-.035-.053-.074-.1-.121-.168-.046.063-.081.11-.114.159l-1.171,1.754a.763.763,0,0,1-1.058.358Z" transform="translate(185.403 -580.544)" fill="#ff7642"/>
    </g>
  </g>
</svg>
