<svg id="Group_14545" data-name="Group 14545" xmlns="http://www.w3.org/2000/svg" width="12.837" height="12.834" viewBox="0 0 12.837 12.834">
  <g id="Group_14544" data-name="Group 14544" transform="translate(0 0)">
    <path id="Path_9729" data-name="Path 9729" d="M106.749,279.578a1.735,1.735,0,0,1,.313-.714,1.491,1.491,0,0,1,1.292-.563c0,.225,0,.445,0,.665a1.444,1.444,0,0,0,.746,1.279,1.4,1.4,0,0,0,.73.192c.977,0,1.955,0,2.932,0a1.463,1.463,0,0,0,1.475-1.471c0-.216,0-.433,0-.661a1.463,1.463,0,0,1,1.194.452,1.43,1.43,0,0,1,.409,1.021q0,1.736,0,3.471a.238.238,0,0,1-.064.15q-.9.9-1.8,1.8a.183.183,0,0,1-.115.052q-1.823,0-3.647,0c-.476,0-.952,0-1.429,0a.4.4,0,0,0-.411.528.394.394,0,0,0,.356.271c.121.005.242,0,.363,0h3.972a5.24,5.24,0,0,0-.644.84,5.351,5.351,0,0,0-.284,1.033h-.128c-1.232,0-2.465-.013-3.7,0a1.5,1.5,0,0,1-1.547-1.251.106.106,0,0,0-.018-.032Zm4.537,4.738q1.265,0,2.53,0a.4.4,0,1,0,0-.8q-2.523,0-5.047,0a.493.493,0,0,0-.235.067.38.38,0,0,0-.17.433.4.4,0,0,0,.4.3Q110.027,284.317,111.286,284.315Zm.013-2.538h-2.442c-.046,0-.092,0-.138,0a.384.384,0,0,0-.343.269.348.348,0,0,0,.113.416.612.612,0,0,0,.32.109c1.657.007,3.314,0,4.971,0a.6.6,0,0,0,.149-.017.386.386,0,0,0,.292-.295.379.379,0,0,0-.12-.386.432.432,0,0,0-.324-.105Q112.539,281.779,111.3,281.777Z" transform="translate(-106.749 -276.695)" fill="#ff7642"/>
    <path id="Path_9730" data-name="Path 9730" d="M295.258,423.378c-.282-.167-.326-.275-.266-.607.083-.456.164-.911.241-1.368a.667.667,0,0,1,.193-.381q1.931-1.924,3.856-3.853a1.245,1.245,0,0,1,.513-.347.729.729,0,0,1,.752.185c.236.224.467.454.691.691a.921.921,0,0,1-.016,1.309q-1.972,1.98-3.95,3.954a.735.735,0,0,1-.436.164c-.443.079-.888.155-1.331.233a.21.21,0,0,0-.045.02Z" transform="translate(-288.666 -410.544)" fill="#ff7642"/>
    <path id="Path_9731" data-name="Path 9731" d="M171.416,231.456a4.429,4.429,0,0,1,.351-.558,1.462,1.462,0,0,1,2.482.438.154.154,0,0,0,.179.121c.15-.009.3-.005.451,0a.389.389,0,0,1,.4.4c0,.284.007.568,0,.852a.918.918,0,0,1-.9.886q-1.5.011-2.994,0a.932.932,0,0,1-.913-.928c-.008-.263-.006-.526,0-.789a.4.4,0,0,1,.42-.416C171.076,231.454,171.263,231.456,171.416,231.456Z" transform="translate(-168.33 -230.384)" fill="#ff7642"/>
  </g>
</svg>
