<svg xmlns="http://www.w3.org/2000/svg" xmlns:xlink="http://www.w3.org/1999/xlink" width="25" height="18" viewBox="0 0 25 18">
  <defs>
    <linearGradient id="linear-gradient" x1="-0.017" y1="0.047" x2="0.937" y2="1" gradientUnits="objectBoundingBox">
      <stop offset="0" stop-color="#ff7642"/>
      <stop offset="0.591" stop-color="#fda868"/>
      <stop offset="1" stop-color="#f9c45c"/>
    </linearGradient>
  </defs>
  <path id="Icon_awesome-crown" data-name="Icon awesome-crown" d="M20.625,15.75H4.375a.6.6,0,0,0-.625.562v1.125A.6.6,0,0,0,4.375,18h16.25a.6.6,0,0,0,.625-.562V16.313A.6.6,0,0,0,20.625,15.75Zm2.5-11.25A1.789,1.789,0,0,0,21.25,6.188a1.517,1.517,0,0,0,.172.7L18.594,8.409A1.327,1.327,0,0,1,16.867,8L13.684,2.988a1.623,1.623,0,0,0,.691-1.3A1.789,1.789,0,0,0,12.5,0a1.789,1.789,0,0,0-1.875,1.688,1.623,1.623,0,0,0,.691,1.3L8.133,8a1.328,1.328,0,0,1-1.727.408L3.582,6.884a1.555,1.555,0,0,0,.172-.7A1.789,1.789,0,0,0,1.879,4.5,1.793,1.793,0,0,0,0,6.188,1.789,1.789,0,0,0,1.875,7.875a2.12,2.12,0,0,0,.3-.028L5,14.625H20l2.824-6.778a2.12,2.12,0,0,0,.3.028A1.789,1.789,0,0,0,25,6.188,1.789,1.789,0,0,0,23.125,4.5Z" fill="url(#linear-gradient)"/>
</svg>
