<svg xmlns="http://www.w3.org/2000/svg" width="12.493" height="12.489" viewBox="0 0 12.493 12.489">
  <path id="Path_9728" data-name="Path 9728" d="M14.049,4.962,12.215,4.8l-.17-1.868a.753.753,0,0,0-.822-.683L2.938,3a.756.756,0,0,0-.686.82L3,12.086a.753.753,0,0,0,.822.683l.438-.039-.042.466a.754.754,0,0,0,.689.817l8.289.722a.756.756,0,0,0,.82-.686l.725-8.27A.76.76,0,0,0,14.049,4.962ZM3.8,9.741a.192.192,0,0,1-.206-.17l-.5-5.576a.188.188,0,0,1,.17-.2l7.784-.7a.192.192,0,0,1,.206.17l.134,1.472L5.763,4.24a.756.756,0,0,0-.82.686L4.528,9.674ZM13.9,5.96l-.488,5.576a.19.19,0,0,1-.2.173l-.519-.045L5.42,11.032a.19.19,0,0,1-.173-.2L5.353,9.6l.382-4.352a.19.19,0,0,1,.2-.173l5.52.482.828.072,1.439.125A.182.182,0,0,1,13.9,5.96Z" transform="translate(-2.25 -2.249)" fill="#ff7642"/>
</svg>
