<svg xmlns="http://www.w3.org/2000/svg" width="21" height="21" viewBox="0 0 21 21">
  <path id="Path_6381" data-name="Path 6381" d="M492.839,757.284q0,4.172,0,8.343a1.785,1.785,0,0,1-.039.463,1.046,1.046,0,0,1-1.766.454c-.547-.531-1.08-1.078-1.619-1.618-.695-.7-1.393-1.392-2.083-2.094a.513.513,0,0,0-.407-.169q-5.931.007-11.863,0a3.129,3.129,0,0,1-3.219-3.194q0-5.205,0-10.411a3.119,3.119,0,0,1,2.65-3.158,3.37,3.37,0,0,1,.588-.036q7.26,0,14.521,0a3.125,3.125,0,0,1,3.2,2.658,3.934,3.934,0,0,1,.036.662Q492.841,753.235,492.839,757.284Zm-2.093,5.987v-.312q0-6.867,0-13.732c0-.879-.395-1.269-1.282-1.269H478.833c-1.255,0-2.51,0-3.765,0a1.054,1.054,0,0,0-1.133,1.119q-.006,5.18,0,10.36a1.1,1.1,0,0,0,.373.875,1.186,1.186,0,0,0,.826.25c4.068,0,8.137,0,12.206-.008a1.531,1.531,0,0,1,1.2.5c.649.684,1.326,1.342,1.992,2.01C490.583,763.124,490.643,763.175,490.746,763.271Z" transform="translate(-471.839 -745.865)" fill="#b2b2b2"/>
</svg>
