<svg xmlns="http://www.w3.org/2000/svg" width="49.349" height="49.351" viewBox="0 0 49.349 49.351">
  <g id="Group_13968" data-name="Group 13968" transform="translate(-0.066 -0.053)">
    <g id="Group_13967" data-name="Group 13967" transform="translate(0.066 0.053)">
      <path id="Path_6173" data-name="Path 6173" d="M359.5,271.362v8.289a1.693,1.693,0,0,1-1.889,1.152c-.384-.026-.773.026-1.155-.012-.428-.043-.531.1-.53.529.011,5.345,0,10.691,0,16.037q0,4.984,0,9.969a1.929,1.929,0,0,1-.818,1.75,6.351,6.351,0,0,1-.713.359H338.775c0-.1-.011-.192-.011-.288q0-9.878,0-19.756c0-1.735-.008-3.469-.011-5.2.048-1.128.043-2.255,0-3.383q.009-.771.018-1.541l.171.12c.072.143.136.29.218.427a42.637,42.637,0,0,1,5.329,14.212,5.462,5.462,0,0,0,.271,1.3c.2-.059.258-.223.35-.348a37.2,37.2,0,0,0,2.844-4.463c.185-.343.347-.421.694-.177.972.684,1.949,1.359,2.872,2.108.667.541,1.329,1.09,2.055,1.686-.017-.162-.021-.238-.033-.313a51.149,51.149,0,0,0-3.272-11.8,41.718,41.718,0,0,0-2.442-5.067,34.372,34.372,0,0,0-2.686-4.431c.179-.063.355-.137.537-.189,2.487-.709,5-1.331,7.47-2.1,1.491.086,2.983.051,4.473.024A1.772,1.772,0,0,1,359.5,271.362Z" transform="translate(-310.148 -260.085)" fill="#fec63b"/>
      <path id="Path_6174" data-name="Path 6174" d="M62.829,309.437H47.118c-1.242-.508-1.455-1.5-1.45-2.728.033-7.274.017-14.547.016-21.821,0-1.236-.018-2.473-.008-3.709,0-.295-.083-.4-.381-.383-.432.022-.868-.017-1.3.01a1.7,1.7,0,0,1-1.889-1.153v-8.289a5.694,5.694,0,0,1,.318-.527,1.572,1.572,0,0,1,1.363-.567c1.555-.012,3.111.053,4.665-.033q1.8.516,3.606,1.032c1.447.416,2.914.759,4.339,1.249-.419.66-.853,1.311-1.254,1.983a21.686,21.686,0,0,0-1.38,2.456,1.166,1.166,0,0,0-.115.151,51.915,51.915,0,0,0-4.984,13.452c-.253,1.153-.481,2.309-.632,3.488.189.009.258-.116.35-.2a43.43,43.43,0,0,1,4.463-3.431c.539-.362.544-.366.845.185.64,1.17,1.351,2.3,2.1,3.4.313.458.649.9.975,1.352.19-.141.163-.3.186-.434A42.127,42.127,0,0,1,61.084,282.3c.508-.983,1.048-1.949,1.573-2.923l.173-.126q.011.78.021,1.559c-.043,1.155-.053,2.31,0,3.465q-.008,3.969-.016,7.938Q62.832,300.825,62.829,309.437Z" transform="translate(-42.106 -260.086)" fill="#fec63b"/>
      <path id="Path_6175" data-name="Path 6175" d="M257.021,440.193q.005-8.612.011-17.223,0-3.969.016-7.938l7.292,0a1.1,1.1,0,0,0,.561-.089c0,1.735.011,3.469.012,5.2q0,9.878,0,19.756c0,.1.007.192.011.288Z" transform="translate(-236.298 -390.843)" fill="#fe4440"/>
      <path id="Path_6176" data-name="Path 6176" d="M353.256,175.124c-2.471.765-4.982,1.387-7.47,2.1-.182.052-.358.125-.537.189a23.515,23.515,0,0,0-2.281.584c-1.085.288-2.164.6-3.248.886-.159.043-.393.2-.388-.176.016-1.251.03-2.5.025-3.754a.641.641,0,0,1,.4-.636c.858-.469,1.719-.93,2.605-1.345a18.321,18.321,0,0,1,5.581-1.876,2.907,2.907,0,0,1,2.735.8.784.784,0,1,0,1.2-1.006,3.535,3.535,0,0,0-2.935-1.372,13.207,13.207,0,0,0-5.622,1.3,28.514,28.514,0,0,0-3.507,1.693c-.177.1-.472.3-.436-.149a3.513,3.513,0,0,0-.5-2.109c.154-.084.3-.175.461-.25q3.648-1.735,7.3-3.465c1.109-.525,2.225-1.037,3.337-1.556h1.349c.038.124.154.093.238.116a3.389,3.389,0,0,1,2.372,2.062c.489,1.232.983,2.467,1.367,3.733A3.417,3.417,0,0,1,353.256,175.124Z" transform="translate(-310.254 -164.975)" fill="#fe4440"/>
      <path id="Path_6177" data-name="Path 6177" d="M95.281,177.405c-1.425-.49-2.892-.834-4.339-1.249q-1.8-.518-3.606-1.032a3.417,3.417,0,0,1-2.032-4.241c.384-1.267.892-2.5,1.362-3.736a3.477,3.477,0,0,1,1.286-1.578c.377-.272.849-.337,1.231-.594h1.349c1.592.621,3.109,1.408,4.652,2.136,2.187,1.031,4.361,2.089,6.54,3.135a3.328,3.328,0,0,0-.5,2.109c.049.417-.15.37-.415.215a28.7,28.7,0,0,0-3.764-1.821,13.232,13.232,0,0,0-5.44-1.243,3.69,3.69,0,0,0-2.925,1.314.823.823,0,0,0-.253.694.741.741,0,0,0,.5.648.788.788,0,0,0,.873-.248,2.432,2.432,0,0,1,1.528-.828,6.285,6.285,0,0,1,2.424.222,29.144,29.144,0,0,1,6.922,2.957.952.952,0,0,1,.562.991c-.031,1.074-.051,2.152.011,3.224.029.5-.121.491-.491.381-.63-.188-1.264-.359-1.9-.52C97.664,178.038,96.5,177.613,95.281,177.405Z" transform="translate(-80.99 -164.975)" fill="#fe4440"/>
      <path id="Path_6183" data-name="Path 6183" d="M132.459,212.65a3.653,3.653,0,0,1,2.671-.694c.818.032,1.639.032,2.456,0a3.776,3.776,0,0,1,2.753.694,3.513,3.513,0,0,1,.5,2.109c-.036.447.259.252.436.149a28.513,28.513,0,0,1,3.507-1.693,13.207,13.207,0,0,1,5.622-1.3,3.535,3.535,0,0,1,2.936,1.372.784.784,0,1,1-1.2,1.006,2.907,2.907,0,0,0-2.735-.8,18.32,18.32,0,0,0-5.581,1.876c-.886.415-1.747.876-2.605,1.345a.641.641,0,0,0-.4.636c.005,1.251-.009,2.5-.025,3.754,0,.38.229.219.388.176,1.084-.291,2.163-.6,3.248-.886a23.519,23.519,0,0,1,2.281-.584,34.384,34.384,0,0,1,2.686,4.431,4.591,4.591,0,0,0-.471.079q-2.479.678-4.955,1.366c-1.156.323-2.329.581-3.461.988l-.171-.12a23.125,23.125,0,0,0-2.363-3.492.478.478,0,0,0-.426-.169c-.77,0-1.539,0-2.309,0a.518.518,0,0,0-.462.2,24.59,24.59,0,0,0-2.34,3.452l-.173.126c-.135-.051-.266-.115-.4-.153-1.93-.534-3.857-1.079-5.792-1.59a20.354,20.354,0,0,0-2.7-.679,21.691,21.691,0,0,1,1.38-2.456c.4-.671.834-1.323,1.254-1.983,1.22.207,2.383.633,3.579.935.637.161,1.272.333,1.9.52.37.11.52.121.491-.381-.062-1.072-.042-2.15-.011-3.224a.952.952,0,0,0-.562-.991,29.144,29.144,0,0,0-6.922-2.957,6.285,6.285,0,0,0-2.424-.222,2.432,2.432,0,0,0-1.528.828.788.788,0,0,1-.873.248.741.741,0,0,1-.5-.648.823.823,0,0,1,.253-.694,3.69,3.69,0,0,1,2.925-1.314,13.232,13.232,0,0,1,5.44,1.243,28.7,28.7,0,0,1,3.764,1.821c.265.155.464.2.415-.215A3.328,3.328,0,0,1,132.459,212.65Z" transform="translate(-111.725 -207.379)" fill="#e92f2f"/>
      <path id="Path_6184" data-name="Path 6184" d="M340.735,342.316c1.131-.407,2.305-.666,3.461-.988q2.475-.691,4.955-1.366a4.6,4.6,0,0,1,.471-.079,41.733,41.733,0,0,1,2.442,5.067,51.153,51.153,0,0,1,3.272,11.8c.011.075.016.151.033.313-.726-.6-1.387-1.145-2.055-1.686-.923-.749-1.9-1.424-2.872-2.108-.347-.244-.509-.166-.694.177A37.2,37.2,0,0,1,346.9,357.9c-.092.125-.149.289-.35.348a5.463,5.463,0,0,1-.271-1.3,42.637,42.637,0,0,0-5.329-14.212C340.871,342.606,340.807,342.459,340.735,342.316Z" transform="translate(-311.94 -323.018)" fill="#fe4440"/>
      <path id="Path_6185" data-name="Path 6185" d="M257.037,329.553a24.59,24.59,0,0,1,2.34-3.452.518.518,0,0,1,.462-.2c.77,0,1.539,0,2.309,0a.478.478,0,0,1,.426.169,23.127,23.127,0,0,1,2.363,3.492q-.009.771-.018,1.541l-7.861,0Q257.048,330.332,257.037,329.553Z" transform="translate(-236.313 -310.388)" fill="#fe4440"/>
      <path id="Path_6186" data-name="Path 6186" d="M256.927,379.868l7.861,0c.041,1.128.045,2.255,0,3.383a1.1,1.1,0,0,1-.561.089l-7.292,0C256.874,382.178,256.884,381.023,256.927,379.868Z" transform="translate(-236.181 -359.144)" fill="#e92f2f"/>
      <path id="Path_6187" data-name="Path 6187" d="M109.3,339.922a20.359,20.359,0,0,1,2.7.679c1.936.511,3.863,1.056,5.792,1.59.138.038.27.1.4.153-.525.974-1.066,1.94-1.573,2.923a42.126,42.126,0,0,0-4.128,12.617c-.023.139,0,.294-.186.434-.326-.45-.661-.893-.975-1.352-.753-1.1-1.464-2.226-2.1-3.4-.3-.551-.306-.546-.845-.185a43.436,43.436,0,0,0-4.463,3.431c-.092.08-.161.206-.35.2.151-1.179.379-2.335.632-3.488a51.915,51.915,0,0,1,4.984-13.452A1.169,1.169,0,0,1,109.3,339.922Z" transform="translate(-97.642 -323.053)" fill="#fe4440"/>
    </g>
  </g>
</svg>
