<svg xmlns="http://www.w3.org/2000/svg" width="2.564" height="6.449" viewBox="0 0 2.564 6.449">
  <path id="Path_9743" data-name="Path 9743" d="M337.932,236.96a.232.232,0,0,1-.143-.245q0-2.982,0-5.964a.39.39,0,0,1,.01-.112.187.187,0,0,1,.266-.108c.235.1.469.2.7.3.473.205.945.413,1.419.615a.241.241,0,0,1,.163.252q0,2.034,0,4.068a.238.238,0,0,1-.161.246q-1.057.455-2.111.916c-.017.007-.032.018-.048.026Zm.617-2.941a.285.285,0,1,0-.285-.284A.285.285,0,0,0,338.549,234.019Z" transform="translate(-337.789 -230.511)" fill="#fff"/>
</svg>
