<svg xmlns="http://www.w3.org/2000/svg" width="24.95" height="21" viewBox="0 0 24.95 21">
  <path id="Path_6362" data-name="Path 6362" d="M106.749,274.423c.061-.418.1-.84.186-1.253a10.21,10.21,0,0,1,4.908-7.1,9.916,9.916,0,0,1,11.872,1.166,10.221,10.221,0,0,1,3.064,4.885.418.418,0,0,0,.314.319,6.716,6.716,0,0,1,4.6,6.648,6.639,6.639,0,0,1-1.117,3.534.3.3,0,0,0,0,.41c.313.425.606.865.914,1.293a.791.791,0,0,1,.118.883.759.759,0,0,1-.75.407c-1.932,0-3.865,0-5.8,0a6.261,6.261,0,0,1-3.35-.977.335.335,0,0,0-.374-.027,9.9,9.9,0,0,1-4.4,1.006c-3.077,0-6.154-.006-9.231.006a.918.918,0,0,1-.958-.556v-.4l2.124-3.127c-.03-.047-.058-.1-.092-.144a10.383,10.383,0,0,1-1.806-4.1c-.1-.486-.152-.982-.227-1.473ZM108.9,284.1c.1,0,.156.009.211.009,2.631,0,5.262.01,7.893-.007a8.777,8.777,0,0,0,1.668-.167,8.972,8.972,0,0,0,6.944-10.378,8.8,8.8,0,0,0-10.324-7.264,9.071,9.071,0,0,0-5.042,14.588.827.827,0,0,1,.043,1.206C109.839,282.75,109.383,283.407,108.9,284.1Zm14.1-.479a4.615,4.615,0,0,0,2.073.488q2.12,0,4.239,0c.06,0,.119-.009.214-.017l-.471-.674a.84.84,0,0,1,.031-1.247,5.345,5.345,0,0,0,.12-6.458,5.03,5.03,0,0,0-2.024-1.643A10.736,10.736,0,0,1,123.005,283.625Z" transform="translate(-106.749 -264.619)" fill="#b2b2b2"/>
</svg>
