<svg xmlns="http://www.w3.org/2000/svg" width="21" height="21" viewBox="0 0 21 21">
  <path id="Path_6378" data-name="Path 6378" d="M-710.334,639.688a2.117,2.117,0,0,1,.4.311.6.6,0,0,1-.119.827q-1.3,1.238-2.6,2.471l-4.716,4.487c-.049.046-.094.1-.155.16l1.015.723q1.445,1.028,2.891,2.055a.642.642,0,0,1,.31.483.633.633,0,0,1-.388.641q-1.815.978-3.627,1.963l-12.387,6.7a2.3,2.3,0,0,1-.277.137.61.61,0,0,1-.7-.2.594.594,0,0,1,0-.742,2.585,2.585,0,0,1,.244-.25q4.125-3.957,8.253-7.912a1.617,1.617,0,0,1,.206-.141c-.1-.08-.156-.122-.209-.161l-4-2.845c-.539-.384-.494-.9.1-1.191l15.21-7.391.256-.127ZM-726.2,657.211l11.113-6.015-.258-.186q-1.738-1.237-3.477-2.473a.575.575,0,0,1-.281-.632.907.907,0,0,1,.249-.408q2.462-2.358,4.936-4.7l.178-.166-.034-.037-10.951,5.32c.065.051.11.091.16.126q.763.544,1.529,1.086c.773.549,1.547,1.1,2.316,1.651a.609.609,0,0,1,.081.987c-.048.049-.1.1-.147.144-1.492,1.43-2.988,2.855-4.473,4.292C-725.624,656.552-725.951,656.942-726.2,657.211Z" transform="translate(730.819 -639.688)" fill="#ff7642"/>
</svg>
