<svg xmlns="http://www.w3.org/2000/svg" xmlns:xlink="http://www.w3.org/1999/xlink" width="64" height="64" viewBox="0 0 64 64">
  <defs>
    <clipPath id="clip-path">
      <rect id="Rectangle_1687" data-name="Rectangle 1687" width="64" height="64" rx="24" transform="translate(156 582)" fill="#fc2f74"/>
    </clipPath>
  </defs>
  <g id="Group_13951" data-name="Group 13951" transform="translate(-156 -684)">
    <g id="Group_13942" data-name="Group 13942" transform="translate(0 102)">
      <rect id="Rectangle_1685" data-name="Rectangle 1685" width="64" height="64" rx="24" transform="translate(156 582)" fill="#1a9c50"/>
      <g id="Mask_Group_2" data-name="Mask Group 2" clip-path="url(#clip-path)">
        <rect id="Rectangle_1686" data-name="Rectangle 1686" width="87" height="38" transform="translate(144.5 614)" fill="#fff" opacity="0.15"/>
      </g>
    </g>
    <path id="Icon_material-location-on" data-name="Icon material-location-on" d="M15.292,3A7.786,7.786,0,0,0,7.5,10.792c0,5.844,7.792,14.47,7.792,14.47s7.792-8.626,7.792-14.47A7.786,7.786,0,0,0,15.292,3Zm0,10.574a2.783,2.783,0,1,1,2.783-2.783A2.784,2.784,0,0,1,15.292,13.574Z" transform="translate(172.873 702.104)" fill="#fff"/>
  </g>
</svg>
