<svg xmlns="http://www.w3.org/2000/svg" xmlns:xlink="http://www.w3.org/1999/xlink" width="228" height="228" viewBox="0 0 228 228">
  <defs>
    <clipPath id="clip-path">
      <circle id="Ellipse_15" data-name="Ellipse 15" cx="114" cy="114" r="114" transform="translate(70 313)" fill="#e9e9e9"/>
    </clipPath>
  </defs>
  <g id="Mask_Group_1" data-name="Mask Group 1" transform="translate(-70 -313)" clip-path="url(#clip-path)">
    <g id="Group_13919" data-name="Group 13919">
      <g id="Group_13916" data-name="Group 13916" transform="translate(184.306 345.477)">
        <g id="Group_13916-2" data-name="Group 13916" transform="translate(5.509 120.042)">
          <path id="Path_6123" data-name="Path 6123" d="M497.7,414.3H472.44L463.15,370,456.708,414.3H430.246l3.641-32.975,2.292-20.746,1.382-12.508,35.9-9.252,16.207.893Z" transform="translate(-430.246 -338.814)" fill="#ff7642"/>
          <path id="Path_6124" data-name="Path 6124" d="M478.126,387.363l-12.854-7.542-3.628-2.129c-.232-.136-.4.245-.172.38l12.853,7.542,3.628,2.129C478.185,387.88,478.355,387.5,478.126,387.363Z" transform="translate(-446.791 -359.471)" fill="#389688"/>
          <path id="Path_6125" data-name="Path 6125" d="M484.794,397.741l-9.2-2.344c-.26-.066-.324.347-.065.413l9.2,2.344C484.99,398.22,485.053,397.807,484.794,397.741Z" transform="translate(-454.235 -368.896)" fill="#389688"/>
          <path id="Path_6126" data-name="Path 6126" d="M554.925,386.116q-1.561-13.593-3.121-27.187-.884-7.7-1.768-15.4a.209.209,0,0,0-.415.047l3.137,27.325q1.561,13.593,3.121,27.187.884,7.7,1.768,15.4a.209.209,0,0,0,.415-.047Z" transform="translate(-493.719 -341.229)" fill="#389688"/>
        </g>
        <g id="Group_13917" data-name="Group 13917" transform="translate(0 22.683)">
          <path id="Path_6127" data-name="Path 6127" d="M603.851,141.066a66.621,66.621,0,0,1-2.345,10.61q-1.347,4.817-2.685,9.634l-10.1-.249a8.5,8.5,0,0,1-2.622-2.67,24.4,24.4,0,0,1-2.179-4.848,19.922,19.922,0,0,0-2.29-4.79,5.8,5.8,0,0,1-1.024-1.732,1.453,1.453,0,0,1,.649-1.736c.672-.281,1.4.206,1.954.688a25.8,25.8,0,0,1,5.062,6.043l.028-.016q.285-8.685.569-17.369a2.63,2.63,0,0,1,.154-.961.9.9,0,0,1,.724-.585c.605-.036.933.684,1.079,1.273a50.712,50.712,0,0,1,1.479,11.413q.415-6.057,1.214-12.086a4.264,4.264,0,0,1,.826-2.369,1.061,1.061,0,0,1,.847-.407c.605.059.838.811.917,1.416a59.563,59.563,0,0,1,.21,13.4l.02,0q1.092-5.7,2.187-11.406a1.54,1.54,0,0,1,.53-1.068c.557-.352,1.285.154,1.6.731a5.855,5.855,0,0,1,.36,3.405,94.641,94.641,0,0,1-1.736,9.776q1.264-3.482,2.626-6.929c.182-.466.455-1,.953-1.06a.95.95,0,0,1,.93.665A2.684,2.684,0,0,1,603.851,141.066Z" transform="translate(-504.65 -130.907)" fill="#e88846"/>
          <path id="Path_6128" data-name="Path 6128" d="M433.7,383.574,431.4,404.319c-2.042-.609-4.092-3.453-4.714-5.1-1.294-3.039-.956-6.4-.973-9.636.158-2.25-.664-4.947.467-6.964,1.716-1.244,4.1-.063,5.937.367A5.44,5.44,0,0,1,433.7,383.574Z" transform="translate(-422.254 -264.453)" fill="#e88846"/>
          <path id="Path_6129" data-name="Path 6129" d="M512.356,177.315l-10.667-.263-.593-.017-2.4,9.557s-5.8-13.114-10.6-18.917-20.892-5.649-20.892-5.649l-21.644,4.426s-14.9,8.772-19.251,11.807-6.613,3.67-7.544,20.441.7,68.6.7,68.6,3.514,3.114,10.3.676l1.361-12.326s20.333,9.1,34.277-8.37c0,0,13.657-.176,18.007-1.57l-.927-24.72.927-18.107S492.587,222.2,503.5,221.8s9.865-25.476,10.1-44.451Zm-78.5,56.438.388-22.207,1.933,10.909Z" transform="translate(-418.483 -147.453)" fill="#363636"/>
          <path id="Path_6130" data-name="Path 6130" d="M494.065,161.347s-.259,2.259-.826,4.96h0c-.656,3.1-1.72,6.78-3.269,8.308l-1.858-.81-3.444,6.922-6.693-4.643-1.741,1.512s-4.972-2.555-7.235-9.749c0,0,.47-2.8,4.113-2.918l.057,2,9.141,4.2,7.642-7.934-.694-2.147h0A6.764,6.764,0,0,1,494.065,161.347Z" transform="translate(-445.34 -146.774)" fill="#f4e9dc"/>
          <path id="Path_6131" data-name="Path 6131" d="M612.173,162.185a26.884,26.884,0,0,0-7.94-1.3c-.267,0-.219.412.047.415A26.219,26.219,0,0,1,612,162.565C612.253,162.647,612.428,162.267,612.173,162.185Z" transform="translate(-517.154 -146.847)" fill="#c4532c"/>
          <path id="Path_6132" data-name="Path 6132" d="M609.926,169.936a20.769,20.769,0,0,0-4.727,3.6c-.189.192.136.454.323.264a20.425,20.425,0,0,1,4.65-3.522C610.406,170.144,610.159,169.807,609.926,169.936Z" transform="translate(-517.732 -151.644)" fill="#c4532c"/>
          <path id="Path_6133" data-name="Path 6133" d="M449.052,222.567l-.3-5.365c-.015-.268-.43-.221-.415.047q.53,9.505,1.059,19.01l.3,5.365c.015.268.43.222.415-.047Q449.582,232.072,449.052,222.567Z" transform="translate(-434.357 -176.696)" fill="#8e2323"/>
          <path id="Path_6134" data-name="Path 6134" d="M551.667,233.574q-1.6-4.866-3.519-9.616-.552-1.362-1.131-2.714c-.105-.246-.5-.1-.389.152q2.014,4.708,3.706,9.545.485,1.388.943,2.785C551.362,233.981,551.75,233.829,551.667,233.574Z" transform="translate(-486.61 -178.874)" fill="#8e2323"/>
          <path id="Path_6135" data-name="Path 6135" d="M546.976,239.186l-5.776-7.141c-.169-.208-.507.036-.338.245l5.776,7.141C546.807,239.64,547.145,239.4,546.976,239.186Z" transform="translate(-483.529 -184.641)" fill="#8e2323"/>
          <path id="Path_6136" data-name="Path 6136" d="M584.344,215.379q-1.54,5.667-3.08,11.335l-.872,3.21c-.07.259.343.322.412.065l3.08-11.335.872-3.21C584.827,215.185,584.414,215.122,584.344,215.379Z" transform="translate(-504.568 -175.735)" fill="#8e2323"/>
          <path id="Path_6137" data-name="Path 6137" d="M528.663,324.042l-8.534,8.951c-.186.195.139.458.323.265l8.534-8.951C529.172,324.112,528.848,323.849,528.663,324.042Z" transform="translate(-472.501 -233.564)" fill="#8e2323"/>
          <path id="Path_6138" data-name="Path 6138" d="M492.11,328.118a72.511,72.511,0,0,1-10.27,10.332,26.2,26.2,0,0,1-12.553,5.6,17.613,17.613,0,0,1-8.031-.775c-.252-.089-.426.291-.173.38a19.788,19.788,0,0,0,14.1-.774,36.543,36.543,0,0,0,11.509-8.193c2.011-2.012,3.883-4.155,5.742-6.307C492.61,328.179,492.286,327.916,492.11,328.118Z" transform="translate(-441.068 -235.729)" fill="#8e2323"/>
          <path id="Path_6139" data-name="Path 6139" d="M447.089,316.185a72.579,72.579,0,0,0-2.03,8.7q-.368,2.179-.6,4.378c-.147,1.378-.287,2.769-.3,4.156a6.262,6.262,0,0,0,1,3.893.209.209,0,0,0,.338-.245,5.7,5.7,0,0,1-.923-3.439,37.761,37.761,0,0,1,.281-4.1,72.283,72.283,0,0,1,1.4-8.52q.544-2.4,1.251-4.76C447.578,315.994,447.165,315.932,447.089,316.185Z" transform="translate(-432.131 -229.337)" fill="#8e2323"/>
          <path id="Path_6140" data-name="Path 6140" d="M503.579,244.556a71.222,71.222,0,0,0-12.285,11.221q-1.544,1.783-2.965,3.667c-.162.214.161.479.323.265a70.741,70.741,0,0,1,11.471-11.967q1.8-1.484,3.7-2.847A.209.209,0,0,0,503.579,244.556Z" transform="translate(-455.598 -191.314)" fill="#8e2323"/>
          <path id="Path_6141" data-name="Path 6141" d="M508.319,263.447l-7.354,5.045c-.222.153.024.49.245.338l7.354-5.045C508.787,263.633,508.541,263.3,508.319,263.447Z" transform="translate(-462.294 -201.36)" fill="#8e2323"/>
          <path id="Path_6142" data-name="Path 6142" d="M492.253,184.46a41.49,41.49,0,0,0-3.949,3.961c-.177.2.147.467.323.265A40.674,40.674,0,0,1,492.5,184.8C492.7,184.622,492.456,184.283,492.253,184.46Z" transform="translate(-455.58 -159.355)" fill="#e2cab0"/>
          <path id="Path_6143" data-name="Path 6143" d="M504.162,185.578a33.831,33.831,0,0,0-4.684-2.089c-.251-.09-.426.29-.172.38a33.853,33.853,0,0,1,4.684,2.089C504.227,186.087,504.4,185.705,504.162,185.578Z" transform="translate(-461.392 -158.859)" fill="#e2cab0"/>
        </g>
        <g id="Group_13918" data-name="Group 13918" transform="translate(16.582 0)">
          <path id="Path_6144" data-name="Path 6144" d="M479.721,98.614a9.07,9.07,0,0,1-4.945,4.489,8.85,8.85,0,0,1-6.011.135,14.155,14.155,0,0,1-4.588.874,13.641,13.641,0,0,1-4.03-.509,6.78,6.78,0,0,1-3.217-1.859c-1.732-1.912-1.7-4.6-1.264-7.013a6.282,6.282,0,0,1-1.678-5.15,3.863,3.863,0,0,1,1.132-2.052,6.966,6.966,0,0,1,2.036-1.219,17.79,17.79,0,0,0,2.326-1.112c.817-.513,1.564-1.124,2.372-1.646,1.416-.9,3.143-1.51,4.744-.718a4.081,4.081,0,0,1,2.261,3.226,9.882,9.882,0,0,1,4.141-1.1,6.683,6.683,0,0,1,3.829,1.112C480.8,88.708,481.748,94.489,479.721,98.614Z" transform="translate(-453.893 -82.469)" fill="#36344c"/>
          <path id="Path_6145" data-name="Path 6145" d="M480.845,114.884l.353,1.965a10.143,10.143,0,0,1-.045,3.792,10.35,10.35,0,0,1-1.326,3.352v0a10.209,10.209,0,0,1-18.741-3.558l-.353-1.965c-5.605,1-7.144-6-5.043-7.989.053-.053.115-.1.168-.148a2.392,2.392,0,0,1,3.32.275c-.82-3.96.542-6.172.542-6.172a21.831,21.831,0,0,0,5.166.1,20.991,20.991,0,0,0,6.1-1.547,25.475,25.475,0,0,0,3.842-2.09s3.507,2.909,4.648,6.3a.015.015,0,0,1,0,.012s.616-1.7,2.118-1.805a2.563,2.563,0,0,1,1.218.229C485.474,106.775,486.459,113.886,480.845,114.884Z" transform="translate(-454.371 -92.272)" fill="#e88846"/>
          <path id="Path_6146" data-name="Path 6146" d="M494.034,157.416l-7.862,8.162-9.684-3.948-.058-2.368-.168-6.377a10.17,10.17,0,0,0,14.982-2.667l2.113,5.445h0Z" transform="translate(-465.787 -118.492)" fill="#e88846"/>
          <path id="Path_6147" data-name="Path 6147" d="M512.763,161.846l.677,1.752-.681-1.752Z" transform="translate(-485.193 -124.675)" fill="#e88846"/>
          <path id="Path_6148" data-name="Path 6148" d="M491.245,150.221s-2.3,10.783-14.812,9.043l-.167-6.375a10.171,10.171,0,0,0,14.979-2.668Z" transform="translate(-465.789 -118.494)" fill="#c4532c"/>
          <path id="Path_6149" data-name="Path 6149" d="M487.966,127.821q-1.779.6-3.58,1.134-.068-4.154-.257-8.3c-.013-.292-.464-.236-.45.054q.2,4.288.263,8.58c0,.162.185.22.311.183q1.955-.575,3.885-1.226C488.414,128.147,488.242,127.727,487.966,127.821Z" transform="translate(-469.731 -102.668)" fill="#c4532c"/>
          <path id="Path_6150" data-name="Path 6150" d="M496.641,136.435a4.939,4.939,0,0,1-2.148,4.578c-.243.162.032.523.274.362a5.4,5.4,0,0,0,2.325-4.994A.227.227,0,0,0,496.641,136.435Z" transform="translate(-475.43 -111.033)" fill="#36344c"/>
          <ellipse id="Ellipse_10" data-name="Ellipse 10" cx="1.781" cy="1.781" rx="1.781" ry="1.781" transform="translate(8.14 24.045)" fill="#c4532c"/>
          <ellipse id="Ellipse_11" data-name="Ellipse 11" cx="1.781" cy="1.781" rx="1.781" ry="1.781" transform="translate(21.911 20.137)" fill="#c4532c"/>
          <ellipse id="Ellipse_12" data-name="Ellipse 12" cx="1.277" cy="1.576" rx="1.277" ry="1.576" transform="translate(8.416 19.667) rotate(-15.842)" fill="#36344c"/>
          <ellipse id="Ellipse_13" data-name="Ellipse 13" cx="1.277" cy="1.576" rx="1.277" ry="1.576" transform="translate(17.82 17.358) rotate(-15.842)" fill="#36344c"/>
          <path id="Path_6151" data-name="Path 6151" d="M472.2,118.279a.916.916,0,0,0-.588-.349l-.243,0a.9.9,0,0,0-.44.177l-1.8,1.063a.906.906,0,0,0-.349.588.927.927,0,0,0,.174.683.914.914,0,0,0,.588.349l.243,0a.9.9,0,0,0,.44-.177l1.8-1.063a.91.91,0,0,0,.349-.588A.929.929,0,0,0,472.2,118.279Z" transform="translate(-461.804 -101.322)" fill="#36344c"/>
          <path id="Path_6152" data-name="Path 6152" d="M489.841,113.8a.914.914,0,0,1,.317-.606l.206-.131a.906.906,0,0,1,.467-.08l2.087-.039a.909.909,0,0,1,.606.317.908.908,0,0,1-.106,1.279l-.206.131a.9.9,0,0,1-.467.08l-2.087.039a.908.908,0,0,1-.606-.317A.925.925,0,0,1,489.841,113.8Z" transform="translate(-473.004 -98.674)" fill="#36344c"/>
        </g>
      </g>
      <g id="Group_13912" data-name="Group 13912" transform="translate(82.798 339.636)">
        <g id="Group_13889" data-name="Group 13889" transform="translate(29.565 126.362)">
          <path id="Path_6087" data-name="Path 6087" d="M423.608,306.67l13.758,70.362H410.7l-10.224-46.5-2.353-.143-.035,46.644H371.5l1.357-70.362Z" transform="translate(-371.497 -306.67)" fill="#363636"/>
          <line id="Line_19" data-name="Line 19" x2="15.182" transform="translate(22.122 23.391)" fill="none" stroke="#434343" stroke-miterlimit="10" stroke-width="1.992"/>
        </g>
        <g id="Group_13902" data-name="Group 13902">
          <g id="Group_13894" data-name="Group 13894" transform="translate(72.187)">
            <g id="Group_13890" data-name="Group 13890" transform="translate(0 51.843)">
              <path id="Path_6088" data-name="Path 6088" d="M485,195.391l25.095-6.417A9.534,9.534,0,0,0,516.74,177.4h0a9.534,9.534,0,0,0-11.832-6.774l-25.126,7.134Z" transform="translate(-463.25 -170.258)" fill="#e8aba2"/>
              <path id="Path_6089" data-name="Path 6089" d="M474.029,175.632l-24.51,3.22,7.01,25.017L479.935,199Z" transform="translate(-449.519 -172.697)" fill="#f75b1f"/>
            </g>
            <g id="Group_13893" data-name="Group 13893" transform="translate(12.375)">
              <g id="Group_13891" data-name="Group 13891">
                <path id="Path_6090" data-name="Path 6090" d="M496.009,98.982c.628-3.933-.9-8.959-.9-8.959l.558-8.826a1.655,1.655,0,0,0-1.248-1.821h0a1.655,1.655,0,0,0-2,1.2l-.737,5.7-.781-.014-1.06-9.161a1.883,1.883,0,0,0-2.21-1.715h0a1.882,1.882,0,0,0-1.548,1.9l.7,9.914-.8.157-2.808-9.879a2.079,2.079,0,0,0-2.631-1.454h0a2.08,2.08,0,0,0-1.4,2.462l2.9,11.315-1.018.276-3.809-7.947a1.728,1.728,0,0,0-2.454-.728h0a1.727,1.727,0,0,0-.731,2.054l3.862,10.573-3.2-.081a2.534,2.534,0,0,0-2.511,2.787h0a2.534,2.534,0,0,0,1.874,2.2l4.207,1.018a17.776,17.776,0,0,0,7.553,5.652S495.531,101.982,496.009,98.982Z" transform="translate(-472.171 -75.356)" fill="#e8aba2"/>
                <path id="Path_6091" data-name="Path 6091" d="M482.644,109.533s6.1-.358,9.724,3.078" transform="translate(-476.923 -90.858)" fill="none" stroke="#d8857d" stroke-miterlimit="10" stroke-width="0.996"/>
              </g>
              <g id="Group_13892" data-name="Group 13892" transform="translate(13.144 23.626)">
                <path id="Path_6092" data-name="Path 6092" d="M523.87,152.922,506.926,118.6l-10.694,4.5,10.775,37.755Z" transform="translate(-496.232 -118.604)" fill="#e8aba2"/>
                <line id="Line_20" data-name="Line 20" x2="1.66" y2="5.816" transform="translate(7.568 31.017)" fill="none" stroke="#d8857d" stroke-miterlimit="10" stroke-width="0.996"/>
              </g>
            </g>
          </g>
          <g id="Group_13895" data-name="Group 13895" transform="translate(30.22 56.642)">
            <path id="Path_6093" data-name="Path 6093" d="M392.756,179.043,372.7,183.194l.7,65.569h50.755l1.593-67.367-19.1-1.652Z" transform="translate(-372.696 -179.043)" fill="#ff7642"/>
            <line id="Line_21" data-name="Line 21" y1="8.466" transform="translate(52.484 17.195)" fill="none" stroke="#ff9973" stroke-miterlimit="10" stroke-width="1.992"/>
            <path id="Rectangle_1672" data-name="Rectangle 1672" d="M0,0H12.428a0,0,0,0,1,0,0V6.214a6.214,6.214,0,0,1-6.214,6.214h0A6.214,6.214,0,0,1,0,6.214V0A0,0,0,0,1,0,0Z" transform="translate(7.373 19.574)" fill="#ff9973"/>
          </g>
          <g id="Group_13901" data-name="Group 13901" transform="translate(0 60.459)">
            <g id="Group_13897" data-name="Group 13897">
              <path id="Path_6094" data-name="Path 6094" d="M333.047,217.138l-14.471,26.207a9.616,9.616,0,0,0,3.61,12.977h0a9.617,9.617,0,0,0,12.956-3.221l15.023-23.97Z" transform="translate(-317.375 -200.144)" fill="#e8aba2"/>
              <g id="Group_13896" data-name="Group 13896" transform="translate(11.184)">
                <path id="Path_6095" data-name="Path 6095" d="M337.848,206.673l20.761,13.322,3.332-15.912c3.513-5.673,7.978-12.517,2.362-16.119h0a12.217,12.217,0,0,0-16.9,3.716Z" transform="translate(-337.848 -186.03)" fill="#ff8b5f"/>
                <line id="Line_22" data-name="Line 22" y1="17.825" transform="translate(19.397 15.264)" fill="none" stroke="#ff9973" stroke-miterlimit="10" stroke-width="1.992"/>
              </g>
            </g>
            <g id="Group_13900" data-name="Group 13900" transform="translate(5.982 36.204)">
              <g id="Group_13898" data-name="Group 13898" transform="translate(0 2.427)">
                <path id="Path_6096" data-name="Path 6096" d="M330.66,275.493l37.993-1.039,2.614-12.277-42.94-5.431Z" transform="translate(-328.326 -256.746)" fill="#e8aba2"/>
                <line id="Line_23" data-name="Line 23" x1="9.895" y1="1.241" transform="translate(9.349 1.182)" fill="none" stroke="#d8857d" stroke-miterlimit="10" stroke-width="0.996"/>
              </g>
              <g id="Group_13899" data-name="Group 13899" transform="translate(37.349)">
                <path id="Path_6097" data-name="Path 6097" d="M402.311,265.176s4.861-6.574,10.581-.025l-2.275,4.516Z" transform="translate(-399.243 -256.815)" fill="#e8aba2"/>
                <path id="Path_6098" data-name="Path 6098" d="M411.538,253.7l-1.5,9.194,11.592,1.29,1.84-8.831a1.661,1.661,0,0,0-1.427-1.987l-8.664-1.047A1.662,1.662,0,0,0,411.538,253.7Z" transform="translate(-402.748 -252.304)" fill="#1a1a1a"/>
                <path id="Path_6099" data-name="Path 6099" d="M402.211,266.173l13.715.341a2.931,2.931,0,0,1,2.858,2.93h0a2.93,2.93,0,0,1-1.656,2.639l-.734.355s1.4,10.385-6.841,11.622-12.858-5.275-12.858-5.275Z" transform="translate(-396.695 -258.597)" fill="#e8aba2"/>
              </g>
            </g>
          </g>
        </g>
        <g id="Group_13911" data-name="Group 13911" transform="translate(39.391 6.511)">
          <path id="Path_6100" data-name="Path 6100" d="M423.315,163.175l-.186-20.709H408.091l-.335,20.169Z" transform="translate(-397.774 -112.316)" fill="#e8aba2"/>
          <path id="Path_6101" data-name="Path 6101" d="M406.047,152.843c-.782-1.788,5.221,9.9,11.35,9.248,5.256-.563,5.473-10.083,5.473-10.083s-1.865,3.007-7.412,3.014C409.27,155.029,406.047,152.843,406.047,152.843Z" transform="translate(-396.968 -116.646)" fill="#3a1616"/>
          <path id="Path_6102" data-name="Path 6102" d="M424.568,106.942c-1.609,9.233-6.976,17-15.582,17s-14.522-7.68-15.582-17a15.506,15.506,0,0,1,15.582-17.6C417.591,89.34,426.221,97.462,424.568,106.942Z" transform="translate(-391.209 -88.212)" fill="#2f1118"/>
          <g id="Group_13905" data-name="Group 13905" transform="translate(30.257 22.393)">
            <path id="Path_6103" data-name="Path 6103" d="M445.86,129.417a2.771,2.771,0,0,1,3.436-.907c2.314.878,1.267,6.5-2.2,7.214a2.745,2.745,0,0,1-2.22-.58S445.725,130.993,445.86,129.417Z" transform="translate(-444.872 -128.267)" fill="#e8aba2"/>
            <g id="Group_13904" data-name="Group 13904" transform="translate(0.651 2.162)">
              <g id="Group_13903" data-name="Group 13903">
                <path id="Path_6104" data-name="Path 6104" d="M449.377,132.289s-1.939-.647-3.314,2.208" transform="translate(-446.063 -132.226)" fill="none" stroke="#161311" stroke-linecap="round" stroke-linejoin="round" stroke-width="1.098"/>
              </g>
            </g>
          </g>
          <g id="Group_13908" data-name="Group 13908" transform="translate(0 22.393)">
            <path id="Path_6105" data-name="Path 6105" d="M394.156,129.417a2.771,2.771,0,0,0-3.436-.907c-2.314.878-1.267,6.5,2.2,7.214a2.747,2.747,0,0,0,2.22-.58S394.29,130.993,394.156,129.417Z" transform="translate(-389.484 -128.267)" fill="#e8aba2"/>
            <g id="Group_13907" data-name="Group 13907" transform="translate(1.695 2.162)">
              <g id="Group_13906" data-name="Group 13906">
                <path id="Path_6106" data-name="Path 6106" d="M392.587,132.289s1.938-.647,3.314,2.208" transform="translate(-392.587 -132.226)" fill="none" stroke="#161311" stroke-linecap="round" stroke-linejoin="round" stroke-width="1.098"/>
              </g>
            </g>
          </g>
          <path id="Path_6107" data-name="Path 6107" d="M424.563,110.877c0,3.6-.371,11.136-2.706,15.608a11.668,11.668,0,0,1-10.569,6.593c-3.793.108-9.255-3.447-11.132-7.052-2.837-5.45-2.7-15.082-2.7-15.082s0-12.866,13.407-12.866C424.983,98.078,424.563,110.877,424.563,110.877Z" transform="translate(-393.1 -92.176)" fill="#e8aba2"/>
          <g id="Group_13909" data-name="Group 13909" transform="translate(7.639 17.736)">
            <path id="Path_6108" data-name="Path 6108" d="M411.971,128.632a1.036,1.036,0,1,1-1.036-1.036A1.036,1.036,0,0,1,411.971,128.632Z" transform="translate(-406.386 -123.305)" fill="#1a1a1a"/>
            <path id="Path_6109" data-name="Path 6109" d="M431.572,128.632a1.036,1.036,0,1,1-1.036-1.036A1.036,1.036,0,0,1,431.572,128.632Z" transform="translate(-415.279 -123.305)" fill="#1a1a1a"/>
            <path id="Path_6110" data-name="Path 6110" d="M410.822,120.849l-7.354,1.9s.334-2.063,3.342-2.812S410.822,120.849,410.822,120.849Z" transform="translate(-403.468 -119.742)" fill="#1a1a1a"/>
            <path id="Path_6111" data-name="Path 6111" d="M425.483,120.849l7.353,1.9s-.334-2.063-3.343-2.812S425.483,120.849,425.483,120.849Z" transform="translate(-413.457 -119.742)" fill="#1a1a1a"/>
            <path id="Path_6112" data-name="Path 6112" d="M419.824,134.3v2.628h1.907" transform="translate(-410.889 -126.349)" fill="none" stroke="#161311" stroke-linecap="round" stroke-linejoin="round" stroke-width="1.098"/>
            <path id="Path_6113" data-name="Path 6113" d="M423.222,143.164H411.965s.314,2.959,5.336,2.968C421.93,146.141,423.222,143.164,423.222,143.164Z" transform="translate(-407.323 -130.369)" fill="#fff"/>
          </g>
          <path id="Path_6114" data-name="Path 6114" d="M396.938,119.268s5.02-7.7,1.077-13.37c0,0-2.484.038-2.4,9.857Z" transform="translate(-392.266 -95.725)" fill="#2f1118"/>
          <path id="Path_6115" data-name="Path 6115" d="M444.528,119.268s-5.02-7.7-1.077-13.37c0,0,2.484.038,2.4,9.857Z" transform="translate(-413.284 -95.725)" fill="#2f1118"/>
          <path id="Path_6116" data-name="Path 6116" d="M397.555,97.077s6.482,7.332,19.837,5.9c11.925-1.283,12.958-9.645,10.119-12.95-4.057-4.724-13.007-2.968-17.791,2.306Z" transform="translate(-393.146 -87.275)" fill="#2f1118"/>
          <g id="Group_13910" data-name="Group 13910" transform="translate(5.305 48.88)">
            <path id="Path_6117" data-name="Path 6117" d="M407.756,179.387l7.928,10.2,7.632-9.655Z" transform="translate(-403.079 -177.948)" fill="#e8aba2"/>
            <path id="Path_6118" data-name="Path 6118" d="M403.871,176.753l-4.677,2.406,5.285,10.6,5.285-3.985Z" transform="translate(-399.195 -176.753)" fill="#ff9973"/>
            <path id="Path_6119" data-name="Path 6119" d="M431.708,176.753l5.266,2.477-5.564,10.526-5.244-4.1Z" transform="translate(-411.432 -176.753)" fill="#ff9973"/>
          </g>
        </g>
      </g>
    </g>
  </g>
</svg>
