<svg xmlns="http://www.w3.org/2000/svg" width="14.17" height="19.231" viewBox="0 0 14.17 19.231">
  <path id="Icon_material-keyboard-voice" data-name="Icon material-keyboard-voice" d="M14.585,16.646a3.024,3.024,0,0,0,3.026-3.036l.01-6.073a3.036,3.036,0,1,0-6.073,0v6.073A3.032,3.032,0,0,0,14.585,16.646Zm5.364-3.036a5.252,5.252,0,0,1-5.364,5.162,5.252,5.252,0,0,1-5.364-5.162H7.5a7.06,7.06,0,0,0,6.073,6.8v3.32H15.6v-3.32a7.052,7.052,0,0,0,6.073-6.8Z" transform="translate(-7.5 -4.5)" fill="#9f9f9f"/>
</svg>
