<svg xmlns="http://www.w3.org/2000/svg" width="10.477" height="9.476" viewBox="0 0 10.477 9.476">
  <g id="Group_14695" data-name="Group 14695" transform="translate(0)">
    <g id="Group_14548" data-name="Group 14548" transform="translate(0 0)">
      <path id="Path_9740" data-name="Path 9740" d="M-676.042,175.654a.953.953,0,0,0-.085.068q-1.128,1.127-2.254,2.256a.24.24,0,0,1-.188.076c-1.166,0-2.331,0-3.5,0a.324.324,0,0,0-.3.125.382.382,0,0,1-.059.057l-2.148-2.148c.015-.016.039-.042.064-.068l.973-.973c.035-.035.07-.072.1-.11a1.533,1.533,0,0,1,2.368-.021.17.17,0,0,0,.147.067c.451,0,.9,0,1.354,0a.605.605,0,0,1,.594.521.6.6,0,0,1-.412.673.756.756,0,0,1-.221.033c-.427,0-.854,0-1.282,0H-681v.615h.107c.608,0,1.217,0,1.825,0a.226.226,0,0,0,.179-.072c.355-.36.714-.717,1.072-1.075a1.231,1.231,0,0,1,1.78-.043Z" transform="translate(686.519 -170.694)" fill="#ff7642"/>
      <path id="Path_9741" data-name="Path 9741" d="M-640.477,41.725h3.7v1.534a.3.3,0,0,1-.3.3h0a.3.3,0,0,1-.3-.3v-.915h-.614v.293a.309.309,0,0,1-.309.309h0a.309.309,0,0,1-.309-.309v-.292h-1.871a1.558,1.558,0,0,1-1.788,1.2,1.546,1.546,0,0,1-1.259-1.478,1.535,1.535,0,0,1,1.259-1.548A1.559,1.559,0,0,1-640.477,41.725Z" transform="translate(646.597 -40.495)" fill="#ff7642"/>
      <path id="Path_9742" data-name="Path 9742" d="M-754.25,246.391l2.553,2.553-1.279,1.28-2.554-2.554Z" transform="translate(755.53 -240.748)" fill="#ff7642"/>
    </g>
  </g>
</svg>
