<svg xmlns="http://www.w3.org/2000/svg" width="19.711" height="19.711" viewBox="0 0 19.711 19.711">
  <path id="Icon_awesome-phone-alt" data-name="Icon awesome-phone-alt" d="M19.149,13.929l-4.312-1.848a.924.924,0,0,0-1.078.266L11.85,14.68A14.27,14.27,0,0,1,5.028,7.858l2.333-1.91a.922.922,0,0,0,.266-1.078L5.779.559A.93.93,0,0,0,4.72.024l-4,.924a.924.924,0,0,0-.716.9A17.862,17.862,0,0,0,17.864,19.712a.924.924,0,0,0,.9-.716l.924-4A.935.935,0,0,0,19.149,13.929Z" transform="translate(0 0)" fill="#fff"/>
</svg>
