<svg xmlns="http://www.w3.org/2000/svg" xmlns:xlink="http://www.w3.org/1999/xlink" width="150.804" height="153.489" viewBox="0 0 150.804 153.489">
  <defs>
    <linearGradient id="linear-gradient" x1="0.294" y1="0.988" x2="0.959" y2="-0.074" gradientUnits="objectBoundingBox">
      <stop offset="0.004" stop-color="#e38ddd"/>
      <stop offset="1" stop-color="#9571f6"/>
    </linearGradient>
    <linearGradient id="linear-gradient-2" y1="0.5" x2="1" y2="0.5" gradientUnits="objectBoundingBox">
      <stop offset="0" stop-color="#ff9085"/>
      <stop offset="1" stop-color="#fb6fbb"/>
    </linearGradient>
    <clipPath id="clip-path">
      <path id="SVGID" d="M2082.443,641.558a12.386,12.386,0,0,0-6.683-2.408c-15.99-1.133-18.323,32.29-15.873,39.759s.863,9.922-11.73,13.83-6.552,11.432-5.017,15.832,4.574,8.117-4.606,12.489-5.99,7.081-5.99,7.081,16.93,17.317,15.995,11.773.759-13.916,15.938-14.552c6.538-.274,16.55-3.393,18.767-10.393a12.605,12.605,0,0,0,.482-5.807c-.545-2.341-2.081-4.185-2.934-6.388-1.988-5.134,3-8.893,5.867-12.324a38.221,38.221,0,0,0,4.142-5.671c2.382-4.241,1.49-8.788-1.1-12.7-1.243-1.874-2.972-3.863-3.514-6.1-.583-2.4-.075-5.683.064-8.154a51.876,51.876,0,0,0,.184-5.81C2086.23,648.406,2085.384,643.991,2082.443,641.558Z" transform="translate(-2032.009 -639.122)" fill="url(#linear-gradient)"/>
    </clipPath>
    <clipPath id="clip-path-2">
      <path id="SVGID-2" data-name="SVGID" d="M1890.223,1488.151a12.386,12.386,0,0,0-5.474-4.527c-14.664-6.477-28.169,24.185-28.39,32.043s-2.545,9.629-15.718,9.045-10.034,8.541-10.078,13.2,1.558,9.186-8.56,10.194-8.033,4.636-8.033,4.636,10.071,22.025,11.068,16.491,5.423-12.839,19.922-8.3c6.245,1.954,16.722,2.407,21.177-3.43a12.6,12.6,0,0,0,2.419-5.3c.279-2.387-.542-4.642-.6-7-.134-5.5,5.83-7.354,9.691-9.612a38.183,38.183,0,0,0,5.817-3.935c3.676-3.184,4.376-7.766,3.258-12.321-.536-2.185-1.489-4.641-1.243-6.928.265-2.457,1.853-5.373,2.819-7.651a51.883,51.883,0,0,0,2.139-5.405C1891.469,1495.877,1892.167,1491.436,1890.223,1488.151Z" transform="translate(-1813.792 -1482.732)" fill="url(#linear-gradient-2)"/>
    </clipPath>
    <linearGradient id="linear-gradient-3" x1="10.206" y1="10.271" x2="9.137" y2="11.34" gradientUnits="objectBoundingBox">
      <stop offset="0" stop-color="#311944"/>
      <stop offset="1" stop-color="#893976"/>
    </linearGradient>
    <linearGradient id="linear-gradient-4" x1="-47.876" y1="0.03" x2="-44.561" y2="1.813" gradientUnits="objectBoundingBox">
      <stop offset="0" stop-color="#ffc444"/>
      <stop offset="0.996" stop-color="#f36f56"/>
    </linearGradient>
    <linearGradient id="linear-gradient-5" x1="-12.57" y1="-0.747" x2="-12.581" y2="-7.554" gradientUnits="objectBoundingBox">
      <stop offset="0" stop-color="#aa80f9"/>
      <stop offset="0.996" stop-color="#6165d7"/>
    </linearGradient>
    <linearGradient id="linear-gradient-6" x1="-145.481" y1="8.275" x2="-145.419" y2="3.978" xlink:href="#linear-gradient-4"/>
    <linearGradient id="linear-gradient-7" x1="-9.06" y1="-1.686" x2="-9.071" y2="-8.493" xlink:href="#linear-gradient-5"/>
    <linearGradient id="linear-gradient-8" x1="-133.551" y1="7.209" x2="-133.489" y2="2.913" xlink:href="#linear-gradient-4"/>
    <linearGradient id="linear-gradient-9" x1="-26.868" y1="0.746" x2="-25.838" y2="0.746" xlink:href="#linear-gradient-3"/>
    <linearGradient id="linear-gradient-10" x1="-6.207" y1="-2.638" x2="-7.363" y2="1.127" xlink:href="#linear-gradient-4"/>
    <linearGradient id="linear-gradient-11" x1="-32.364" y1="30.789" x2="-32.364" y2="29.393" xlink:href="#linear-gradient-4"/>
    <linearGradient id="linear-gradient-12" x1="-44.72" y1="3.637" x2="-45.438" y2="2.051" gradientUnits="objectBoundingBox">
      <stop offset="0" stop-color="#444b8c"/>
      <stop offset="0.996" stop-color="#3e4177"/>
    </linearGradient>
    <linearGradient id="linear-gradient-13" x1="-84.021" y1="57.263" x2="-82.893" y2="54.886" xlink:href="#linear-gradient-4"/>
    <linearGradient id="linear-gradient-14" x1="-22.271" y1="-1.493" x2="-51.489" y2="78.648" xlink:href="#linear-gradient-4"/>
    <linearGradient id="linear-gradient-15" y1="0.5" x2="1" y2="0.5" gradientUnits="objectBoundingBox">
      <stop offset="0.004" stop-color="#f36f56"/>
      <stop offset="1" stop-color="#ffc444"/>
    </linearGradient>
  </defs>
  <g id="Group_12952" data-name="Group 12952" transform="translate(-479.482 -455)">
    <path id="Path_5997" data-name="Path 5997" d="M628.061,514.433c-1.661-20.479-2.492-30.718-6.357-37.343-11.068-18.969-43.248-23.48-63.572-21.75C530.923,457.655,499.8,473.3,486.094,503.5c-12.445,27.43-6.706,58.479,12.045,78.79,34.374,37.233,105.281,30.585,122.6,6.154,6.913-9.75,7.411-25.324,8.143-48.2A218,218,0,0,0,628.061,514.433Z" transform="translate(0 0)" fill="#f4f7fa"/>
    <g id="Group_12935" data-name="Group 12935" transform="translate(552.626 465.093)">
      <g id="Group_12925" data-name="Group 12925" transform="translate(11.962 0)">
        <g id="Group_12924" data-name="Group 12924">
          <path id="SVGID-3" data-name="SVGID" d="M2082.443,641.558a12.386,12.386,0,0,0-6.683-2.408c-15.99-1.133-18.323,32.29-15.873,39.759s.863,9.922-11.73,13.83-6.552,11.432-5.017,15.832,4.574,8.117-4.606,12.489-5.99,7.081-5.99,7.081,16.93,17.317,15.995,11.773.759-13.916,15.938-14.552c6.538-.274,16.55-3.393,18.767-10.393a12.605,12.605,0,0,0,.482-5.807c-.545-2.341-2.081-4.185-2.934-6.388-1.988-5.134,3-8.893,5.867-12.324a38.221,38.221,0,0,0,4.142-5.671c2.382-4.241,1.49-8.788-1.1-12.7-1.243-1.874-2.972-3.863-3.514-6.1-.583-2.4-.075-5.683.064-8.154a51.876,51.876,0,0,0,.184-5.81C2086.23,648.406,2085.384,643.991,2082.443,641.558Z" transform="translate(-2032.009 -639.122)" fill="#363636"/>
          <g id="Group_12923" data-name="Group 12923" clip-path="url(#clip-path)">
            <g id="Group_12922" data-name="Group 12922" transform="translate(-1.111 -4.159)" opacity="0.8" style="mix-blend-mode: soft-light;isolation: isolate">
              <g id="Group_12917" data-name="Group 12917">
                <path id="Path_5998" data-name="Path 5998" d="M2012.054,666.15a.236.236,0,0,1-.189-.432,114.088,114.088,0,0,0,15.149-9.961c7.326-5.689,16.87-14.66,20.735-25.089,3.227-8.71,6.171-23.109,8.075-39.505,1.708-14.7,1.978-25.576,1.252-27.595a.236.236,0,1,1,.445-.16c.849,2.361.31,14.577-1.227,27.809-1.909,16.432-4.862,30.871-8.1,39.615-3.9,10.536-13.518,19.576-20.9,25.3a114.552,114.552,0,0,1-15.213,10Z" transform="translate(-2011.738 -563.251)" fill="#fff"/>
              </g>
              <g id="Group_12918" data-name="Group 12918" transform="translate(29.929 10.389)">
                <path id="Path_5999" data-name="Path 5999" d="M2571.838,773.15a.212.212,0,0,1-.291-.112c-.06-.162-6.02-16.2-13.707-19.819a.227.227,0,0,1-.111-.307.236.236,0,0,1,.316-.109c7.862,3.7,13.7,19.4,13.944,20.072a.213.213,0,0,1-.15.276Z" transform="translate(-2557.706 -752.778)" fill="#fff"/>
              </g>
              <g id="Group_12919" data-name="Group 12919" transform="translate(40.837 38.061)">
                <path id="Path_6000" data-name="Path 6000" d="M2757.024,1268.865a.236.236,0,0,1-.23-.405,74.956,74.956,0,0,1,9.847-6.657c7.316-4.082,12.924-5.221,16.666-3.386a.236.236,0,1,1-.208.425c-8.609-4.221-25.831,9.842-26,9.984A.235.235,0,0,1,2757.024,1268.865Z" transform="translate(-2756.708 -1257.567)" fill="#fff"/>
              </g>
              <g id="Group_12920" data-name="Group 12920" transform="translate(10.471 55.603)">
                <path id="Path_6001" data-name="Path 6001" d="M2214.334,1609.36a.236.236,0,0,1-.316-.219,90.2,90.2,0,0,0-1.563-14.2c-1.32-6.647-4.047-14.973-9.537-16.892a.237.237,0,0,1,.156-.447c4.578,1.6,7.891,7.4,9.846,17.253a90.71,90.71,0,0,1,1.571,14.278A.236.236,0,0,1,2214.334,1609.36Z" transform="translate(-2202.759 -1577.59)" fill="#fff"/>
              </g>
              <g id="Group_12921" data-name="Group 12921" transform="translate(31.5 63.254)">
                <path id="Path_6002" data-name="Path 6002" d="M2586.692,1730.153a.236.236,0,0,1-.22-.413c.761-.563,18.722-13.767,25.726-12.506a.236.236,0,0,1-.084.465c-6.806-1.225-25.176,12.284-25.361,12.421A.235.235,0,0,1,2586.692,1730.153Z" transform="translate(-2586.376 -1717.15)" fill="#fff"/>
              </g>
            </g>
          </g>
        </g>
      </g>
      <g id="Group_12934" data-name="Group 12934" transform="translate(0 46.245)">
        <g id="Group_12933" data-name="Group 12933">
          <path id="SVGID-4" data-name="SVGID" d="M1890.223,1488.151a12.386,12.386,0,0,0-5.474-4.527c-14.664-6.477-28.169,24.185-28.39,32.043s-2.545,9.629-15.718,9.045-10.034,8.541-10.078,13.2,1.558,9.186-8.56,10.194-8.033,4.636-8.033,4.636,10.071,22.025,11.068,16.491,5.423-12.839,19.922-8.3c6.245,1.954,16.722,2.407,21.177-3.43a12.6,12.6,0,0,0,2.419-5.3c.279-2.387-.542-4.642-.6-7-.134-5.5,5.83-7.354,9.691-9.612a38.183,38.183,0,0,0,5.817-3.935c3.676-3.184,4.376-7.766,3.258-12.321-.536-2.185-1.489-4.641-1.243-6.928.265-2.457,1.853-5.373,2.819-7.651a51.883,51.883,0,0,0,2.139-5.405C1891.469,1495.877,1892.167,1491.436,1890.223,1488.151Z" transform="translate(-1813.792 -1482.732)" fill="#ff7642"/>
          <g id="Group_12932" data-name="Group 12932" clip-path="url(#clip-path-2)">
            <g id="Group_12931" data-name="Group 12931" transform="translate(-4.6 -2.826)" opacity="0.8" style="mix-blend-mode: soft-light;isolation: isolate">
              <g id="Group_12926" data-name="Group 12926">
                <path id="Path_6003" data-name="Path 6003" d="M1730.113,1512.709a.237.237,0,0,1-.032-.471,114.036,114.036,0,0,0,17.626-4.247c8.819-2.875,20.836-8.087,28-16.593,5.984-7.1,13.626-19.658,20.967-34.443,6.582-13.257,10.516-23.4,10.516-25.543a.236.236,0,1,1,.473,0c0,2.509-4.641,13.822-10.565,25.754-7.356,14.817-15.021,27.4-21.029,34.537-7.239,8.593-19.344,13.847-28.224,16.741a114.56,114.56,0,0,1-17.7,4.263Z" transform="translate(-1729.876 -1431.176)" fill="#fff"/>
              </g>
              <g id="Group_12927" data-name="Group 12927" transform="translate(59.312 4.571)">
                <path id="Path_6004" data-name="Path 6004" d="M2818.366,1538.49a.231.231,0,0,1-.236-.229c0-.172-.184-17.292-6.192-23.3a.236.236,0,1,1,.335-.332c6.146,6.145,6.325,22.917,6.33,23.629a.231.231,0,0,1-.235.232Z" transform="translate(-2811.869 -1514.56)" fill="#fff"/>
              </g>
              <g id="Group_12928" data-name="Group 12928" transform="translate(56.545 40.94)">
                <path id="Path_6005" data-name="Path 6005" d="M2761.622,2182.045a.237.237,0,0,1-.08-.459,75.01,75.01,0,0,1,11.519-2.932c8.266-1.365,13.928-.54,16.829,2.452a.236.236,0,1,1-.339.329c-6.673-6.885-27.638.521-27.849.6A.247.247,0,0,1,2761.622,2182.045Z" transform="translate(-2761.385 -2178.014)" fill="#fff"/>
              </g>
              <g id="Group_12929" data-name="Group 12929" transform="translate(25.702 40.53)">
                <path id="Path_6006" data-name="Path 6006" d="M2198.973,2204.288a.237.237,0,0,1-.224-.313,90.214,90.214,0,0,0,3.334-13.891c1.007-6.7,1.259-15.459-3.259-19.123a.236.236,0,1,1,.3-.367c3.767,3.055,4.92,9.638,3.428,19.567a90.637,90.637,0,0,1-3.353,13.967A.237.237,0,0,1,2198.973,2204.288Z" transform="translate(-2198.736 -2170.541)" fill="#fff"/>
              </g>
              <g id="Group_12930" data-name="Group 12930" transform="translate(38.657 62.516)">
                <path id="Path_6007" data-name="Path 6007" d="M2435.3,2576.229a.237.237,0,0,1-.068-.463c.907-.271,22.276-6.62,28.44-3.063a.236.236,0,1,1-.236.41c-5.99-3.456-27.848,3.041-28.067,3.107A.246.246,0,0,1,2435.3,2576.229Z" transform="translate(-2435.068 -2571.624)" fill="#fff"/>
              </g>
            </g>
          </g>
        </g>
      </g>
    </g>
    <g id="Group_12938" data-name="Group 12938" transform="translate(530.974 460.055)">
      <g id="Group_12936" data-name="Group 12936" transform="translate(37.762 0.942)">
        <path id="Path_6008" data-name="Path 6008" d="M2118.858,564.916l-.169,1.209a9.5,9.5,0,0,0-1.649.219l-.457-1.128a.6.6,0,0,0-.786-.326l-1.938.8a.611.611,0,0,0-.337.79l.459,1.142a9.812,9.812,0,0,0-1.327,1.013l-.974-.756a.61.61,0,0,0-.853.113l-1.3,1.667a.607.607,0,0,0,.1.854l.978.76a9.718,9.718,0,0,0-.655,1.544l-1.24-.163a.624.624,0,0,0-.694.528l-.312,2.1a.6.6,0,0,0,.515.689l1.244.163a9.677,9.677,0,0,0,.188,1.669l-1.168.487a.631.631,0,0,0-.345.809l.777,1.977a.6.6,0,0,0,.8.334l1.168-.489a9.6,9.6,0,0,0,1,1.347l-.778,1.011a.627.627,0,0,0,.1.874l1.669,1.309a.612.612,0,0,0,.864-.118l.77-1a9.377,9.377,0,0,0,1.553.653l-.175,1.253a.615.615,0,0,0,.523.7l2.107.276a.626.626,0,0,0,.7-.542l.17-1.244a9.473,9.473,0,0,0,1.683-.222l.462,1.149a.607.607,0,0,0,.8.336l1.965-.832a.632.632,0,0,0,.335-.817l-.462-1.141a9.775,9.775,0,0,0,1.35-1.05l.96.747a.607.607,0,0,0,.859-.117l1.287-1.706a.625.625,0,0,0-.113-.869l-.952-.738a9.811,9.811,0,0,0,.646-1.587l1.189.156a.612.612,0,0,0,.684-.532l.27-2.107a.613.613,0,0,0-.525-.688l-1.187-.156a9.662,9.662,0,0,0-.218-1.686l1.1-.461a.613.613,0,0,0,.327-.8l-.8-1.943a.6.6,0,0,0-.791-.328l-1.107.461a9.667,9.667,0,0,0-1.021-1.332l.731-.954a.606.606,0,0,0-.111-.849l-1.653-1.27a.6.6,0,0,0-.847.112l-.736.956a9.4,9.4,0,0,0-1.541-.631l.164-1.2a.6.6,0,0,0-.516-.676l-2.065-.271A.609.609,0,0,0,2118.858,564.916Zm-7.281,9.8a7.647,7.647,0,0,1,8.517-6.526,7.52,7.52,0,0,1,6.442,8.488,7.643,7.643,0,0,1-8.528,6.608A7.518,7.518,0,0,1,2111.578,574.711Z" transform="translate(-2107.692 -564.391)" fill="#d8dee8"/>
      </g>
      <g id="Group_12937" data-name="Group 12937" transform="translate(0 0)">
        <path id="Path_6009" data-name="Path 6009" d="M1436.08,548.022l-.261,1.87a14.669,14.669,0,0,0-2.549.338l-.707-1.744a.927.927,0,0,0-1.216-.5l-3,1.235a.945.945,0,0,0-.522,1.222l.71,1.766a15.143,15.143,0,0,0-2.052,1.567l-1.507-1.168a.943.943,0,0,0-1.318.174l-2.014,2.577a.938.938,0,0,0,.152,1.32l1.512,1.175a15.065,15.065,0,0,0-1.014,2.387l-1.918-.252a.964.964,0,0,0-1.072.817l-.482,3.25a.93.93,0,0,0,.8,1.066l1.924.252a14.89,14.89,0,0,0,.289,2.58l-1.805.753a.975.975,0,0,0-.534,1.25l1.2,3.056a.931.931,0,0,0,1.232.517l1.806-.756a14.841,14.841,0,0,0,1.547,2.083l-1.2,1.563a.968.968,0,0,0,.156,1.352l2.58,2.024a.947.947,0,0,0,1.337-.182l1.189-1.552a14.527,14.527,0,0,0,2.4,1.009l-.271,1.938a.951.951,0,0,0,.809,1.084l3.258.427a.967.967,0,0,0,1.074-.837l.263-1.923a14.687,14.687,0,0,0,2.6-.343l.714,1.776a.939.939,0,0,0,1.24.52l3.038-1.287a.976.976,0,0,0,.518-1.263l-.715-1.764a15.129,15.129,0,0,0,2.088-1.623l1.485,1.154a.939.939,0,0,0,1.328-.181l1.99-2.637a.967.967,0,0,0-.176-1.344l-1.471-1.14a15.037,15.037,0,0,0,1-2.453l1.84.241a.945.945,0,0,0,1.056-.823l.417-3.258a.948.948,0,0,0-.812-1.063l-1.834-.241a14.912,14.912,0,0,0-.338-2.606l1.7-.712a.946.946,0,0,0,.506-1.234l-1.243-3a.935.935,0,0,0-1.224-.508l-1.711.713a14.824,14.824,0,0,0-1.579-2.059l1.13-1.476a.937.937,0,0,0-.171-1.313l-2.556-1.963a.935.935,0,0,0-1.31.173l-1.138,1.478a14.508,14.508,0,0,0-2.382-.975l.254-1.856a.926.926,0,0,0-.8-1.045l-3.193-.419A.942.942,0,0,0,1436.08,548.022Zm-11.257,15.145a11.824,11.824,0,0,1,13.169-10.09,11.628,11.628,0,0,1,9.96,13.123,11.818,11.818,0,0,1-13.186,10.217A11.624,11.624,0,0,1,1424.823,563.167Z" transform="translate(-1418.815 -547.211)" fill="#d8dee8"/>
      </g>
    </g>
    <g id="Group_12945" data-name="Group 12945" transform="translate(485.313 469.523)">
      <g id="Group_12941" data-name="Group 12941" transform="translate(0 0.91)">
        <path id="Path_6015" data-name="Path 6015" d="M585.856,757.174c0-11.406,9.95-20.651,21.89-20.65,11.587,0,20.732,8.76,20.732,19.563s-9.145,20.028-20.732,20.621C595.806,777.318,585.856,768.58,585.856,757.174Z" transform="translate(-585.856 -736.524)" fill="url(#linear-gradient-3)"/>
      </g>
      <g id="Group_12942" data-name="Group 12942" transform="translate(1.287 0)">
        <path id="Path_6016" data-name="Path 6016" d="M609.337,740.58c0-11.406,9.662-20.651,21.257-20.65a19.771,19.771,0,0,1,20.132,19.563c0,10.8-8.88,20.028-20.132,20.62C619,760.724,609.337,751.986,609.337,740.58Z" transform="translate(-609.337 -719.93)" fill="#ff7642"/>
      </g>
      <g id="Group_12943" data-name="Group 12943" transform="translate(4.595 3.214)" opacity="0.5" style="mix-blend-mode: soft-light;isolation: isolate">
        <path id="Path_6017" data-name="Path 6017" d="M669.681,795.909c0-9.583,8.117-17.351,17.859-17.349A16.611,16.611,0,0,1,704.454,795c0,9.076-7.461,16.827-16.914,17.325C677.8,812.833,669.681,805.492,669.681,795.909Z" transform="translate(-669.681 -778.56)" fill="#ff7642"/>
      </g>
      <path id="Path_6018" data-name="Path 6018" d="M707.572,780.031a16.451,16.451,0,0,1,15.718,22.6,16.467,16.467,0,0,0-15.047-24.077,17.956,17.956,0,0,0-16.658,11.132A18.008,18.008,0,0,1,707.572,780.031Z" transform="translate(-685.788 -775.344)" fill="#fff" opacity="0.5" style="mix-blend-mode: soft-light;isolation: isolate"/>
      <g id="Group_12944" data-name="Group 12944" transform="translate(14.377 9.37)">
        <path id="Path_6019" data-name="Path 6019" d="M848.127,1047.734v8.364a4.325,4.325,0,0,0,4.536,4.26l6.2-.162a4.542,4.542,0,0,0,4.469-4.449v-8.276Zm5.713,8.647,1.153-3.493a1.508,1.508,0,0,1-.828-1.342,1.619,1.619,0,0,1,1.607-1.585,1.542,1.542,0,0,1,1.6,1.521,1.582,1.582,0,0,1-.826,1.374l1.149,3.436Z" transform="translate(-848.127 -1038.886)" fill="#fff"/>
        <path id="Path_6020" data-name="Path 6020" d="M871.662,898.719a1.152,1.152,0,0,1-1.192-1.138,4.469,4.469,0,0,0-4.609-4.4,4.644,4.644,0,0,0-4.639,4.547,1.212,1.212,0,0,1-1.21,1.186,1.166,1.166,0,0,1-1.211-1.147,7.056,7.056,0,0,1,7.06-6.908,6.79,6.79,0,0,1,6.991,6.684A1.2,1.2,0,0,1,871.662,898.719Z" transform="translate(-858.216 -890.859)" fill="#fff"/>
      </g>
    </g>
    <g id="Group_12947" data-name="Group 12947" transform="translate(483.761 520.299)">
      <path id="Path_6021" data-name="Path 6021" d="M1351.557,1842.7s-.422-1.582-.123-1.986,2.127-2.022,1.951-1.494a3.4,3.4,0,0,1-.439.879s.984.457.352,1.143-.844.844-.879,1.459S1351.979,1843.525,1351.557,1842.7Z" transform="translate(-1307.813 -1828.539)" fill="url(#linear-gradient-4)"/>
      <path id="Path_6022" data-name="Path 6022" d="M1031.76,3150.29a14.094,14.094,0,0,0-.195,1.855c.028.487,5.432.736,5.487.371s-.893-.945-1.56-1.149-2.62-.751-2.62-.751Z" transform="translate(-1005.577 -3067.841)" fill="url(#linear-gradient-5)"/>
      <path id="Path_6023" data-name="Path 6023" d="M1030.991,3124.442l-.172,1.7a1.23,1.23,0,0,1-1.181.1l-.277-1.852Z" transform="translate(-1003.497 -3043.357)" fill="url(#linear-gradient-6)"/>
      <path id="Path_6024" data-name="Path 6024" d="M855.876,3190.754a14.1,14.1,0,0,0-.2,1.855c.028.487,5.432.736,5.487.371s-.893-.945-1.56-1.149-2.62-.751-2.62-.751Z" transform="translate(-839.335 -3106.086)" fill="url(#linear-gradient-7)"/>
      <path id="Path_6025" data-name="Path 6025" d="M855.109,3164.905l-.172,1.7a1.228,1.228,0,0,1-1.181.095l-.277-1.852Z" transform="translate(-837.256 -3081.601)" fill="url(#linear-gradient-8)"/>
      <path id="Path_6026" data-name="Path 6026" d="M918.421,2302.659l1.874,3.8c.5,7.227.752,15.085.592,23.489-.119,6.252-.453,12.175-.933,17.735l-2.541-.117a25.343,25.343,0,0,1-2.8-10.658c-.139-4.741,1.3-5.371,1.207-9.91-.118-5.884-2.585-7.454-3.9-14.531a37.886,37.886,0,0,1-.439-10.531Z" transform="translate(-891.908 -2265.989)" fill="#ff7642"/>
      <path id="Path_6027" data-name="Path 6027" d="M911.478,2301.934l3.75.391c2.25,3.916,2.878,7.991,2.483,9.794-.558,2.55-2.036,3.367-1.955,5.928.08,2.534,1.573,3.191,2.52,6.177.655,2.068.483,3.969.11,7.687-.751,7.489-2.56,9.779-1.045,12.234a5.53,5.53,0,0,0,2.725,2.163c-.037.459-.074.92-.113,1.374l-2.541-.116a25.345,25.345,0,0,1-2.8-10.659c-.139-4.741,1.3-5.371,1.207-9.91-.118-5.884-2.585-7.454-3.9-14.531A37.886,37.886,0,0,1,911.478,2301.934Z" transform="translate(-891.908 -2265.989)" opacity="0.3" fill="url(#linear-gradient-9)" style="mix-blend-mode: multiply;isolation: isolate"/>
      <path id="Path_6028" data-name="Path 6028" d="M784.467,2325.86c-1.173,6.394-2.208,13.237-3.016,20.494-.976,8.762-1.5,17.023-1.7,24.693l-2.789.079c-3.663-7.246-3.887-12.159-3.358-15.358a46.244,46.244,0,0,0,.882-7.261,51.036,51.036,0,0,0-.273-6.738c-.44-5.05-.974-6.153-1.05-10.016-.072-3.625-.087-5.46.948-6.531C776.836,2322.4,783.929,2325.61,784.467,2325.86Z" transform="translate(-761.314 -2286.911)" fill="#ff7642"/>
      <path id="Path_6029" data-name="Path 6029" d="M1030.746,1826.771l1.854-.13c1.458,5.893.412,11.61-2.879,13.712-5.143,3.285-14.7-2.9-16.771-9.642-.909-2.958-.7-7.226,1.115-8.055.5-.23,1.287-.266,2.982.686,5.063,2.843,5.2,8.216,7.771,8.671C1025.963,1832.215,1027.811,1831.486,1030.746,1826.771Z" transform="translate(-987.488 -1812.855)" fill="#001c2d"/>
      <path id="Path_6030" data-name="Path 6030" d="M697.193,1843.879c.891-1.478-.228-2.9-.483-5.7-.288-3.173.934-3.7,2.143-8.961.8-3.5,1.576-6.855.655-10.785-.442-1.884-1.19-5.078-3.834-6.621-1.364-.8-3.227-.717-6.9-.525-4.539.237-6.808.356-8.5,1.247-.248.13-5.4,2.931-5.751,7.5-.361,4.646,4.7,5.271,5.374,11.466.3,2.781-.237,7.059-.587,9.834-.336,2.664-.568,3.346-.042,4.153,1.267,1.944,5.147,1.39,12.906.282C695.219,1845.328,696.529,1844.982,697.193,1843.879Z" transform="translate(-668.094 -1802.114)" fill="#001c2d"/>
      <path id="Path_6031" data-name="Path 6031" d="M685.388,1926.381c-.328,1.208-1.508,2.11-2.329,5.047-.177.634-1.44,5.15.2,6.262.946.642,1.8-.574,4.093-.733,3.98-.276,5.876,3.07,8.476,2.156a3.56,3.56,0,0,0,1.641-1.273,2.626,2.626,0,0,1-.273,1.923c-.664,1.1-1.974,1.449-5.018,1.884-7.759,1.108-11.638,1.662-12.906-.282-.526-.807-.294-1.489.042-4.153.35-2.774.89-7.052.587-9.834-.675-6.2-5.735-6.821-5.374-11.467a7.206,7.206,0,0,1,1.164-3.311C682.108,1915.2,686.419,1922.586,685.388,1926.381Z" transform="translate(-668.094 -1897.997)" fill="#454546"/>
      <path id="Path_6032" data-name="Path 6032" d="M725.115,2326.65l1.284.82a3.009,3.009,0,0,1,1.6-.987c.939-.206,2.017.09,2.042.389.02.24-.636.483-.738.52-.819.3-1.427.051-1.759.381a2.511,2.511,0,0,1-.6.534,1.9,1.9,0,0,1-.229.118c-.547.212-1.485-.74-1.566-.823Z" transform="translate(-715.929 -2289.128)" fill="url(#linear-gradient-10)"/>
      <path id="Path_6033" data-name="Path 6033" d="M570.516,1839.113c.929-2.225,1.573-5.632.105-10.691-9.669,3.81-14.6,12.841-12.674,20,1.587,5.9,7.362,8.777,8.65,9.382l.9-2.046c-1.493-1.662-3.175-4.12-2.937-6.925C564.888,1844.945,568.635,1843.618,570.516,1839.113Z" transform="translate(-557.535 -1818.434)" fill="#001c2d"/>
      <path id="Path_6034" data-name="Path 6034" d="M858.414,1730a10.345,10.345,0,0,1-.6,2.958c-.474,1.145-2.97,1.864-3.476,2.12s.948,1,2.407,1.149,5.628-.185,6.38-.738-.6-.512-1.646-.894-1.644-2.42-1.46-3.345S858.414,1730,858.414,1730Z" transform="translate(-837.97 -1725.404)" fill="url(#linear-gradient-11)"/>
      <path id="Path_6035" data-name="Path 6035" d="M902.32,1650.191c.757-.744.863-.831.946-1.088a2.478,2.478,0,0,0-1.52-2.794c-.055-.018-.759-.244-1.028.062-.228.259.108.618-.052,1.118-.15.468-.556.5-1.308,1.117-.62.506-1,.82-1.094,1.262a2.156,2.156,0,0,0,1.9,2.2C900.513,1652.052,900.609,1651.873,902.32,1650.191Z" transform="translate(-879.567 -1646.211)" fill="url(#linear-gradient-12)"/>
      <g id="Group_12946" data-name="Group 12946" transform="translate(19.821 3.321)">
        <path id="Path_6036" data-name="Path 6036" d="M919.993,1709.467a2.151,2.151,0,0,0,2.032.61c1.1-.27.818-2.79.014-3.193a1.426,1.426,0,0,0-1.122.053c-.217.1-.277.213-.633.376-.329.151-.433.13-.522.236-.111.133-.158.419.189,1.108a.614.614,0,0,0-.684-.1.386.386,0,0,0-.122.171C919.039,1709.044,919.363,1709.361,919.993,1709.467Z" transform="translate(-919.124 -1706.793)" fill="url(#linear-gradient-13)"/>
      </g>
    </g>
    <g id="Group_12955" data-name="Group 12955" transform="translate(525.296 474.527)">
      <g id="Group_12940" data-name="Group 12940" transform="translate(3.204)">
        <path id="Path_6010" data-name="Path 6010" d="M1436.833,815.82,1422.867,931.9a3.059,3.059,0,0,0,2.671,3.467l58.168,6.386c3.563.222,5.514-1.6,5.734-3.45l14.662-123.41c.219-1.84-1.529-3.507-5.108-3.507l-58.7,1.236A3.7,3.7,0,0,0,1436.833,815.82Z" transform="translate(-1420.148 -811.375)" fill="#767676"/>
        <path id="Path_6011" data-name="Path 6011" d="M1387.75,815.463l-14.042,116.658a3.073,3.073,0,0,0,2.68,3.485l60.3,6a3.525,3.525,0,0,0,3.844-3.04l14.745-124.048a2.926,2.926,0,0,0-3.08-3.3l-60.972,1.029A3.717,3.717,0,0,0,1387.75,815.463Z" transform="translate(-1373.684 -811.218)" fill="#363636"/>
        <path id="Path_6012" data-name="Path 6012" d="M1426.358,944.006l-13.015,108.166a2.866,2.866,0,0,0,2.509,3.25l56.714,5.513a3.288,3.288,0,0,0,3.574-2.837l13.626-114.592a2.741,2.741,0,0,0-2.86-3.1l-57.3.61A3.449,3.449,0,0,0,1426.358,944.006Z" transform="translate(-1411.148 -933.327)" fill="#d8dee8"/>
        <path id="Path_6013" data-name="Path 6013" d="M2205.817,867.52a.965.965,0,0,0,1,1.11,1.329,1.329,0,0,0,1.268-1.141.965.965,0,0,0-1-1.11A1.33,1.33,0,0,0,2205.817,867.52Z" transform="translate(-2160.194 -863.355)" fill="url(#linear-gradient-14)"/>
      </g>
      <g id="Group_12951" data-name="Group 12951" transform="translate(0 17.496)">
        <path id="Path_6037" data-name="Path 6037" d="M1386.781,1133.022l.284,1.53h0l-5.834.014-50.629.12a2.815,2.815,0,0,0-2.679,2.4l-12.086,80.775c-.18,1.337,1.9,3.378,3.2,3.478l22.462,1.726v-.027l33.6,2.578h0l.082.034a2.758,2.758,0,0,0,2.937-2.342.04.04,0,0,0,0,.006l11.318-86.242C1389.614,1135.676,1388.224,1133.018,1386.781,1133.022Z" transform="translate(-1315.792 -1132.878)" fill="#0e0e41"/>
        <g id="Group_12950" data-name="Group 12950" transform="translate(0 0)">
          <path id="Path_6038" data-name="Path 6038" d="M1376.409,1219.144a2.769,2.769,0,0,1-2.936,2.358l-56.2-4.315a2.236,2.236,0,0,1-2.015-2.6l10.987-81.634a2.815,2.815,0,0,1,2.677-2.405l56.518-.156a2.2,2.2,0,0,1,2.282,2.526Z" transform="translate(-1315.235 -1130.391)" fill="#363636"/>
          <path id="Path_6039" data-name="Path 6039" d="M1548.964,1755.479a1.421,1.421,0,0,1-1.459,1.2l-49.463-1.805a1.051,1.051,0,0,1-1.022-1.229l.973-7.208a1.3,1.3,0,0,1,1.339-1.1l49.507,1.375a1.075,1.075,0,0,1,1.129,1.224Z" transform="translate(-1487.043 -1711.62)" fill="#fff" opacity="0.28"/>
          <path id="Path_6040" data-name="Path 6040" d="M1514.76,2006.834a1.471,1.471,0,0,1-1.459,1.264l-49.426-2.442a1.135,1.135,0,0,1-1.017-1.326l.98-7.347a1.393,1.393,0,0,1,1.344-1.215l49.456,1.995a1.2,1.2,0,0,1,1.126,1.375Z" transform="translate(-1454.755 -1948.329)" fill="#fff" opacity="0.28"/>
          <path id="Path_6041" data-name="Path 6041" d="M1549.96,1747.906a1.356,1.356,0,0,0-.377-.062l-49.508-1.374a1.293,1.293,0,0,0-1.338,1.1l-.974,7.208c0,.019,0,.036-.006.055a1.05,1.05,0,0,1-.749-1.187l.974-7.208a1.294,1.294,0,0,1,1.338-1.1l49.508,1.374A1.076,1.076,0,0,1,1549.96,1747.906Z" transform="translate(-1487.033 -1711.627)" opacity="0.1" fill="url(#linear-gradient-15)" style="mix-blend-mode: multiply;isolation: isolate"/>
          <path id="Path_6042" data-name="Path 6042" d="M1515.766,1998.96a1.171,1.171,0,0,0-.383-.081l-49.455-2a1.392,1.392,0,0,0-1.344,1.216l-.982,7.348a1.194,1.194,0,0,0-.009.14,1.16,1.16,0,0,1-.746-1.272l.982-7.348a1.392,1.392,0,0,1,1.344-1.216l49.455,2A1.2,1.2,0,0,1,1515.766,1998.96Z" transform="translate(-1454.746 -1948.313)" opacity="0.1" fill="url(#linear-gradient-15)" style="mix-blend-mode: multiply;isolation: isolate"/>
          <path id="Path_6043" data-name="Path 6043" d="M1642.646,2349.551c.146-.642-.635-1.234-1.747-1.271l-25.586-.854c-1.06-.035-2.038.483-2.182,1.109l-1.056,4.622c-.144.626.591,1.225,1.65,1.267l25.573,1.016c1.111.044,2.134-.5,2.28-1.143Z" transform="translate(-1595.786 -2274.923)" fill="#fff" opacity="0.28"/>
        </g>
      </g>
    </g>
  </g>
</svg>
