<svg xmlns="http://www.w3.org/2000/svg" width="13.997" height="23.446" viewBox="0 0 13.997 23.446">
  <g id="Group_13975" data-name="Group 13975" transform="translate(-151.724 -150.731)">
    <path id="Path_6190" data-name="Path 6190" d="M199.65,164.307l8.614-.012c.006-.02.017-.051.026-.083a13.816,13.816,0,0,0,.549-4.525,11.505,11.505,0,0,0-2.661-6.985c-.207-.257-.42-.51-.63-.766l-.941-.938c-.049-.034-.1-.067-.148-.1a.86.86,0,0,0-1.035.016c-.1.083-.2.172-.3.263a14.356,14.356,0,0,0-2.164,2.593,11.1,11.1,0,0,0-1.5,3.323,13.386,13.386,0,0,0-.163,5.68C199.392,163.3,199.536,163.813,199.65,164.307Zm2.548-8.152a2.489,2.489,0,1,1,0,3.52A2.5,2.5,0,0,1,202.2,156.155Z" transform="translate(-45.246)" fill="#fff"/>
    <path id="Path_6191" data-name="Path 6191" d="M398.667,418.249c-.181-.216-.367-.428-.55-.643l-.419-.489a12.249,12.249,0,0,1-1.887,5.015c.4.29.78.579,1.175.842a.927.927,0,0,0,.99-.014l.234-.235a2.467,2.467,0,0,0,.13-.353q.313-1.51.612-3.022A1.262,1.262,0,0,0,398.667,418.249Z" transform="translate(-233.258 -254.569)" fill="#fff"/>
    <path id="Path_6192" data-name="Path 6192" d="M299.445,557.738a.534.534,0,0,0-.25-.508.5.5,0,0,0-.749.478q0,1.94.005,3.88c0,.166-.005.332,0,.5a.494.494,0,0,0,.663.461c.03-.009.061-.014.092-.021l.188-.188c.017-.173.044-.346.05-.52.008-.254,0-.508,0-.763Q299.446,559.4,299.445,557.738Z" transform="translate(-140.213 -388.396)" fill="#fff"/>
    <path id="Path_6193" data-name="Path 6193" d="M346.415,557.149a.492.492,0,0,0-.488.488c-.005.775-.007,1.549,0,2.324a.49.49,0,0,0,.716.43c.03-.013.06-.025.09-.038l.094-.094a1.127,1.127,0,0,0,.087-.3c.006-.78.007-1.56,0-2.34A.482.482,0,0,0,346.415,557.149Z" transform="translate(-185.583 -388.388)" fill="#fff"/>
    <path id="Path_6194" data-name="Path 6194" d="M221.539,480.484c.094.2.184.416.3.621.22.383.453.758.688,1.132a.8.8,0,0,0,.709.393q2.208,0,4.415-.006a.793.793,0,0,0,.661-.327,9.126,9.126,0,0,0,1.027-1.825Z" transform="translate(-66.717 -315.113)" fill="#fff"/>
    <path id="Path_6195" data-name="Path 6195" d="M153,417.452c-.342.4-.659.771-.971,1.144a1.208,1.208,0,0,0-.284,1.037c.2,1.042.41,2.083.641,3.119a.9.9,0,0,0,1.422.509c.157-.114.314-.226.469-.341.207-.153.412-.307.622-.464a11.29,11.29,0,0,1-1.224-2.386A13.685,13.685,0,0,1,153,417.452Z" transform="translate(0 -254.888)" fill="#fff"/>
    <path id="Path_6196" data-name="Path 6196" d="M251.847,557.483a.52.52,0,0,0-.579-.159.476.476,0,0,0-.32.476q0,1.135,0,2.27a.5.5,0,1,0,.993,0c0-.757,0-1.513-.007-2.27A1.068,1.068,0,0,0,251.847,557.483Z" transform="translate(-94.821 -388.522)" fill="#fff"/>
    <path id="Path_6197" data-name="Path 6197" d="M278.164,281.618a1.493,1.493,0,1,0-2.1-.022A1.493,1.493,0,0,0,278.164,281.618Z" transform="translate(-118.41 -122.634)" fill="#fff"/>
  </g>
</svg>
