<svg xmlns="http://www.w3.org/2000/svg" width="18.304" height="14.876" viewBox="0 0 18.304 14.876">
  <g id="Group_13974" data-name="Group 13974" transform="translate(-218.862 -32)">
    <g id="Group_13970" data-name="Group 13970" transform="translate(218.862 32)">
      <g id="Group_13969" data-name="Group 13969" transform="translate(0)">
        <path id="Path_6188" data-name="Path 6188" d="M-77.846-81.962a5.669,5.669,0,0,1-.195.624,2.278,2.278,0,0,1-3.707.706c-.029-.029-.06-.056-.1-.1a2.3,2.3,0,0,1-1.708.767,2.29,2.29,0,0,1-1.722-.769,2.3,2.3,0,0,1-1.713.769,2.29,2.29,0,0,1-1.72-.77,2.292,2.292,0,0,1-1.715.77,2.253,2.253,0,0,1-1.676-.725,7.061,7.061,0,0,1-.926.559,2.281,2.281,0,0,1-3.116-1.958.883.883,0,0,1,.167-.588q1.369-1.921,2.74-3.84a.692.692,0,0,1,.6-.313q5.64,0,11.28,0a.677.677,0,0,1,.591.3q1.374,1.928,2.749,3.855a2.292,2.292,0,0,1,.169.348Z" transform="translate(96.15 86.826)" fill="#fff"/>
        <path id="Path_6189" data-name="Path 6189" d="M-54.637,82.583v.208q0,2.779,0,5.559a1.166,1.166,0,0,1-1.293,1.292h-.991V83.934h-3.434v5.708h-9.022a1.162,1.162,0,0,1-1.278-1.272q0-2.806,0-5.612v-.191c.178.041.342.085.509.117a3.347,3.347,0,0,0,2.22-.3.257.257,0,0,1,.263,0,3.473,3.473,0,0,0,3.179,0,.316.316,0,0,1,.241,0,3.51,3.51,0,0,0,3.2,0,.316.316,0,0,1,.241.005,3.5,3.5,0,0,0,3.182,0,.292.292,0,0,1,.225-.01,3.375,3.375,0,0,0,2.682.224A.611.611,0,0,1-54.637,82.583Zm-13.721,4.758H-63.8V83.93h-4.554Z" transform="translate(71.797 -74.766)" fill="#fff"/>
      </g>
    </g>
  </g>
</svg>
