<svg xmlns="http://www.w3.org/2000/svg" width="21" height="21" viewBox="0 0 21 21">
  <path id="Path_6377" data-name="Path 6377" d="M-33.131,1016.93h-.975c-.583,0-.867-.3-.867-.9q0-1.482,0-2.964a4.922,4.922,0,0,1,1.185-3.279c.64-.754,1.292-1.5,1.931-2.251a1.919,1.919,0,0,1,1.547-.715q6,.008,11.994,0a1.917,1.917,0,0,1,1.632.828c.545.732,1.1,1.454,1.656,2.179a5.037,5.037,0,0,1,1.053,3.163c0,1.021,0,2.041,0,3.062a.771.771,0,0,1-.841.881h-.632v.289q0,4.106,0,8.213a2.294,2.294,0,0,1-1.642,2.3,2.382,2.382,0,0,1-.636.082q-6.561.007-13.122,0a2.269,2.269,0,0,1-2.281-2.406q0-4.082,0-8.164Zm4.789,9.33v-.292c0-1.061,0-2.122,0-3.183a3.026,3.026,0,0,1,2.964-3.133c.714,0,1.427,0,2.141,0a3.028,3.028,0,0,1,3,3.17c0,1.053,0,2.106,0,3.159v.281H-17.8c.61,0,.881-.288.881-.937q0-4.057,0-8.115v-.266H-31.657v5.307c0,1.061,0,2.122,0,3.183a.749.749,0,0,0,.684.821C-30.106,1026.271-29.24,1026.26-28.342,1026.26Zm6.994-10.895c0-1.03.012-2.034-.005-3.037a2.716,2.716,0,0,0-.369-1.288q-.711-1.261-1.441-2.511a.319.319,0,0,0-.233-.135q-.9-.017-1.795,0a.319.319,0,0,0-.232.137q-.73,1.263-1.44,2.54a2.849,2.849,0,0,0-.368,1.362c-.011.947,0,1.894,0,2.841a.433.433,0,0,0,.02.09Zm-5.717-6.969c-1.162,0-2.265-.006-3.367.009a.524.524,0,0,0-.326.192c-.655.75-1.3,1.508-1.947,2.266a2.943,2.943,0,0,0-.725,1.543,15.751,15.751,0,0,0-.067,1.621c-.009.442,0,.885,0,1.334h4.789c0-.9-.006-1.792,0-2.68a6.968,6.968,0,0,1,.069-.917,4.689,4.689,0,0,1,.616-1.685C-27.708,1009.535-27.4,1008.987-27.065,1008.4Zm5.565-.02c.051.1.083.172.12.238.279.493.557.987.841,1.478a4.939,4.939,0,0,1,.671,2.561c-.006.818,0,1.636,0,2.454v.255h4.421v-.248c0-.7-.006-1.393,0-2.09a3.513,3.513,0,0,0-.744-2.242q-.827-1.075-1.642-2.16a.558.558,0,0,0-.49-.251c-.982.008-1.965,0-2.947,0Zm-.211,17.876c0-1.16,0-2.293,0-3.426a1.513,1.513,0,0,0-1.536-1.618q-1.035,0-2.071,0a1.513,1.513,0,0,0-1.549,1.629q0,1.6,0,3.206c0,.069.008.139.013.21Z" transform="translate(34.973 -1006.818)" fill="#b2b2b2"/>
</svg>
