<svg id="Group_14547" data-name="Group 14547" xmlns="http://www.w3.org/2000/svg" width="9.472" height="9.472" viewBox="0 0 9.472 9.472">
  <g id="Group_14546" data-name="Group 14546" transform="translate(0 0)">
    <path id="Path_9732" data-name="Path 9732" d="M-289.357,257.89a3.626,3.626,0,0,1,.478.158,1.4,1.4,0,0,1,.753,1.4,1.393,1.393,0,0,1-1.126,1.213,1.392,1.392,0,0,1-1.486-.73,1.4,1.4,0,0,1,.277-1.648,1.353,1.353,0,0,1,.765-.376.209.209,0,0,0,.042-.016Z" transform="translate(294.241 -257.89)" fill="#ff7642"/>
    <path id="Path_9733" data-name="Path 9733" d="M-472,680.285a3.6,3.6,0,0,1,.149-.463,1.4,1.4,0,0,1,1.5-.774,1.4,1.4,0,0,1,1.128,1.192c.02.155.013.313.018.47H-472Z" transform="translate(472 -671.239)" fill="#ff7642"/>
    <path id="Path_9734" data-name="Path 9734" d="M-111.044,680.527a2.081,2.081,0,0,1,.091-.774,1.4,1.4,0,0,1,1.414-.9,1.428,1.428,0,0,1,1.269,1.182.659.659,0,0,0,.019.071v.425Z" transform="translate(117.722 -671.055)" fill="#ff7642"/>
    <path id="Path_9735" data-name="Path 9735" d="M-291.043,680.488a2.082,2.082,0,0,1,.091-.774,1.4,1.4,0,0,1,1.421-.9,1.4,1.4,0,0,1,1.244,1.2c.02.158.013.319.019.479Z" transform="translate(294.392 -671.016)" fill="#ff7642"/>
    <path id="Path_9736" data-name="Path 9736" d="M-351.833,441.722h-.6a1.4,1.4,0,0,0-1.411-1.1,1.4,1.4,0,0,0-1.312,1.1h-.582a3.864,3.864,0,0,0-.263-.511,3.741,3.741,0,0,0-.392-.41,2.745,2.745,0,0,1,2.621-1.846,2.748,2.748,0,0,1,2.579,1.868A1.456,1.456,0,0,0-351.833,441.722Z" transform="translate(358.536 -435.603)" fill="#ff7642"/>
    <path id="Path_9737" data-name="Path 9737" d="M-439.3,559.758a.839.839,0,0,1-.828.833.84.84,0,0,1-.835-.835.839.839,0,0,1,.833-.828A.839.839,0,0,1-439.3,559.758Z" transform="translate(441.539 -553.358)" fill="#ff7642"/>
    <path id="Path_9738" data-name="Path 9738" d="M-260.135,558.925a.839.839,0,0,1,.836.826.839.839,0,0,1-.823.838.84.84,0,0,1-.84-.83A.839.839,0,0,1-260.135,558.925Z" transform="translate(264.867 -553.356)" fill="#ff7642"/>
    <path id="Path_9739" data-name="Path 9739" d="M-80.965,559.759a.839.839,0,0,1,.825-.836.839.839,0,0,1,.838.832.839.839,0,0,1-.83.831A.839.839,0,0,1-80.965,559.759Z" transform="translate(88.199 -553.354)" fill="#ff7642"/>
  </g>
</svg>
