<svg xmlns="http://www.w3.org/2000/svg" width="8.572" height="6.857" viewBox="0 0 8.572 6.857">
  <path id="Icon_awesome-crown" data-name="Icon awesome-crown" d="M7.072,6H1.5a.215.215,0,0,0-.214.214v.429a.215.215,0,0,0,.214.214H7.072a.215.215,0,0,0,.214-.214V6.214A.215.215,0,0,0,7.072,6Zm.857-4.286a.643.643,0,0,0-.643.643.63.63,0,0,0,.059.265l-.97.581a.428.428,0,0,1-.592-.155L4.692,1.138a.643.643,0,1,0-.812,0L2.788,3.048A.428.428,0,0,1,2.2,3.2l-.968-.581A.643.643,0,1,0,.643,3a.656.656,0,0,0,.1-.011l.968,2.582H6.857l.968-2.582a.656.656,0,0,0,.1.011.643.643,0,1,0,0-1.286Z" fill="#fff"/>
</svg>
