<svg xmlns="http://www.w3.org/2000/svg" width="12.5" height="8.75" viewBox="0 0 12.5 8.75">
  <path id="Icon_awesome-user-friends" data-name="Icon awesome-user-friends" d="M3.75,6.625A2.187,2.187,0,1,0,1.563,4.438,2.186,2.186,0,0,0,3.75,6.625Zm1.5.625H5.088a3.02,3.02,0,0,1-2.676,0H2.25A2.251,2.251,0,0,0,0,9.5v.562A.938.938,0,0,0,.938,11H6.563a.938.938,0,0,0,.938-.937V9.5A2.251,2.251,0,0,0,5.25,7.25Zm4.125-.625A1.875,1.875,0,1,0,7.5,4.75,1.875,1.875,0,0,0,9.375,6.625Zm.938.625h-.074a2.463,2.463,0,0,1-1.727,0H8.438a2.169,2.169,0,0,0-1.088.3A2.858,2.858,0,0,1,8.125,9.5v.75c0,.043-.01.084-.012.125h3.449a.938.938,0,0,0,.938-.937A2.186,2.186,0,0,0,10.313,7.25Z" transform="translate(0 -2.25)" fill="#ff7642"/>
</svg>
