<svg xmlns="http://www.w3.org/2000/svg" width="217.66" height="231.586" viewBox="0 0 217.66 231.586">
  <g id="Group_13192" data-name="Group 13192" transform="translate(-53.332 -36.363)">
    <g id="Background_Complete" data-name="Background Complete" transform="translate(53.332 40.839)">
      <g id="Group_13021" data-name="Group 13021" transform="translate(0 91.359)">
        <path id="Path_5277" data-name="Path 5277" d="M53.332,216.931v26.563a8.7,8.7,0,0,0,8.7,8.7h95.245a8.7,8.7,0,0,0,8.7-8.7V221.049l11.858-12.458-115.778-.362A8.7,8.7,0,0,0,53.332,216.931Z" transform="translate(-53.332 -208.229)" fill="#f5f5f5"/>
        <g id="Group_13018" data-name="Group 13018" transform="translate(12.18 13.037)">
          <path id="Path_5278" data-name="Path 5278" d="M161.6,234.665l-86.429-.4.009-2.657,86.429.4Z" transform="translate(-75.176 -231.609)" fill="#e0e0e0"/>
        </g>
        <g id="Group_13019" data-name="Group 13019" transform="translate(12.18 21.777)">
          <path id="Path_5279" data-name="Path 5279" d="M161.6,250.338l-86.429-.4.009-2.657,86.429.4Z" transform="translate(-75.176 -247.282)" fill="#e0e0e0"/>
        </g>
        <g id="Group_13020" data-name="Group 13020" transform="translate(64.411 30.526)">
          <rect id="Rectangle_1630" data-name="Rectangle 1630" width="2.657" height="34.198" transform="translate(0 2.656) rotate(-89.718)" fill="#e0e0e0"/>
        </g>
      </g>
      <g id="Group_13025" data-name="Group 13025" transform="translate(88.254 183.142)">
        <path id="Path_5280" data-name="Path 5280" d="M211.6,381.53v26.563a8.7,8.7,0,0,0,8.7,8.7h95.245a8.7,8.7,0,0,0,8.7-8.7V385.648l11.857-12.458-115.778-.362A8.7,8.7,0,0,0,211.6,381.53Z" transform="translate(-211.602 -372.828)" fill="#f5f5f5"/>
        <g id="Group_13022" data-name="Group 13022" transform="translate(12.594 12.347)">
          <path id="Path_5281" data-name="Path 5281" d="M320.617,398.027l-86.429-.4.009-2.657,86.429.4Z" transform="translate(-234.188 -394.971)" fill="#e0e0e0"/>
        </g>
        <g id="Group_13023" data-name="Group 13023" transform="translate(12.594 21.087)">
          <path id="Path_5282" data-name="Path 5282" d="M320.617,413.7l-86.429-.4.009-2.657,86.429.4Z" transform="translate(-234.188 -410.644)" fill="#e0e0e0"/>
        </g>
        <g id="Group_13024" data-name="Group 13024" transform="translate(64.825 29.836)">
          <rect id="Rectangle_1631" data-name="Rectangle 1631" width="2.657" height="34.198" transform="translate(0 2.656) rotate(-89.718)" fill="#e0e0e0"/>
        </g>
      </g>
      <path id="Path_5283" data-name="Path 5283" d="M144.63,44.39h56.177a5.035,5.035,0,0,1,5.035,5.035V76.9a5.035,5.035,0,0,1-5.035,5.035h-47.67A5.035,5.035,0,0,1,148.1,76.9V47.861Z" transform="translate(-93.721 -44.39)" fill="#f5f5f5"/>
      <g id="Group_13029" data-name="Group 13029" transform="translate(0.897 20.941)">
        <path id="Path_5284" data-name="Path 5284" d="M137.519,87.715v17.617a5.772,5.772,0,0,1-5.771,5.772H68.577a5.772,5.772,0,0,1-5.772-5.772V90.447L54.94,82.184l76.789-.24A5.771,5.771,0,0,1,137.519,87.715Z" transform="translate(-54.94 -81.944)" fill="#e0e0e0"/>
        <g id="Group_13026" data-name="Group 13026" transform="translate(17.171 8.647)">
          <path id="Path_5285" data-name="Path 5285" d="M85.739,99.477l57.324-.265-.006-1.762-57.324.265Z" transform="translate(-85.733 -97.451)" fill="#f5f5f5"/>
        </g>
        <g id="Group_13027" data-name="Group 13027" transform="translate(17.171 14.443)">
          <path id="Path_5286" data-name="Path 5286" d="M85.739,109.872l57.324-.265-.006-1.762-57.324.265Z" transform="translate(-85.733 -107.846)" fill="#f5f5f5"/>
        </g>
        <g id="Group_13028" data-name="Group 13028" transform="translate(17.169 20.246)">
          <rect id="Rectangle_1632" data-name="Rectangle 1632" width="22.682" height="1.762" transform="translate(0 0.112) rotate(-0.282)" fill="#f5f5f5"/>
        </g>
      </g>
      <g id="Group_13033" data-name="Group 13033" transform="translate(120.567 102.637)">
        <path id="Path_5287" data-name="Path 5287" d="M352.13,234.225v17.618a5.772,5.772,0,0,1-5.772,5.771H283.188a5.772,5.772,0,0,1-5.772-5.771V236.957l-7.865-8.263,76.789-.24A5.771,5.771,0,0,1,352.13,234.225Z" transform="translate(-269.551 -228.454)" fill="#e0e0e0"/>
        <g id="Group_13030" data-name="Group 13030" transform="translate(17.171 8.647)">
          <path id="Path_5288" data-name="Path 5288" d="M300.35,245.988l57.324-.265-.006-1.762-57.324.265Z" transform="translate(-300.344 -243.961)" fill="#f5f5f5"/>
        </g>
        <g id="Group_13031" data-name="Group 13031" transform="translate(17.171 14.443)">
          <path id="Path_5289" data-name="Path 5289" d="M300.35,256.383l57.324-.265-.006-1.762-57.324.265Z" transform="translate(-300.344 -254.356)" fill="#f5f5f5"/>
        </g>
        <g id="Group_13032" data-name="Group 13032" transform="translate(17.169 20.247)">
          <rect id="Rectangle_1633" data-name="Rectangle 1633" width="22.682" height="1.762" transform="translate(0 0.112) rotate(-0.282)" fill="#f5f5f5"/>
        </g>
      </g>
    </g>
    <g id="Plants" transform="translate(88.201 92.163)">
      <g id="Group_13051" data-name="Group 13051" transform="translate(105.684 77.11)">
        <g id="Group_13035" data-name="Group 13035">
          <g id="Group_13034" data-name="Group 13034">
            <path id="Path_5290" data-name="Path 5290" d="M313.872,342.152c-9.442-9.193-9.6-23.415-7.14-35.773.409-2.063.54-4.288,1.825-5.946s3.791-2.525,5.505-1.347c1.422.978,1.8,2.88,2.419,4.5a12.3,12.3,0,0,0,4.1,5.443c1.209.9,2.775,1.589,4.2,1.083,1.951-.694,2.567-3.132,2.892-5.2l1.817-11.548a19.488,19.488,0,0,1,1.626-6.026,6.482,6.482,0,0,1,4.73-3.669c2.054-.229,4.3,1.3,4.379,3.388a19.434,19.434,0,0,1-.362,2.579,2.2,2.2,0,0,0,.935,2.251,2.527,2.527,0,0,0,2.421-.576,27.792,27.792,0,0,0,6.143-6.629,38.569,38.569,0,0,1,5.85-6.921,11.3,11.3,0,0,1,8.254-3c2.983.317,5.832,2.656,6.1,5.679s-1.908,5.7-4.14,7.757a46.663,46.663,0,0,1-11.085,7.57,3.839,3.839,0,0,0-1.886,1.462c-.674,1.3.406,2.882,1.69,3.556,1.454.764,3.149.877,4.726,1.33s3.2,1.448,3.564,3.068c.5,2.247-1.626,4.169-3.6,5.333a39.985,39.985,0,0,1-12.779,4.828,13.476,13.476,0,0,0-4.685,1.4c-1.4.867-2.441,2.6-1.939,4.174s2.323,2.351,3.961,2.317a27.89,27.89,0,0,0,4.811-.988c3.011-.606,6.64.189,8.055,2.936a6.616,6.616,0,0,1-.25,5.888,15.255,15.255,0,0,1-3.963,4.587,40.2,40.2,0,0,1-18.889,9.131c-6.95,1.2-13.146.824-19.291-2.638" transform="translate(-305.393 -274.717)" fill="#ff7642"/>
          </g>
        </g>
        <g id="Group_13038" data-name="Group 13038" transform="translate(6.808 2.406)">
          <g id="Group_13037" data-name="Group 13037">
            <g id="Group_13036" data-name="Group 13036">
              <path id="Path_5291" data-name="Path 5291" d="M317.6,353.247a91.8,91.8,0,0,1,6.155-16.452,187.33,187.33,0,0,1,10.6-18.7l3.03-4.76c1-1.56,1.988-3.107,3.049-4.56a93.557,93.557,0,0,1,6.578-8c2.215-2.444,4.407-4.683,6.471-6.761s4.035-3.972,5.9-5.624a74.174,74.174,0,0,1,9.372-7.137c1.168-.753,2.094-1.308,2.726-1.674l.722-.414a1.629,1.629,0,0,1,.253-.129,1.471,1.471,0,0,1-.233.163l-.7.446c-.618.389-1.531.964-2.685,1.735a78.441,78.441,0,0,0-9.273,7.216c-1.848,1.661-3.8,3.565-5.854,5.646s-4.233,4.329-6.435,6.773A94.628,94.628,0,0,0,340.736,309c-1.053,1.447-2.033,2.982-3.032,4.546l-3.026,4.758a192.034,192.034,0,0,0-10.6,18.651,93.41,93.41,0,0,0-6.21,16.367" transform="translate(-317.601 -279.032)" fill="#263238"/>
            </g>
          </g>
        </g>
        <g id="Group_13041" data-name="Group 13041" transform="translate(29.684 8.957)">
          <g id="Group_13040" data-name="Group 13040">
            <g id="Group_13039" data-name="Group 13039">
              <path id="Path_5292" data-name="Path 5292" d="M358.692,313.973a4.231,4.231,0,0,1-.057-.913c-.015-.588-.008-1.439.014-2.49.045-2.1.206-5,.395-8.2s.308-6.094.321-8.19c.009-1.048.008-1.9,0-2.484a4.221,4.221,0,0,1,.031-.914,4.12,4.12,0,0,1,.118.907c.054.586.1,1.436.122,2.488.057,2.1-.019,5.012-.209,8.214-.2,3.155-.371,6.009-.506,8.19-.055.985-.1,1.816-.137,2.483A4.143,4.143,0,0,1,358.692,313.973Z" transform="translate(-358.627 -290.781)" fill="#263238"/>
            </g>
          </g>
        </g>
        <g id="Group_13044" data-name="Group 13044" transform="translate(29.75 30.767)">
          <g id="Group_13043" data-name="Group 13043">
            <g id="Group_13042" data-name="Group 13042">
              <path id="Path_5293" data-name="Path 5293" d="M386.082,330.661a5.89,5.89,0,0,1-1.079-.047c-.69-.051-1.689-.13-2.926-.188-2.472-.135-5.894-.2-9.673-.112s-7.2.331-9.662.571c-1.235.112-2.232.229-2.921.306a5.746,5.746,0,0,1-1.077.084,5.776,5.776,0,0,1,1.057-.234c.684-.123,1.678-.282,2.913-.429,2.466-.311,5.892-.589,9.683-.687a94.757,94.757,0,0,1,9.7.228c1.239.094,2.237.214,2.925.312A5.677,5.677,0,0,1,386.082,330.661Z" transform="translate(-358.744 -329.893)" fill="#263238"/>
            </g>
          </g>
        </g>
        <g id="Group_13047" data-name="Group 13047" transform="translate(5.556 23.669)">
          <g id="Group_13046" data-name="Group 13046">
            <g id="Group_13045" data-name="Group 13045">
              <path id="Path_5294" data-name="Path 5294" d="M323.169,353.229a1.4,1.4,0,0,1-.129-.353c-.08-.279-.178-.621-.3-1.034-.253-.9-.586-2.21-.976-3.834-.782-3.248-1.722-7.769-2.691-12.772s-1.866-9.529-2.579-12.788l-.857-3.859-.227-1.052a1.379,1.379,0,0,1-.053-.374,1.424,1.424,0,0,1,.129.354l.3,1.033c.253.9.586,2.21.976,3.834.782,3.248,1.721,7.769,2.691,12.774s1.866,9.527,2.579,12.787c.352,1.585.641,2.89.856,3.859l.227,1.052A1.353,1.353,0,0,1,323.169,353.229Z" transform="translate(-315.357 -317.164)" fill="#263238"/>
            </g>
          </g>
        </g>
        <g id="Group_13050" data-name="Group 13050" transform="translate(13.368 54.137)">
          <g id="Group_13049" data-name="Group 13049">
            <g id="Group_13048" data-name="Group 13048">
              <path id="Path_5295" data-name="Path 5295" d="M366.477,371.812a1.443,1.443,0,0,1-.374.087l-1.08.176-3.975.605c-3.356.512-7.984,1.272-13.1,2.119s-9.753,1.566-13.121,2.008c-1.683.222-3.048.388-3.993.482l-1.089.1a1.416,1.416,0,0,1-.383.009,1.456,1.456,0,0,1,.374-.088l1.08-.175,3.974-.606c3.356-.511,7.985-1.272,13.1-2.119s9.751-1.565,13.118-2.007c1.684-.222,3.048-.388,3.994-.483l1.089-.1A1.405,1.405,0,0,1,366.477,371.812Z" transform="translate(-329.367 -371.804)" fill="#263238"/>
            </g>
          </g>
        </g>
      </g>
      <g id="Group_13055" data-name="Group 13055">
        <path id="Path_5296" data-name="Path 5296" d="M150.615,161.294a6.206,6.206,0,0,1-2.134-5.855,8.243,8.243,0,0,1,3.548-5.289,3.472,3.472,0,0,1,2.83-.738,2.655,2.655,0,0,1,1.717,2.07,5.385,5.385,0,0,1-.323,2.776c-1.058,3.056-2.642,5.819-5.639,7.035" transform="translate(-130.255 -142.136)" fill="#455a64"/>
        <path id="Path_5297" data-name="Path 5297" d="M135.035,177.207a14.52,14.52,0,0,0-12.833-3.359c-1.14.264-2.425.867-2.612,2.023s.846,2.14,1.861,2.728a12.4,12.4,0,0,0,13.719-1.1" transform="translate(-117.502 -152.829)" fill="#455a64"/>
        <path id="Path_5298" data-name="Path 5298" d="M117.027,136.645a7.276,7.276,0,0,1,5.614.966,12.843,12.843,0,0,1,4.015,4.194c2.021,3.192,2.732,7.483,2.822,11.259-4.192-.17-7.775-3.464-9.487-5.251-2.706-2.823-5.884-9.567-2.964-11.17" transform="translate(-115.864 -136.432)" fill="#455a64"/>
        <g id="Group_13052" data-name="Group 13052" transform="translate(20.221 12.139)">
          <path id="Path_5299" data-name="Path 5299" d="M155.78,176.144a14.978,14.978,0,0,1-1.046-1.58,26.617,26.617,0,0,1-2.362-6.732,13.353,13.353,0,0,1,.524-7.1,8.754,8.754,0,0,1,1.014-1.924,2.453,2.453,0,0,1,.518-.605,18.575,18.575,0,0,0-1.25,2.631,14.007,14.007,0,0,0-.389,6.923,30.867,30.867,0,0,0,2.217,6.681" transform="translate(-152.128 -158.202)" fill="#263238"/>
        </g>
        <g id="Group_13053" data-name="Group 13053" transform="translate(4.035 5.134)">
          <path id="Path_5300" data-name="Path 5300" d="M142.978,170.638l-2.183-2.815c-1.837-2.382-4.383-5.665-7.243-9.256s-5.492-6.8-7.4-9.125l-2.257-2.757a7.7,7.7,0,0,1-.789-1.044,7.8,7.8,0,0,1,.914.937c.569.621,1.376,1.533,2.361,2.671,1.972,2.275,4.643,5.462,7.506,9.054s5.374,6.91,7.151,9.34c.889,1.214,1.6,2.2,2.077,2.9" transform="translate(-123.101 -145.64)" fill="#263238"/>
        </g>
        <g id="Group_13054" data-name="Group 13054" transform="translate(7.317 22.95)">
          <path id="Path_5301" data-name="Path 5301" d="M128.987,178.139a2.629,2.629,0,0,1,.727-.222,6.056,6.056,0,0,1,.876-.167,10.227,10.227,0,0,1,1.177-.127,15.278,15.278,0,0,1,3.08.117,16.33,16.33,0,0,1,6.995,2.721,15.275,15.275,0,0,1,2.35,2,10.3,10.3,0,0,1,.782.888,6.086,6.086,0,0,1,.533.715c.272.408.234.6.21.615a24.629,24.629,0,0,0-1.735-2.006,17.075,17.075,0,0,0-2.356-1.884,17.245,17.245,0,0,0-6.834-2.658,17.042,17.042,0,0,0-3.01-.2C130.056,177.966,129,178.221,128.987,178.139Z" transform="translate(-128.987 -177.59)" fill="#263238"/>
        </g>
      </g>
    </g>
    <g id="Device" transform="translate(110.693 36.363)">
      <g id="Group_13064" data-name="Group 13064" transform="translate(0 31.76)">
        <g id="Group_13063" data-name="Group 13063">
          <g id="Group_13059" data-name="Group 13059">
            <g id="Group_13058" data-name="Group 13058">
              <g id="Group_13056" data-name="Group 13056">
                <path id="Path_5302" data-name="Path 5302" d="M234.57,283.141l-64.4-.3A14.029,14.029,0,0,1,156.2,268.754l.683-161.465a14.03,14.03,0,0,1,14.094-13.97l64.405.3a14.03,14.03,0,0,1,13.964,14.089l-.683,161.465A14.03,14.03,0,0,1,234.57,283.141Z" transform="translate(-156.2 -93.32)" fill="#263238"/>
              </g>
              <g id="Group_13057" data-name="Group 13057" transform="translate(4.277 5.573)">
                <path id="Path_5303" data-name="Path 5303" d="M238.683,103.611l-12.487-.058a3.1,3.1,0,0,0-3.045,3.156l-.01,2.265a3.1,3.1,0,0,1-3.045,3.156l-24.34-.112a3.105,3.105,0,0,1-3.019-3.184l.01-2.265a3.106,3.106,0,0,0-3.02-3.184l-4.391-.02-10.929-.051a9.826,9.826,0,0,0-9.871,9.784l-.666,157.6a9.825,9.825,0,0,0,9.78,9.868l64.276.3a9.826,9.826,0,0,0,9.87-9.784l.666-157.6A9.826,9.826,0,0,0,238.683,103.611Z" transform="translate(-163.87 -103.314)" fill="#fafafa"/>
              </g>
            </g>
          </g>
          <g id="Group_13060" data-name="Group 13060" transform="translate(40.061 166.888)">
            <path id="Path_5304" data-name="Path 5304" d="M230.7,393.754a1.342,1.342,0,1,1-1.322-1.146A1.243,1.243,0,0,1,230.7,393.754Z" transform="translate(-228.043 -392.608)" fill="#455a64"/>
          </g>
          <g id="Group_13061" data-name="Group 13061" transform="translate(44.171 166.907)">
            <path id="Path_5305" data-name="Path 5305" d="M238.065,393.788a1.341,1.341,0,1,1-1.321-1.146A1.243,1.243,0,0,1,238.065,393.788Z" transform="translate(-235.413 -392.642)" fill="#455a64"/>
          </g>
          <g id="Group_13062" data-name="Group 13062" transform="translate(48.28 166.926)">
            <path id="Path_5306" data-name="Path 5306" d="M245.435,393.821a1.342,1.342,0,1,1-1.322-1.145A1.243,1.243,0,0,1,245.435,393.821Z" transform="translate(-242.782 -392.676)" fill="#455a64"/>
          </g>
        </g>
      </g>
      <path id="Path_5307" data-name="Path 5307" d="M199.517,240.1c1.047.149,64.229,12.541,64.229,12.541V240.1Z" transform="translate(-175.363 -126.493)" fill="#ebebeb"/>
      <path id="Path_5308" data-name="Path 5308" d="M163.869,375.413s68.73-9.724,68.131-9.424-68.131,0-68.131,0Z" transform="translate(-159.593 -182.181)" fill="#ebebeb"/>
      <g id="Group_13065" data-name="Group 13065" transform="translate(83.948 9.224)">
        <path id="Path_5309" data-name="Path 5309" d="M306.894,52.9c.08,0,.145,3.475.145,7.76s-.065,7.761-.145,7.761-.146-3.474-.146-7.761S306.813,52.9,306.894,52.9Z" transform="translate(-306.748 -52.905)" fill="#263238"/>
      </g>
      <g id="Group_13066" data-name="Group 13066" transform="translate(97.396 27.082)">
        <path id="Path_5310" data-name="Path 5310" d="M345.065,84.933c.032.074-3.12,1.536-7.041,3.267s-7.126,3.074-7.159,3,3.119-1.536,7.042-3.267S345.032,84.86,345.065,84.933Z" transform="translate(-330.865 -84.93)" fill="#263238"/>
      </g>
      <g id="Group_13067" data-name="Group 13067" transform="translate(93.062)">
        <path id="Path_5311" data-name="Path 5311" d="M340.931,36.363a1.486,1.486,0,0,1-.149.3l-.477.822c-.417.713-1.04,1.732-1.819,2.985-1.561,2.5-3.809,5.91-6.354,9.623s-4.817,7.1-6.422,9.571l-1.9,2.934-.523.793a1.416,1.416,0,0,1-.2.266,1.412,1.412,0,0,1,.149-.3l.477-.822c.417-.713,1.04-1.731,1.819-2.985,1.561-2.5,3.809-5.91,6.355-9.624s4.816-7.095,6.421-9.569l1.9-2.934.523-.793A1.422,1.422,0,0,1,340.931,36.363Z" transform="translate(-323.092 -36.363)" fill="#263238"/>
      </g>
    </g>
    <g id="Speech_Bubbles" data-name="Speech Bubbles" transform="translate(73.166 102.01)">
      <g id="Group_13073" data-name="Group 13073" transform="translate(56.354)">
        <path id="Path_5312" data-name="Path 5312" d="M320.593,154.092H194.882a4.917,4.917,0,0,0-4.917,4.917V198a4.917,4.917,0,0,0,4.917,4.916h9.365c.754,4.072,1.637,9.21,1.637,9.21l8.477-9.21H320.593A4.916,4.916,0,0,0,325.509,198V159.009A4.916,4.916,0,0,0,320.593,154.092Z" transform="translate(-189.965 -154.092)" fill="#ff7642"/>
        <g id="Group_13072" data-name="Group 13072" transform="translate(11.929 15.013)">
          <g id="Group_13068" data-name="Group 13068" transform="translate(0 5.994)">
            <path id="Path_5313" data-name="Path 5313" d="M278.191,191.91c0,.08-14.962.145-33.415.145s-33.418-.065-33.418-.145,14.959-.145,33.418-.145S278.191,191.83,278.191,191.91Z" transform="translate(-211.358 -191.765)" fill="#f5f5f5"/>
          </g>
          <g id="Group_13069" data-name="Group 13069">
            <path id="Path_5314" data-name="Path 5314" d="M278.191,181.161c0,.08-14.962.145-33.415.145s-33.418-.065-33.418-.145,14.959-.146,33.418-.146S278.191,181.08,278.191,181.161Z" transform="translate(-211.358 -181.015)" fill="#f5f5f5"/>
          </g>
          <g id="Group_13070" data-name="Group 13070" transform="translate(0 11.922)">
            <path id="Path_5315" data-name="Path 5315" d="M278.191,202.541c0,.08-14.962.146-33.415.146s-33.418-.065-33.418-.146,14.959-.145,33.418-.145S278.191,202.461,278.191,202.541Z" transform="translate(-211.358 -202.396)" fill="#f5f5f5"/>
          </g>
          <g id="Group_13071" data-name="Group 13071" transform="translate(0 18.063)">
            <path id="Path_5316" data-name="Path 5316" d="M255.134,213.553c0,.08-9.8.146-21.887.146s-21.889-.065-21.889-.146,9.8-.145,21.889-.145S255.134,213.473,255.134,213.553Z" transform="translate(-211.358 -213.408)" fill="#f5f5f5"/>
          </g>
        </g>
      </g>
      <g id="Group_13079" data-name="Group 13079" transform="translate(0 70.106)">
        <path id="Path_5317" data-name="Path 5317" d="M219.085,279.816H92.341a3.439,3.439,0,0,0-3.439,3.439v41.256a3.44,3.44,0,0,0,3.439,3.44h92.051l8.379,9.1s.879-5.117,1.619-9.1h24.694a3.44,3.44,0,0,0,3.439-3.44V283.255A3.439,3.439,0,0,0,219.085,279.816Z" transform="translate(-88.902 -279.816)" fill="#455a64"/>
        <g id="Group_13078" data-name="Group 13078" transform="translate(58.379 15.135)">
          <g id="Group_13074" data-name="Group 13074" transform="translate(0 5.994)">
            <path id="Path_5318" data-name="Path 5318" d="M260.428,317.853c0,.08-14.963.145-33.415.145s-33.418-.065-33.418-.145,14.959-.145,33.418-.145S260.428,317.773,260.428,317.853Z" transform="translate(-193.595 -317.708)" fill="#f5f5f5"/>
          </g>
          <g id="Group_13075" data-name="Group 13075">
            <path id="Path_5319" data-name="Path 5319" d="M260.428,307.1c0,.08-14.963.145-33.415.145s-33.418-.065-33.418-.145,14.959-.146,33.418-.146S260.428,307.023,260.428,307.1Z" transform="translate(-193.595 -306.958)" fill="#f5f5f5"/>
          </g>
          <g id="Group_13076" data-name="Group 13076" transform="translate(0 11.922)">
            <path id="Path_5320" data-name="Path 5320" d="M260.428,328.484c0,.08-14.963.145-33.415.145s-33.418-.065-33.418-.145,14.959-.145,33.418-.145S260.428,328.4,260.428,328.484Z" transform="translate(-193.595 -328.339)" fill="#f5f5f5"/>
          </g>
          <g id="Group_13077" data-name="Group 13077" transform="translate(0 18.063)">
            <path id="Path_5321" data-name="Path 5321" d="M237.371,339.5c0,.08-9.8.146-21.887.146s-21.889-.065-21.889-.146,9.8-.145,21.889-.145S237.371,339.416,237.371,339.5Z" transform="translate(-193.595 -339.351)" fill="#f5f5f5"/>
          </g>
        </g>
      </g>
    </g>
    <g id="Character_2" data-name="Character 2" transform="translate(210.492 68.123)">
      <g id="Group_13135" data-name="Group 13135">
        <g id="Group_13123" data-name="Group 13123">
          <path id="Path_5322" data-name="Path 5322" d="M365.35,110.668a5.042,5.042,0,0,0-1.686-3.251,3.335,3.335,0,0,1-.931-3.552c.341-1.266,1.144-1.172,1.462-1.916a5.631,5.631,0,0,0,.185-1.777,3.7,3.7,0,0,1,4.414-3.145,5.128,5.128,0,0,1,9.458-.985,3.944,3.944,0,0,1,5.752,3.2,2.871,2.871,0,0,1,3.733.564,3.538,3.538,0,0,1,.269,3.9,4.639,4.639,0,0,1-3.351,2.207,6.811,6.811,0,0,1-4.024-.731,13.026,13.026,0,0,1-3.3-2.494" transform="translate(-347.295 -93.32)" fill="#263238"/>
          <ellipse id="Ellipse_4" data-name="Ellipse 4" cx="24.139" cy="23.573" rx="24.139" ry="23.573" transform="translate(3.033 34.279)" fill="#e0e0e0"/>
          <g id="Group_13118" data-name="Group 13118" transform="translate(0 5.753)">
            <g id="Group_13112" data-name="Group 13112" transform="translate(3.701)">
              <path id="Path_5323" data-name="Path 5323" d="M417.653,191.668l-2.672-6.851-9.576,6.017,8.533,13.158S417.409,199.483,417.653,191.668Z" transform="translate(-369.944 -139.55)" fill="#eb996e"/>
              <g id="Group_13103" data-name="Group 13103" transform="translate(11.792)">
                <g id="Group_13102" data-name="Group 13102">
                  <g id="Group_13101" data-name="Group 13101" transform="translate(0 0.96)">
                    <g id="Group_13098" data-name="Group 13098">
                      <g id="Group_13093" data-name="Group 13093" transform="translate(3.038)">
                        <g id="Group_13092" data-name="Group 13092">
                          <g id="Group_13080" data-name="Group 13080">
                            <path id="Path_5324" data-name="Path 5324" d="M374.85,141.684h0a6.423,6.423,0,0,0,6.451-6.074c.142-2.837.26-5.569.26-5.569s5.268-.381,5.754-5.531.553-17.059.553-17.059h0a18.275,18.275,0,0,0-18.349.8l-.5.322-.608,26.65A6.424,6.424,0,0,0,374.85,141.684Z" transform="translate(-368.407 -105.359)" fill="#ffbe9d"/>
                          </g>
                          <g id="Group_13084" data-name="Group 13084" transform="translate(8.275 9.465)">
                            <g id="Group_13081" data-name="Group 13081" transform="translate(0.194 0.509)">
                              <path id="Path_5325" data-name="Path 5325" d="M384.591,123.285a.75.75,0,0,1,.481.95.759.759,0,0,1-.957.476.75.75,0,0,1-.481-.95A.759.759,0,0,1,384.591,123.285Z" transform="translate(-383.595 -123.246)" fill="#263238"/>
                            </g>
                            <g id="Group_13083" data-name="Group 13083">
                              <g id="Group_13082" data-name="Group 13082">
                                <path id="Path_5326" data-name="Path 5326" d="M385.881,123.148c-.087.085-.575-.336-1.292-.381s-1.26.29-1.334.194c-.036-.043.055-.2.292-.357a1.784,1.784,0,0,1,2.1.149C385.856,122.944,385.923,123.111,385.881,123.148Z" transform="translate(-383.247 -122.333)" fill="#263238"/>
                              </g>
                            </g>
                          </g>
                          <g id="Group_13088" data-name="Group 13088" transform="translate(16.233 9.481)">
                            <g id="Group_13085" data-name="Group 13085" transform="translate(0.097 0.493)">
                              <path id="Path_5327" data-name="Path 5327" d="M398.69,123.285a.75.75,0,0,1,.481.95.759.759,0,0,1-.958.476.75.75,0,0,1-.481-.95A.759.759,0,0,1,398.69,123.285Z" transform="translate(-397.694 -123.246)" fill="#263238"/>
                            </g>
                            <g id="Group_13087" data-name="Group 13087">
                              <g id="Group_13086" data-name="Group 13086">
                                <path id="Path_5328" data-name="Path 5328" d="M400.153,123.177c-.087.085-.575-.336-1.292-.382s-1.26.291-1.334.195c-.037-.043.054-.2.292-.357a1.785,1.785,0,0,1,2.1.15C400.127,122.972,400.194,123.14,400.153,123.177Z" transform="translate(-397.519 -122.362)" fill="#263238"/>
                              </g>
                            </g>
                          </g>
                          <g id="Group_13090" data-name="Group 13090" transform="translate(13.456 9.658)">
                            <g id="Group_13089" data-name="Group 13089">
                              <path id="Path_5329" data-name="Path 5329" d="M392.539,128.886a3.5,3.5,0,0,1,1.178-.15c.189-.005.34-.035.361-.134a1,1,0,0,0-.091-.543l-.448-1.488a19.7,19.7,0,0,1-.916-3.892,19.694,19.694,0,0,1,1.309,3.78c.144.517.282,1.01.417,1.5a1.18,1.18,0,0,1,.04.78.491.491,0,0,1-.347.27,1.2,1.2,0,0,1-.323.016A3.512,3.512,0,0,1,392.539,128.886Z" transform="translate(-392.539 -122.679)" fill="#263238"/>
                            </g>
                          </g>
                          <g id="Group_13091" data-name="Group 13091" transform="translate(6.543 22.151)">
                            <path id="Path_5330" data-name="Path 5330" d="M386.766,147.54a12.209,12.209,0,0,1-6.625-2.457s1.3,3.839,6.527,3.793Z" transform="translate(-380.141 -145.083)" fill="#eb996e"/>
                          </g>
                        </g>
                      </g>
                      <g id="Group_13097" data-name="Group 13097" transform="translate(0 9.975)">
                        <g id="Group_13094" data-name="Group 13094">
                          <path id="Path_5331" data-name="Path 5331" d="M366.48,124.046a.782.782,0,0,0-.736-.8c-.971-.046-2.568.306-2.769,2.96-.287,3.792,3.416,2.917,3.431,2.809C366.417,128.934,366.461,125.521,366.48,124.046Z" transform="translate(-362.958 -123.246)" fill="#ffbe9d"/>
                        </g>
                        <g id="Group_13096" data-name="Group 13096" transform="translate(1.025 1.208)">
                          <g id="Group_13095" data-name="Group 13095">
                            <path id="Path_5332" data-name="Path 5332" d="M366.4,128.47c-.016-.013-.07.041-.187.084a.674.674,0,0,1-.5-.027,1.634,1.634,0,0,1-.652-1.524,2.171,2.171,0,0,1,.258-.932.769.769,0,0,1,.54-.47.342.342,0,0,1,.38.21c.043.11.013.184.033.192s.087-.057.068-.216a.42.42,0,0,0-.133-.249.507.507,0,0,0-.361-.124.938.938,0,0,0-.741.536,2.233,2.233,0,0,0-.311,1.039,1.716,1.716,0,0,0,.848,1.71.721.721,0,0,0,.617-.055C366.389,128.56,366.416,128.477,366.4,128.47Z" transform="translate(-364.796 -125.413)" fill="#eb996e"/>
                          </g>
                        </g>
                      </g>
                    </g>
                    <g id="Group_13099" data-name="Group 13099" transform="translate(10.516 7.228)">
                      <path id="Path_5333" data-name="Path 5333" d="M381.854,119.353c.189.243.849.129,1.705.093.855-.069,1.524-.036,1.68-.3.177-.275-.65-.907-1.753-.817C382.381,118.374,381.643,119.1,381.854,119.353Z" transform="translate(-381.818 -118.32)" fill="#263238"/>
                    </g>
                    <g id="Group_13100" data-name="Group 13100" transform="translate(18.891 7.194)">
                      <path id="Path_5334" data-name="Path 5334" d="M396.849,119.074c.1.331.732.43,1.429.426s1.323-.13,1.418-.463-.535-.79-1.433-.777S396.743,118.753,396.849,119.074Z" transform="translate(-396.837 -118.26)" fill="#263238"/>
                    </g>
                  </g>
                  <path id="Path_5335" data-name="Path 5335" d="M388.569,108.319a8.561,8.561,0,0,1-7.192-.517c-2.668-1.332-5.779-1.983-6.465-1.446s-.83,3.287-3.474,4.089c0,0,.181,5.247-1.91,5.06s-.785-8.313-.785-8.313l5.117-2.5,5.585-1.055,5.262.742,4.071,1.115Z" transform="translate(-365.339 -103.637)" fill="#263238"/>
                </g>
              </g>
              <g id="Group_13111" data-name="Group 13111" transform="translate(0 26.128)">
                <g id="Group_13107" data-name="Group 13107" transform="translate(0 3.884)">
                  <path id="Path_5336" data-name="Path 5336" d="M341.812,162.487c5.468-5.624,15.094-5.01,15.094-5.01l7.978,5.711,4.524-5.267a29.336,29.336,0,0,1,9.21,2.85l.307.095,0,.064c3.5,1.9,8.455,6.458,13.176,10.882l-5.649,5.242-6.253,5.551a.167.167,0,0,1,.011.111c-.065.336.869,7.971,1.826,13.774a23.544,23.544,0,0,1-21.012,6.348,62.557,62.557,0,0,1-6.164-1.693,8.577,8.577,0,0,1-6.352-7.558h0c-.426-4.864-.751-10.885-.751-10.885" transform="translate(-341.812 -157.458)" fill="#363636"/>
                  <g id="Group_13104" data-name="Group 13104" transform="translate(32.596 1.444)">
                    <path id="Path_5337" data-name="Path 5337" d="M400.27,160.048a6.089,6.089,0,0,1,.343.9c.2.583.483,1.433.812,2.488.659,2.109,1.5,5.048,2.29,8.326s1.386,6.278,1.763,8.455c.188,1.089.329,1.972.413,2.585a6.158,6.158,0,0,1,.1.955,5.974,5.974,0,0,1-.215-.936c-.128-.654-.3-1.519-.5-2.566-.428-2.166-1.053-5.15-1.843-8.424s-1.6-6.214-2.2-8.336l-.723-2.513A6.075,6.075,0,0,1,400.27,160.048Z" transform="translate(-400.267 -160.048)" fill="#263238"/>
                  </g>
                  <g id="Group_13105" data-name="Group 13105" transform="translate(37.734 12.716)">
                    <path id="Path_5338" data-name="Path 5338" d="M409.483,189.094c-.05-.062,2.335-2.09,5.327-4.528s5.46-4.365,5.511-4.3-2.334,2.089-5.327,4.528S409.534,189.156,409.483,189.094Z" transform="translate(-409.483 -180.262)" fill="#263238"/>
                  </g>
                  <path id="Path_5339" data-name="Path 5339" d="M350.874,180.32l-4.895,16.1,1.821.947,1.8-4.553S351.441,183.249,350.874,180.32Z" transform="translate(-343.655 -167.572)" opacity="0.2"/>
                  <g id="Group_13106" data-name="Group 13106" transform="translate(25.107 0.38)" opacity="0.2">
                    <path id="Path_5340" data-name="Path 5340" d="M393.8,159.214c2.638,1.391-3.974,4.738-6.961,4.648l2.169-5.722A30.105,30.105,0,0,1,393.8,159.214Z" transform="translate(-386.838 -158.139)"/>
                  </g>
                </g>
                <path id="Path_5341" data-name="Path 5341" d="M367.468,154.757v-4.264s8.328,2.143,8.63,7.126c0,0,1.059-5.508,5.35-5.772l.606,7.748-4.992,4.344H372l-4.009-3.458-.524-5.38" transform="translate(-353.162 -150.493)" fill="#363636"/>
                <g id="Group_13108" data-name="Group 13108" transform="translate(22.883 7.879)">
                  <path id="Path_5342" data-name="Path 5342" d="M384.777,187.769a5.49,5.49,0,0,1-.014-.917c.012-.589.023-1.442.026-2.495.007-2.105-.059-5.015-.323-8.215s-.683-6.082-1.037-8.157l-.437-2.456a5.539,5.539,0,0,1-.137-.907,5.552,5.552,0,0,1,.248.883c.143.572.326,1.407.529,2.442a76.5,76.5,0,0,1,1.363,16.412c-.029,1.055-.071,1.908-.118,2.5A5.656,5.656,0,0,1,384.777,187.769Z" transform="translate(-382.85 -164.623)" fill="#263238"/>
                </g>
                <g id="Group_13109" data-name="Group 13109" transform="translate(14 3.458)">
                  <path id="Path_5343" data-name="Path 5343" d="M375.472,158.928a1.007,1.007,0,0,0-.494.046c-.318.1-.6.5-.836,1.064a24.119,24.119,0,0,0-1.584,4.607l-.044.19-.168-.1c-.5-.3-1.008-.626-1.522-.974a30.493,30.493,0,0,1-2.7-2.051,3.411,3.411,0,0,1-.919-1.2,3.8,3.8,0,0,1-.281-1.286,7.449,7.449,0,0,1,.185-1.865,2.756,2.756,0,0,1,.182-.66,3.545,3.545,0,0,1-.071.679,8.816,8.816,0,0,0-.091,1.832,3.688,3.688,0,0,0,.3,1.2,3.2,3.2,0,0,0,.876,1.1c.787.658,1.7,1.343,2.687,2.012.509.345,1.014.67,1.506.971l-.212.089a21.073,21.073,0,0,1,1.695-4.622,3.5,3.5,0,0,1,.438-.718,1.114,1.114,0,0,1,.531-.36C375.3,158.782,375.486,158.924,375.472,158.928Z" transform="translate(-366.919 -156.695)" fill="#263238"/>
                </g>
                <g id="Group_13110" data-name="Group 13110" transform="translate(23.574 1.354)">
                  <path id="Path_5344" data-name="Path 5344" d="M388.8,152.921a3.054,3.054,0,0,1,.078.666l.133,1.814c.062.764.155,1.673.311,2.673a4.471,4.471,0,0,1,.1,1.637,2.813,2.813,0,0,1-1.1,1.4A12.328,12.328,0,0,0,386.5,162.5l-.222.249-.022-.332a9.974,9.974,0,0,0-1.23-4.153c-.529-.95-.966-1.438-.931-1.466a1.578,1.578,0,0,1,.328.329,8.2,8.2,0,0,1,.755,1.048,9.513,9.513,0,0,1,1.356,4.222l-.244-.083a11.7,11.7,0,0,1,1.866-1.438,2.58,2.58,0,0,0,.995-1.238,4.408,4.408,0,0,0-.089-1.527c-.143-1.011-.215-1.929-.252-2.7s-.043-1.394-.041-1.824A2.913,2.913,0,0,1,388.8,152.921Z" transform="translate(-384.089 -152.921)" fill="#263238"/>
                </g>
              </g>
            </g>
            <g id="Group_13117" data-name="Group 13117" transform="translate(0 28.552)">
              <g id="Group_13114" data-name="Group 13114" transform="translate(2.982)">
                <path id="Path_5345" data-name="Path 5345" d="M430.612,154.84c-.338.4-12.6,16.792-12.6,16.792l1.726.978,12.581-16.185Z" transform="translate(-374.804 -154.84)" fill="#263238"/>
                <path id="Path_5346" data-name="Path 5346" d="M347.081,173.934s12.9,18.565,13.674,18.93c1.531.719,19.175-14.529,20.858-15.988.232-.309.71-.964,1.651-2.264,0,0,1.392-6.37,2.877-5.881s-.814,3.237.154,5.657,5.4-3.352,5.576-3.87l1.143-1.493a19.609,19.609,0,0,1,1.117,4.816c-.26,4.545-4.56,9.95-4.56,9.95s-19.31,23.921-32.537,24.663c-3.81.214-10.58-10.6-15.106-18.7a11.091,11.091,0,0,1,3.161-14.364Z" transform="translate(-340.524 -160.974)" fill="#ffbe9d"/>
                <g id="Group_13113" data-name="Group 13113" transform="translate(51.433 10.316)">
                  <path id="Path_5347" data-name="Path 5347" d="M432.765,176.7c-.043-.027.37-.757.826-1.682s.789-1.7.836-1.678a10.48,10.48,0,0,1-1.662,3.36Z" transform="translate(-432.761 -173.339)" fill="#eb996e"/>
                </g>
              </g>
              <g id="Group_13116" data-name="Group 13116" transform="translate(0 3.901)">
                <path id="Path_5348" data-name="Path 5348" d="M342.532,161.835s-13.843,4.922-3.551,28.2l15.981-9.645-2.273-5.443Z" transform="translate(-335.175 -161.835)" fill="#363636"/>
                <g id="Group_13115" data-name="Group 13115" transform="translate(3.806 0.382)">
                  <path id="Path_5349" data-name="Path 5349" d="M344.49,162.541a4.806,4.806,0,0,1,1.667.14,6.783,6.783,0,0,1,1.816.766,9.814,9.814,0,0,1,2.017,1.655,24.176,24.176,0,0,1,3.76,5.618c1.172,2.263,2.264,4.841,3.385,7.55l.98,2.368.05.12-.114.062c-4.624,2.52-8.65,4.881-11.5,6.647-1.424.881-2.558,1.606-3.336,2.109l-.9.575a1.936,1.936,0,0,1-.322.186,1.9,1.9,0,0,1,.291-.231c.2-.143.486-.355.869-.618.761-.531,1.88-1.281,3.292-2.186,2.822-1.812,6.836-4.206,11.46-6.737l-.064.182c-.315-.757-.646-1.557-.982-2.368-1.12-2.708-2.2-5.282-3.355-7.539a24.607,24.607,0,0,0-3.671-5.6,9.882,9.882,0,0,0-1.953-1.658,6.914,6.914,0,0,0-1.759-.8A9.992,9.992,0,0,0,344.49,162.541Z" transform="translate(-342 -162.52)" fill="#263238"/>
                </g>
              </g>
            </g>
          </g>
          <g id="Group_13119" data-name="Group 13119" transform="translate(24.889 4.094)">
            <path id="Path_5350" data-name="Path 5350" d="M391,100.661a.832.832,0,0,1,.069.243,3.158,3.158,0,0,1,.04.723,3.7,3.7,0,0,1-4.782,3.355,3.291,3.291,0,0,1-1.908-1.383,1.946,1.946,0,0,1-.285-1.259,1.629,1.629,0,0,1,.684-1.151,1.414,1.414,0,0,1,1.339-.086,1.7,1.7,0,0,1,.915.92,2.441,2.441,0,0,1-.366,2.318,2.908,2.908,0,0,1-3.657.795,6.245,6.245,0,0,0-1.377-.529,1.731,1.731,0,0,0-1.066.112,5.771,5.771,0,0,0-.793.522c-.007-.007.048-.072.163-.192a1.382,1.382,0,0,1,.228-.2,1.71,1.71,0,0,1,.355-.228,1.815,1.815,0,0,1,1.141-.17,6.116,6.116,0,0,1,1.432.5,4.053,4.053,0,0,0,.8.266,2.544,2.544,0,0,0,.9-.016,2.635,2.635,0,0,0,1.656-1.014,2.18,2.18,0,0,0,.319-2.05,1.315,1.315,0,0,0-1.832-.7,1.345,1.345,0,0,0-.558.946,1.667,1.667,0,0,0,.244,1.075,3.038,3.038,0,0,0,1.739,1.272,3.567,3.567,0,0,0,3.5-.829,3.789,3.789,0,0,0,1.089-2.278A7.642,7.642,0,0,0,391,100.661Z" transform="translate(-379.809 -100.661)" fill="#455a64"/>
          </g>
          <g id="Group_13120" data-name="Group 13120" transform="translate(30.327 23.747)">
            <path id="Path_5351" data-name="Path 5351" d="M392.3,137.281c.006.035-.171.109-.478.122a2.481,2.481,0,0,1-2.06-1.038c-.172-.254-.218-.441-.186-.456a3.821,3.821,0,0,0,2.724,1.372Z" transform="translate(-389.562 -135.906)" fill="#263238"/>
          </g>
          <g id="Group_13121" data-name="Group 13121" transform="translate(16.616 21.71)">
            <path id="Path_5352" data-name="Path 5352" d="M366.795,133.2c.026-.024.182.245-.02.629a.93.93,0,0,1-.568.451.966.966,0,0,1-.866-.227,1.038,1.038,0,0,1-.366-.81,1.115,1.115,0,0,1,.254-.667c.268-.315.54-.344.544-.312.021.042-.2.141-.378.432a.866.866,0,0,0,.136,1.138.734.734,0,0,0,.614.186.782.782,0,0,0,.456-.3C366.8,133.447,366.749,133.205,366.795,133.2Z" transform="translate(-364.973 -132.253)" fill="#263238"/>
          </g>
          <g id="Group_13122" data-name="Group 13122" transform="translate(33.11 5.972)">
            <path id="Path_5353" data-name="Path 5353" d="M398.436,104.03a1.837,1.837,0,0,1,.268,1.024,3.4,3.4,0,0,1-3.1,3.575,1.84,1.84,0,0,1-1.052-.12c.007-.05.405.024,1.024-.083a3.442,3.442,0,0,0,2.922-3.369C398.517,104.428,398.388,104.043,398.436,104.03Z" transform="translate(-394.553 -104.029)" fill="#455a64"/>
          </g>
        </g>
        <g id="Group_13124" data-name="Group 13124" transform="translate(1.583 52.625)">
          <path id="Path_5354" data-name="Path 5354" d="M354.568,187.7c.036.072-3.641,1.962-8.211,4.222s-8.306,4.034-8.341,3.962,3.641-1.962,8.213-4.222S354.532,187.625,354.568,187.7Z" transform="translate(-338.015 -187.695)" fill="#e0e0e0"/>
        </g>
        <g id="Group_13125" data-name="Group 13125" transform="translate(0.028 46.301)">
          <path id="Path_5355" data-name="Path 5355" d="M349.982,176.355c.038.071-3.235,1.9-7.31,4.088s-7.41,3.9-7.448,3.832,3.235-1.9,7.31-4.088S349.944,176.285,349.982,176.355Z" transform="translate(-335.224 -176.353)" fill="#e0e0e0"/>
        </g>
        <g id="Group_13126" data-name="Group 13126" transform="translate(0.248 41.186)">
          <path id="Path_5356" data-name="Path 5356" d="M346.92,167.184a13.286,13.286,0,0,1-1.638.969l-4,2.233-3.982,2.271a13.132,13.132,0,0,1-1.676.9,11.6,11.6,0,0,1,1.57-1.076c.993-.628,2.384-1.467,3.946-2.348s3-1.637,4.05-2.162A11.583,11.583,0,0,1,346.92,167.184Z" transform="translate(-335.62 -167.181)" fill="#e0e0e0"/>
        </g>
        <g id="Group_13127" data-name="Group 13127" transform="translate(18.011 35.338)">
          <path id="Path_5357" data-name="Path 5357" d="M373.258,161.334a2.615,2.615,0,0,1-1.077-.29,8.253,8.253,0,0,1-2.255-1.468,15.46,15.46,0,0,1-1.818-1.969,4.041,4.041,0,0,1-.63-.914,4.419,4.419,0,0,1,.786.781,26.279,26.279,0,0,0,1.855,1.885,10.331,10.331,0,0,0,2.148,1.5C372.867,161.165,373.271,161.29,373.258,161.334Z" transform="translate(-367.475 -156.692)" fill="#e0e0e0"/>
        </g>
        <g id="Group_13128" data-name="Group 13128" transform="translate(28.925 36.958)">
          <path id="Path_5358" data-name="Path 5358" d="M390.05,159.6a3.882,3.882,0,0,1-3,2.528,19.46,19.46,0,0,0,1.657-1.078A19.765,19.765,0,0,0,390.05,159.6Z" transform="translate(-387.047 -159.598)" fill="#e0e0e0"/>
        </g>
        <g id="Group_13129" data-name="Group 13129" transform="translate(15.469 45.344)">
          <path id="Path_5359" data-name="Path 5359" d="M393.875,174.644a1.341,1.341,0,0,1-.311.058l-.9.11c-.78.086-1.91.2-3.309.3-2.8.223-6.667.441-10.944.6s-8.155.207-10.961.185c-1.4-.009-2.538-.037-3.322-.067l-.9-.046a1.271,1.271,0,0,1-.314-.036,1.3,1.3,0,0,1,.315-.022l.9-.008,3.319-.026c2.8-.03,6.675-.12,10.95-.269s8.142-.341,10.94-.512l3.313-.211.9-.056A1.292,1.292,0,0,1,393.875,174.644Z" transform="translate(-362.916 -174.636)" fill="#e0e0e0"/>
        </g>
        <g id="Group_13130" data-name="Group 13130" transform="translate(18.495 51.954)">
          <path id="Path_5360" data-name="Path 5360" d="M391.872,186.5a5.675,5.675,0,0,1-.917.144c-.592.074-1.45.167-2.513.262-2.124.2-5.064.4-8.316.53s-6.2.166-8.334.142c-1.066-.009-1.929-.033-2.525-.059a5.625,5.625,0,0,1-.925-.07,5.621,5.621,0,0,1,.926-.043l2.523-.034c2.131-.029,5.073-.1,8.322-.228s6.186-.3,8.312-.444l2.518-.17A5.791,5.791,0,0,1,391.872,186.5Z" transform="translate(-368.343 -186.491)" fill="#e0e0e0"/>
        </g>
        <g id="Group_13131" data-name="Group 13131" transform="translate(19.327 60.101)">
          <path id="Path_5361" data-name="Path 5361" d="M382.537,201.119a11.17,11.17,0,0,1-1.849.26c-1.146.118-2.733.245-4.488.333s-3.349.118-4.5.114a11.105,11.105,0,0,1-1.865-.076,12.707,12.707,0,0,1,1.861-.129l4.49-.2,4.487-.248A12.663,12.663,0,0,1,382.537,201.119Z" transform="translate(-369.835 -201.101)" fill="#e0e0e0"/>
        </g>
        <g id="Group_13132" data-name="Group 13132" transform="translate(11.612 40.633)">
          <path id="Path_5362" data-name="Path 5362" d="M363.638,166.322c0,.083-1.712.1-3.817.19s-3.812.206-3.821.124a28.493,28.493,0,0,1,7.638-.314Z" transform="translate(-356 -166.189)" fill="#e0e0e0"/>
        </g>
        <g id="Group_13133" data-name="Group 13133" transform="translate(32.865 40.3)">
          <path id="Path_5363" data-name="Path 5363" d="M404.023,165.756a84.576,84.576,0,0,1-9.909-.037,84.575,84.575,0,0,1,9.909.037Z" transform="translate(-394.114 -165.591)" fill="#e0e0e0"/>
        </g>
        <g id="Group_13134" data-name="Group 13134" transform="translate(29.28 74.392)">
          <path id="Path_5364" data-name="Path 5364" d="M402.035,226.734a2.263,2.263,0,0,1-.508.292c-.334.173-.829.4-1.45.661a31.7,31.7,0,0,1-10.214,2.354c-.672.038-1.217.05-1.593.041a2.286,2.286,0,0,1-.584-.04c0-.047.829-.079,2.162-.206A39.113,39.113,0,0,0,400,227.5C401.256,227.026,402.016,226.692,402.035,226.734Z" transform="translate(-387.685 -226.73)" fill="#e0e0e0"/>
        </g>
      </g>
    </g>
    <g id="Character_1" data-name="Character 1" transform="translate(69.459 137.828)">
      <g id="Group_13191" data-name="Group 13191" transform="translate(0)">
        <ellipse id="Ellipse_5" data-name="Ellipse 5" cx="24.139" cy="23.027" rx="24.139" ry="23.027" transform="translate(9.898 34.532)" fill="#e0e0e0"/>
        <g id="Group_13168" data-name="Group 13168" transform="translate(18.135)">
          <path id="Path_5365" data-name="Path 5365" d="M125.76,221.982c-3.83.2-5.333,4.192-5.791,5.083a7.722,7.722,0,0,0-.614,2.921,6.353,6.353,0,0,1-.734,2.884c-.843,1.345-2.614,2.04-3.1,3.553-.546,1.71.855,3.54.481,5.3-.2.942-.888,1.719-1.131,2.651a3.9,3.9,0,0,0,.517,2.9,7.586,7.586,0,0,0,6.363,3.334,22.4,22.4,0,0,0,7.33-1.4" transform="translate(-114.776 -219.943)" fill="#263238"/>
          <path id="Path_5366" data-name="Path 5366" d="M161.953,230.88a2.386,2.386,0,0,0,.567,2.467,15.372,15.372,0,0,0,2.073,1.689,3.385,3.385,0,0,1,1.415,2.188c.074.817-.336,1.627-.225,2.44.286,2.088,3.615,2.713,3.792,4.813.118,1.4-1.317,2.682-.919,4.028a6.387,6.387,0,0,0,.829,1.376,4.093,4.093,0,0,1-1.065,4.948,8.136,8.136,0,0,1-5.1,1.727c-1.538.069-3.286-.182-4.192-1.427-.829-1.139-.659-2.693-.493-4.092a143.226,143.226,0,0,0,.51-19.717" transform="translate(-134.118 -223.88)" fill="#263238"/>
          <g id="Group_13159" data-name="Group 13159" transform="translate(6.404 1.57)">
            <g id="Group_13158" data-name="Group 13158">
              <g id="Group_13157" data-name="Group 13157">
                <g id="Group_13151" data-name="Group 13151" transform="translate(0.064 3.353)">
                  <g id="Group_13136" data-name="Group 13136">
                    <path id="Path_5367" data-name="Path 5367" d="M131.9,259.472c.029-3.433,0-7.048,0-7.048s-4.414-.785-5.264-6.566c-.81-5.513.564-17.37.564-17.37h0c6.395-2.522,13.595-1.547,18.075,3.6h0l-.7,27.879a5.981,5.981,0,0,1-6.393,5.631h0A6.319,6.319,0,0,1,131.9,259.472Z" transform="translate(-126.375 -227.155)" fill="#ffbe9d"/>
                  </g>
                  <g id="Group_13140" data-name="Group 13140" transform="translate(0.82 9.105)">
                    <g id="Group_13137" data-name="Group 13137" transform="translate(1.201 0.673)">
                      <path id="Path_5368" data-name="Path 5368" d="M130,245.35a.74.74,0,0,0,.7.755.707.707,0,0,0,.77-.658.74.74,0,0,0-.7-.756A.708.708,0,0,0,130,245.35Z" transform="translate(-129.999 -244.69)" fill="#263238"/>
                    </g>
                    <g id="Group_13139" data-name="Group 13139">
                      <g id="Group_13138" data-name="Group 13138">
                        <path id="Path_5369" data-name="Path 5369" d="M127.856,244.244c.091.1.656-.311,1.453-.3,1.5.217,1.471.446,1.463.32.043-.043-.049-.218-.3-.406a2.031,2.031,0,0,0-1.169-.375,1.945,1.945,0,0,0-1.157.359C127.9,244.027,127.811,244.2,127.856,244.244Z" transform="translate(-127.845 -243.483)" fill="#263238"/>
                      </g>
                    </g>
                  </g>
                  <g id="Group_13144" data-name="Group 13144" transform="translate(9.125 9.38)">
                    <g id="Group_13141" data-name="Group 13141" transform="translate(1.045 0.633)">
                      <path id="Path_5370" data-name="Path 5370" d="M144.614,245.772a.741.741,0,0,0,.705.755.708.708,0,0,0,.77-.659.741.741,0,0,0-.7-.756A.709.709,0,0,0,144.614,245.772Z" transform="translate(-144.614 -245.111)" fill="#263238"/>
                    </g>
                    <g id="Group_13143" data-name="Group 13143">
                      <g id="Group_13142" data-name="Group 13142">
                        <path id="Path_5371" data-name="Path 5371" d="M142.75,244.737c.091.1.657-.311,1.453-.3s1.375.417,1.463.32c.043-.043-.047-.218-.3-.406a2.034,2.034,0,0,0-1.169-.376,1.953,1.953,0,0,0-1.158.359C142.791,244.52,142.706,244.694,142.75,244.737Z" transform="translate(-142.739 -243.976)" fill="#263238"/>
                      </g>
                    </g>
                  </g>
                  <g id="Group_13146" data-name="Group 13146" transform="translate(4.156 9.223)">
                    <g id="Group_13145" data-name="Group 13145">
                      <path id="Path_5372" data-name="Path 5372" d="M135.85,250.325a5.288,5.288,0,0,0-1.29-.248c-.2-.023-.4-.066-.428-.205a1.033,1.033,0,0,1,.143-.6l.619-1.541a26.629,26.629,0,0,0,1.4-4.034,26.652,26.652,0,0,0-1.719,3.912l-.594,1.551a1.178,1.178,0,0,0-.114.8.511.511,0,0,0,.331.3,1.407,1.407,0,0,0,.345.052A5.2,5.2,0,0,0,135.85,250.325Z" transform="translate(-133.828 -243.694)" fill="#263238"/>
                    </g>
                  </g>
                  <g id="Group_13147" data-name="Group 13147" transform="translate(5.519 23.298)">
                    <path id="Path_5373" data-name="Path 5373" d="M136.273,270.908a14.675,14.675,0,0,0,7.751-1.972s-1.92,3.942-7.689,3.335Z" transform="translate(-136.273 -268.936)" fill="#eb996e"/>
                  </g>
                  <g id="Group_13148" data-name="Group 13148" transform="translate(6.411 17.248)">
                    <path id="Path_5374" data-name="Path 5374" d="M137.954,258.615a1.435,1.435,0,0,1,1.293-.518,1.309,1.309,0,0,1,.9.5.829.829,0,0,1,.052.95.963.963,0,0,1-1.047.252,3.015,3.015,0,0,1-1.01-.62.874.874,0,0,1-.225-.238.267.267,0,0,1,0-.3" transform="translate(-137.873 -258.086)" fill="#eb996e"/>
                  </g>
                  <g id="Group_13150" data-name="Group 13150" transform="translate(5.953 16.431)">
                    <g id="Group_13149" data-name="Group 13149">
                      <path id="Path_5375" data-name="Path 5375" d="M139.613,256.622c-.13-.009-.141.855-.888,1.46s-1.666.5-1.674.62c-.013.054.2.17.592.185a2.15,2.15,0,0,0,1.4-.468,1.872,1.872,0,0,0,.689-1.225C139.766,256.833,139.672,256.617,139.613,256.622Z" transform="translate(-137.05 -256.622)" fill="#263238"/>
                    </g>
                  </g>
                </g>
                <g id="Group_13152" data-name="Group 13152">
                  <path id="Path_5376" data-name="Path 5376" d="M142.713,225.311c-2.111,3.011-7.7,6.107-11.7,6.826.467-.615,2.926-2.131,3.393-2.746-1.814,1.355-4.411,3.167-6.818,3.29a1.461,1.461,0,0,1-.827-.129,1.116,1.116,0,0,1-.421-.907,24.049,24.049,0,0,1,.167-5.229,5.786,5.786,0,0,1,2.082-3.731c1.542-1.191,3.749-1.485,5.829-1.535a13.187,13.187,0,0,1,5.136.691,4.818,4.818,0,0,1,3.191,3.369" transform="translate(-126.261 -221.142)" fill="#263238"/>
                </g>
                <g id="Group_13153" data-name="Group 13153" transform="translate(11.545 0.668)">
                  <path id="Path_5377" data-name="Path 5377" d="M157.925,239.33a32.667,32.667,0,0,0,.577-3.857c.17-2.978-.69-13.968-10.956-13.083l-.414,3.127s-1.587,10.7,5.054,10.782a11.94,11.94,0,0,0,3.374,6.291s1.741-.053,2.365-3.259" transform="translate(-146.965 -222.339)" fill="#263238"/>
                </g>
                <g id="Group_13154" data-name="Group 13154" transform="translate(16.48 14.562)">
                  <path id="Path_5378" data-name="Path 5378" d="M156.1,247.321a3.443,3.443,0,0,1,1.856.141,2.4,2.4,0,0,1,1.346,1.249,2.512,2.512,0,0,1-.006,1.845,4.251,4.251,0,0,1-1.069,1.54,2.883,2.883,0,0,1-1.129.73,1.376,1.376,0,0,1-1.283-.214" transform="translate(-155.816 -247.257)" fill="#ffbe9d"/>
                </g>
                <g id="Group_13156" data-name="Group 13156" transform="translate(17.052 15.425)">
                  <g id="Group_13155" data-name="Group 13155">
                    <path id="Path_5379" data-name="Path 5379" d="M156.852,251.751c-.071.022.193.4.759.253a1.216,1.216,0,0,0,.7-.6,2.738,2.738,0,0,0,.319-1.02,1.61,1.61,0,0,0-.249-1.089,1.073,1.073,0,0,0-.8-.488c-.58-.02-.765.38-.7.393.046.047.273-.157.652-.061a1.04,1.04,0,0,1,.629,1.2c-.076.634-.327,1.212-.666,1.353C157.143,251.865,156.891,251.7,156.852,251.751Z" transform="translate(-156.841 -248.805)" fill="#eb996e"/>
                  </g>
                </g>
              </g>
            </g>
          </g>
          <path id="Path_5380" data-name="Path 5380" d="M157.636,223a3.5,3.5,0,0,0,4.738-1.245,2.241,2.241,0,0,0,.324-1.675,2.3,2.3,0,0,0-1.724-1.495,3.523,3.523,0,0,0-3.237.777,3.091,3.091,0,0,0-.836,3.177,2.756,2.756,0,0,0,2.663,1.837" transform="translate(-133.346 -218.392)" fill="#263238"/>
          <path id="Path_5381" data-name="Path 5381" d="M157.334,256.445a8.129,8.129,0,0,0-1.6,1.376,2.748,2.748,0,0,0-.689,1.942,5.054,5.054,0,0,1,.129,1.17,3.909,3.909,0,0,1-.809,1.391,3.306,3.306,0,0,0,.521,3.875,5.364,5.364,0,0,0,3.793,1.542,3.247,3.247,0,0,0,3.685-3.657" transform="translate(-132.108 -235.189)" fill="#263238"/>
          <g id="Group_13160" data-name="Group 13160" transform="translate(19.771 6.913)">
            <path id="Path_5382" data-name="Path 5382" d="M156.384,230.724a3.792,3.792,0,0,1-.605,1.053,12.191,12.191,0,0,1-4.415,3.794,3.8,3.8,0,0,1-1.131.44,26.371,26.371,0,0,0,3.38-2.29A26.371,26.371,0,0,0,156.384,230.724Z" transform="translate(-150.233 -230.723)" fill="#455a64"/>
          </g>
          <g id="Group_13161" data-name="Group 13161" transform="translate(22.145 6.857)">
            <path id="Path_5383" data-name="Path 5383" d="M159.333,230.624a4.573,4.573,0,0,1-.189,1.407,11.364,11.364,0,0,1-3.5,5.811,4.564,4.564,0,0,1-1.155.826,14.33,14.33,0,0,0,4.841-8.045Z" transform="translate(-154.491 -230.624)" fill="#455a64"/>
          </g>
          <g id="Group_13162" data-name="Group 13162" transform="translate(4.653 11.505)">
            <path id="Path_5384" data-name="Path 5384" d="M123.165,238.958c.085-.006.2.96.529,2.1s.748,2.019.672,2.059a6.6,6.6,0,0,1-1.2-4.16Z" transform="translate(-123.121 -238.958)" fill="#455a64"/>
          </g>
          <g id="Group_13163" data-name="Group 13163" transform="translate(26.997 12.71)">
            <path id="Path_5385" data-name="Path 5385" d="M165.485,259.643a1.613,1.613,0,0,0,.849.273,1.737,1.737,0,0,0,.983-.309,1.982,1.982,0,0,0,.744-1.127,3.633,3.633,0,0,0,.011-1.681c-.12-.605-.355-1.231-.562-1.913a5.047,5.047,0,0,1-.248-2.247,12.613,12.613,0,0,1,.916-2.214,2.9,2.9,0,0,0-1.693-3.6c-.319-.136-.65-.251-.956-.418a1.949,1.949,0,0,1-.763-.684,3.211,3.211,0,0,1-.345-1.754,5.992,5.992,0,0,0-.057-1.418,2.317,2.317,0,0,0-.418-.96,1.381,1.381,0,0,0-.752-.465.509.509,0,0,1,.243.019,1.163,1.163,0,0,1,.595.372,2.357,2.357,0,0,1,.491,1,5.849,5.849,0,0,1,.1,1.454,3.053,3.053,0,0,0,.343,1.625,3.1,3.1,0,0,0,1.62.985,3.162,3.162,0,0,1,1.864,3.94,13.371,13.371,0,0,0-.91,2.166,4.831,4.831,0,0,0,.224,2.123c.2.672.426,1.312.541,1.943a3.788,3.788,0,0,1-.05,1.783,2.128,2.128,0,0,1-.851,1.205,1.813,1.813,0,0,1-1.076.288,1.313,1.313,0,0,1-.667-.219A.609.609,0,0,1,165.485,259.643Z" transform="translate(-163.191 -241.12)" fill="#455a64"/>
          </g>
          <g id="Group_13164" data-name="Group 13164" transform="translate(25.263 21.296)">
            <path id="Path_5386" data-name="Path 5386" d="M160.084,266.062c.026-.016.073.179.343.3a.915.915,0,0,0,1.082-.293,1.707,1.707,0,0,0-.09-1.745,7.312,7.312,0,0,1-1.111-2.169,1.569,1.569,0,0,1,.31-1.286c.273-.337.593-.561.8-.836a2.431,2.431,0,0,0,.388-1.78,6.909,6.909,0,0,0-.32-1.265,1.66,1.66,0,0,1-.129-.472,1.547,1.547,0,0,1,.234.43,5.43,5.43,0,0,1,.417,1.276,2.581,2.581,0,0,1-.378,1.972c-.237.32-.562.555-.791.85a1.292,1.292,0,0,0-.248,1.064,7.764,7.764,0,0,0,1.062,2.092,1.9,1.9,0,0,1,.019,1.989,1,1,0,0,1-.708.387.977.977,0,0,1-.592-.114C160.077,266.282,160.073,266.053,160.084,266.062Z" transform="translate(-160.081 -256.517)" fill="#455a64"/>
          </g>
          <g id="Group_13165" data-name="Group 13165" transform="translate(1.746 15.275)">
            <path id="Path_5387" data-name="Path 5387" d="M119.569,259.828a2.484,2.484,0,0,1-.454-.453,5.505,5.505,0,0,1-.973-1.466,2.926,2.926,0,0,1-.234-1.217,2.12,2.12,0,0,1,.491-1.351c.346-.4.847-.608,1.149-.984a1.643,1.643,0,0,0,.231-1.435,6.118,6.118,0,0,0-.612-1.474,5.059,5.059,0,0,1-.542-1.463,1.913,1.913,0,0,1,.287-1.408,4.911,4.911,0,0,1,.849-.885,2.546,2.546,0,0,0,.952-1.358,1.676,1.676,0,0,0-.024-.614c.007,0,.044.043.084.147a1,1,0,0,1,.051.485,2.536,2.536,0,0,1-.925,1.492,4.944,4.944,0,0,0-.787.866,1.674,1.674,0,0,0-.225,1.233,4.956,4.956,0,0,0,.531,1.377,6.206,6.206,0,0,1,.642,1.54,1.916,1.916,0,0,1-.293,1.678c-.379.446-.878.638-1.169.981a1.894,1.894,0,0,0-.452,1.183,2.786,2.786,0,0,0,.185,1.132,6.234,6.234,0,0,0,.869,1.47A2.979,2.979,0,0,1,119.569,259.828Z" transform="translate(-117.907 -245.72)" fill="#455a64"/>
          </g>
          <g id="Group_13166" data-name="Group 13166" transform="translate(23.511 2.927)">
            <path id="Path_5388" data-name="Path 5388" d="M160.09,225.988a5.636,5.636,0,0,0-3.151-2.383,3.334,3.334,0,0,1,3.151,2.383Z" transform="translate(-156.94 -223.576)" fill="#e8505b"/>
          </g>
          <g id="Group_13167" data-name="Group 13167" transform="translate(26.291)">
            <path id="Path_5389" data-name="Path 5389" d="M163.1,218.327c.03-.018.216.2.367.632a3.021,3.021,0,0,1-.9,3.263c-.351.294-.623.385-.639.355s.2-.191.5-.5a3.317,3.317,0,0,0,.845-3.059A4.217,4.217,0,0,1,163.1,218.327Z" transform="translate(-161.926 -218.326)" fill="#455a64"/>
          </g>
        </g>
        <path id="Path_5390" data-name="Path 5390" d="M113.254,338.878s13.854,13.155,22.089,10.774,10.673-8.561,10.673-8.561l.2-2.213-.825-.54-31.706-2.567Z" transform="translate(-95.968 -270.282)" opacity="0.3"/>
        <g id="Group_13190" data-name="Group 13190" transform="translate(0 32.706)">
          <g id="Group_13171" data-name="Group 13171" transform="translate(8.62 1.306)">
            <path id="Path_5391" data-name="Path 5391" d="M98.555,313.808l2.672-6.851,9.576,6.016-8.533,13.158S98.8,321.623,98.555,313.808Z" transform="translate(-98.085 -291.546)" fill="#eb996e"/>
            <g id="Group_13170" data-name="Group 13170">
              <g id="Group_13169" data-name="Group 13169">
                <path id="Path_5392" data-name="Path 5392" d="M108.989,282.652a34.189,34.189,0,0,1,10.226-3h0c1.675,3.352,6.953,3.778,10.149,1.49l2.695-1.822a9.778,9.778,0,0,1,1.129.046,14.393,14.393,0,0,1,12.748,11.462,28.745,28.745,0,0,1,.674,7.245c-.351,6.091-6.66,6.642-6.66,6.642s-.325,6.022-.751,10.885h0a9.08,9.08,0,0,1-5.518,7.869,22.408,22.408,0,0,1-7.033,2.169,23.62,23.62,0,0,1-20.957-7.257c.957-5.8,1.871-13.315,1.806-13.651a.168.168,0,0,1,.011-.111l-6.253-5.551-3.544-2.976s7.777-11.542,11.277-13.442" transform="translate(-97.712 -279.32)" fill="#ff7642"/>
              </g>
            </g>
          </g>
          <g id="Group_13172" data-name="Group 13172" transform="translate(17.873 7.756)">
            <path id="Path_5393" data-name="Path 5393" d="M124.078,291.524a3.323,3.323,0,0,0-1.546-.427,2.543,2.543,0,0,0-1.595.553,6.824,6.824,0,0,0-.71.763,1.848,1.848,0,0,1-1.012.671,1.647,1.647,0,0,1-1.178-.316c-.321-.205-.6-.43-.878-.592a1.914,1.914,0,0,0-1.636-.143,2.161,2.161,0,0,0-.95.656c-.176.217-.24.365-.264.354a.853.853,0,0,1,.172-.421,2.158,2.158,0,0,1,2.809-.679c.311.171.593.4.9.584a1.383,1.383,0,0,0,.975.271,1.6,1.6,0,0,0,.853-.576,6.393,6.393,0,0,1,.754-.781,2.672,2.672,0,0,1,1.765-.55,2.542,2.542,0,0,1,1.194.341C123.981,291.387,124.087,291.514,124.078,291.524Z" transform="translate(-114.307 -290.888)" fill="#fafafa"/>
          </g>
          <g id="Group_13173" data-name="Group 13173" transform="translate(24.255 14.254)">
            <path id="Path_5394" data-name="Path 5394" d="M135.494,305a3.322,3.322,0,0,0-1.328-.9,2.54,2.54,0,0,0-1.687.014,6.736,6.736,0,0,0-.916.5,1.848,1.848,0,0,1-1.174.313,1.645,1.645,0,0,1-1.015-.675c-.239-.3-.427-.6-.643-.842a1.915,1.915,0,0,0-1.5-.657,2.161,2.161,0,0,0-1.11.317c-.236.15-.343.269-.363.252s.068-.155.3-.344a2.157,2.157,0,0,1,2.879.254c.24.261.436.564.664.84a1.388,1.388,0,0,0,.838.568,1.6,1.6,0,0,0,.991-.274,6.412,6.412,0,0,1,.964-.5,2.674,2.674,0,0,1,1.848.043,2.551,2.551,0,0,1,1.023.7A.946.946,0,0,1,135.494,305Z" transform="translate(-125.752 -302.542)" fill="#fafafa"/>
          </g>
          <g id="Group_13174" data-name="Group 13174" transform="translate(38.877 4.194)">
            <path id="Path_5395" data-name="Path 5395" d="M161.206,284.833a3.314,3.314,0,0,0-1.6-.091,2.544,2.544,0,0,0-1.441.878,6.667,6.667,0,0,0-.533.9,1.844,1.844,0,0,1-.847.87,1.644,1.644,0,0,1-1.218-.059c-.357-.133-.674-.295-.984-.393a1.913,1.913,0,0,0-1.629.207,2.162,2.162,0,0,0-.79.842c-.125.249-.157.408-.182.4a.849.849,0,0,1,.079-.448,2.157,2.157,0,0,1,2.6-1.259c.34.1.664.261,1,.381a1.384,1.384,0,0,0,1.011.058,1.6,1.6,0,0,0,.711-.743,6.356,6.356,0,0,1,.571-.923,2.673,2.673,0,0,1,1.609-.911,2.546,2.546,0,0,1,1.24.08A.941.941,0,0,1,161.206,284.833Z" transform="translate(-151.974 -284.501)" fill="#fafafa"/>
          </g>
          <g id="Group_13175" data-name="Group 13175" transform="translate(34.147 11.47)">
            <path id="Path_5396" data-name="Path 5396" d="M150.942,299.754a2.858,2.858,0,0,0-1-.718,1.945,1.945,0,0,0-1.283-.04,5.224,5.224,0,0,0-.718.35,1.454,1.454,0,0,1-.936.2,1.3,1.3,0,0,1-.778-.569c-.175-.24-.309-.478-.464-.671a1.455,1.455,0,0,0-1.113-.555,2.028,2.028,0,0,0-1.155.364c-.011-.009.051-.124.235-.266a1.607,1.607,0,0,1,.922-.3,1.637,1.637,0,0,1,1.319.591c.178.211.32.453.485.671a1.04,1.04,0,0,0,.606.454c.512.09.983-.371,1.518-.524a2.077,2.077,0,0,1,1.441.1C150.793,299.2,150.971,299.76,150.942,299.754Z" transform="translate(-143.491 -297.549)" fill="#fafafa"/>
          </g>
          <g id="Group_13176" data-name="Group 13176" transform="translate(19.785 19.176)">
            <path id="Path_5397" data-name="Path 5397" d="M125.186,313.575a2.829,2.829,0,0,0-1-.718,1.949,1.949,0,0,0-1.283-.04,5.222,5.222,0,0,0-.718.35,1.451,1.451,0,0,1-.936.2,1.3,1.3,0,0,1-.779-.569c-.175-.24-.308-.478-.463-.671a1.458,1.458,0,0,0-1.114-.555,2.025,2.025,0,0,0-1.155.365c-.012-.009.051-.124.234-.266a1.606,1.606,0,0,1,.922-.3,1.637,1.637,0,0,1,1.319.591c.179.212.32.453.485.671a1.037,1.037,0,0,0,.607.454c.512.09.983-.371,1.518-.524a2.08,2.08,0,0,1,1.441.105C125.037,313.024,125.216,313.581,125.186,313.575Z" transform="translate(-117.736 -311.369)" fill="#fafafa"/>
          </g>
          <g id="Group_13177" data-name="Group 13177" transform="translate(33.08 20.987)">
            <path id="Path_5398" data-name="Path 5398" d="M149.159,315.185a2.853,2.853,0,0,0-1.18-.355,1.943,1.943,0,0,0-1.227.378,5.168,5.168,0,0,0-.566.564,1.455,1.455,0,0,1-.82.5,1.3,1.3,0,0,1-.921-.287c-.244-.17-.447-.352-.656-.485a1.456,1.456,0,0,0-1.233-.165,2.032,2.032,0,0,0-.975.718c-.014-.005.008-.133.136-.327a1.606,1.606,0,0,1,.774-.586,1.637,1.637,0,0,1,1.439.132c.238.143.449.325.676.478a1.039,1.039,0,0,0,.72.234c.514-.081.81-.67,1.267-.988a2.077,2.077,0,0,1,1.4-.367A1.506,1.506,0,0,1,149.159,315.185Z" transform="translate(-141.577 -314.615)" fill="#fafafa"/>
          </g>
          <g id="Group_13178" data-name="Group 13178" transform="translate(28.645 27.111)">
            <path id="Path_5399" data-name="Path 5399" d="M141.206,326.167a2.838,2.838,0,0,0-1.18-.355,1.95,1.95,0,0,0-1.227.378,5.165,5.165,0,0,0-.566.564,1.455,1.455,0,0,1-.82.5,1.3,1.3,0,0,1-.921-.286c-.244-.171-.447-.353-.656-.485a1.456,1.456,0,0,0-1.233-.166,2.027,2.027,0,0,0-.975.719c-.014-.006.008-.134.136-.327a1.6,1.6,0,0,1,.774-.586,1.638,1.638,0,0,1,1.439.133c.238.142.449.325.676.477a1.036,1.036,0,0,0,.72.234c.514-.081.81-.67,1.267-.987a2.074,2.074,0,0,1,1.4-.367A1.5,1.5,0,0,1,141.206,326.167Z" transform="translate(-133.624 -325.598)" fill="#fafafa"/>
          </g>
          <g id="Group_13179" data-name="Group 13179" transform="translate(19.388 40.764)">
            <path id="Path_5400" data-name="Path 5400" d="M124.5,352.2a2.834,2.834,0,0,0-1.012-.7,1.947,1.947,0,0,0-1.283-.022,5.3,5.3,0,0,0-.713.36,1.449,1.449,0,0,1-.933.217,1.3,1.3,0,0,1-.787-.558c-.178-.237-.315-.473-.473-.665a1.457,1.457,0,0,0-1.121-.539,2.033,2.033,0,0,0-1.15.38c-.012-.009.05-.124.231-.269a1.6,1.6,0,0,1,.918-.317,1.637,1.637,0,0,1,1.327.572c.182.209.326.448.494.664a1.035,1.035,0,0,0,.612.446c.514.083.978-.385,1.511-.545a2.077,2.077,0,0,1,1.442.084C124.34,351.652,124.527,352.206,124.5,352.2Z" transform="translate(-117.024 -350.083)" fill="#fafafa"/>
          </g>
          <g id="Group_13180" data-name="Group 13180" transform="translate(30.227 45.526)">
            <path id="Path_5401" data-name="Path 5401" d="M144.054,359.211a2.844,2.844,0,0,0-1.175-.371,1.948,1.948,0,0,0-1.232.36,5.277,5.277,0,0,0-.574.556,1.453,1.453,0,0,1-.827.485,1.3,1.3,0,0,1-.917-.3c-.241-.174-.442-.359-.649-.495a1.459,1.459,0,0,0-1.231-.182,2.027,2.027,0,0,0-.985.705c-.014-.006.011-.134.141-.326a1.607,1.607,0,0,1,.782-.575,1.636,1.636,0,0,1,1.437.152c.236.146.445.331.669.487a1.037,1.037,0,0,0,.717.244c.515-.074.82-.658,1.281-.97a2.075,2.075,0,0,1,1.4-.347A1.5,1.5,0,0,1,144.054,359.211Z" transform="translate(-136.462 -358.623)" fill="#fafafa"/>
          </g>
          <g id="Group_13185" data-name="Group 13185">
            <g id="Group_13183" data-name="Group 13183">
              <g id="Group_13182" data-name="Group 13182">
                <path id="Path_5402" data-name="Path 5402" d="M83.963,276.979c.338.4,12.6,16.792,12.6,16.792l-1.726.978L82.254,278.564Z" transform="translate(-82.254 -276.979)" fill="#263238"/>
                <path id="Path_5403" data-name="Path 5403" d="M134.913,294.809s-11.5,19.831-12.276,20.2c-1.531.718-19.175-14.529-20.858-15.988-.232-.31-.71-.964-1.651-2.264,0,0-1.392-6.37-2.877-5.881s.814,3.237-.154,5.658-5.4-3.353-5.576-3.871l-1.143-1.493a19.611,19.611,0,0,0-1.117,4.816c.26,4.545,4.56,9.95,4.56,9.95s17.472,21.894,30.7,22.636c3.81.214,11.087-10.754,15.613-18.86,2.733-4.895,1.465-9.868-3.065-13.17Z" transform="translate(-85.352 -283.113)" fill="#ffbe9d"/>
                <g id="Group_13181" data-name="Group 13181" transform="translate(4.413 10.316)">
                  <path id="Path_5404" data-name="Path 5404" d="M91.836,298.839a10.469,10.469,0,0,1-1.662-3.359,18.723,18.723,0,0,1,.836,1.677C91.465,298.083,91.879,298.813,91.836,298.839Z" transform="translate(-90.169 -295.479)" fill="#eb996e"/>
                </g>
              </g>
            </g>
            <path id="Path_5405" data-name="Path 5405" d="M161.32,288.061c-.454.273-11.147,20.124-11.147,20.124l13.764,10.782a159.417,159.417,0,0,0,5.469-15.991,22.978,22.978,0,0,0-.475-9.153c-1.028-2.851-2.579-2.141-4.9-3.811Z" transform="translate(-112.3 -281.882)" fill="#ff7642"/>
            <g id="Group_13184" data-name="Group 13184" transform="translate(37.69 5.606)" opacity="0.7">
              <path id="Path_5406" data-name="Path 5406" d="M165.7,287.606c-.008.012-.135-.076-.393-.205a2.311,2.311,0,0,0-1.21-.254,3.3,3.3,0,0,0-1.8.75,8.916,8.916,0,0,0-1.792,1.93c-.582.792-1.062,1.759-1.649,2.767l-1.839,3.229-4.23,7.39-2.639,4.587-.036-.181,9.313,7.359,2.7,2.169.716.591a1.516,1.516,0,0,1,.238.218,1.59,1.59,0,0,1-.268-.178l-.746-.554-2.753-2.1-9.376-7.279-.1-.075.061-.107,2.63-4.59,4.249-7.376,1.861-3.215a31.837,31.837,0,0,1,1.694-2.772,8.923,8.923,0,0,1,1.861-1.94,3.377,3.377,0,0,1,1.888-.733,2.277,2.277,0,0,1,1.242.316,2.014,2.014,0,0,1,.279.183C165.671,287.577,165.7,287.6,165.7,287.606Z" transform="translate(-149.845 -287.032)"/>
            </g>
          </g>
          <g id="Group_13186" data-name="Group 13186" transform="translate(41.981 22.587)">
            <path id="Path_5407" data-name="Path 5407" d="M164.992,319.692a2.85,2.85,0,0,0-1-.718,1.949,1.949,0,0,0-1.283-.04,5.348,5.348,0,0,0-.718.35,1.454,1.454,0,0,1-.936.2,1.3,1.3,0,0,1-.778-.569c-.175-.24-.309-.478-.464-.671a1.459,1.459,0,0,0-1.113-.555,2.031,2.031,0,0,0-1.155.365c-.011-.01.051-.124.235-.266a1.607,1.607,0,0,1,.922-.3,1.637,1.637,0,0,1,1.318.591c.179.212.32.453.485.671a1.038,1.038,0,0,0,.606.454c.512.09.983-.371,1.518-.524a2.077,2.077,0,0,1,1.441.1C164.842,319.141,165.021,319.7,164.992,319.692Z" transform="translate(-157.541 -317.486)" fill="#fafafa"/>
          </g>
          <g id="Group_13187" data-name="Group 13187" transform="translate(48.99 18.352)">
            <path id="Path_5408" data-name="Path 5408" d="M176.843,313.764a2.846,2.846,0,0,0-.771-.961,1.946,1.946,0,0,0-1.225-.385,5.265,5.265,0,0,0-.786.144,1.454,1.454,0,0,1-.956-.057,1.3,1.3,0,0,1-.6-.758c-.1-.278-.168-.544-.265-.771a1.459,1.459,0,0,0-.922-.835,2.028,2.028,0,0,0-1.211.04c-.008-.012.083-.105.3-.193a1.606,1.606,0,0,1,.97-.043,1.637,1.637,0,0,1,1.111.925c.115.252.186.522.285.777a1.039,1.039,0,0,0,.462.6c.469.225,1.047-.092,1.6-.095a2.077,2.077,0,0,1,1.359.49A1.5,1.5,0,0,1,176.843,313.764Z" transform="translate(-170.11 -309.89)" fill="#fafafa"/>
          </g>
          <g id="Group_13188" data-name="Group 13188" transform="translate(49.313 10.146)">
            <path id="Path_5409" data-name="Path 5409" d="M177.423,299.048a2.836,2.836,0,0,0-.771-.961,1.947,1.947,0,0,0-1.225-.384,5.161,5.161,0,0,0-.786.143,1.452,1.452,0,0,1-.957-.056,1.3,1.3,0,0,1-.6-.758c-.1-.278-.168-.544-.265-.772a1.457,1.457,0,0,0-.922-.835,2.024,2.024,0,0,0-1.211.039c-.008-.012.083-.105.3-.193a1.608,1.608,0,0,1,.97-.043,1.636,1.636,0,0,1,1.11.925c.115.251.186.522.286.776a1.036,1.036,0,0,0,.461.6c.47.225,1.047-.092,1.6-.095a2.078,2.078,0,0,1,1.359.49A1.5,1.5,0,0,1,177.423,299.048Z" transform="translate(-170.69 -295.174)" fill="#fafafa"/>
          </g>
          <g id="Group_13189" data-name="Group 13189" transform="translate(46.268 29.01)">
            <path id="Path_5410" data-name="Path 5410" d="M171.962,332.879a2.845,2.845,0,0,0-.771-.961,1.948,1.948,0,0,0-1.225-.384,5.254,5.254,0,0,0-.786.143,1.451,1.451,0,0,1-.956-.056,1.3,1.3,0,0,1-.6-.758c-.1-.278-.168-.544-.265-.772a1.457,1.457,0,0,0-.922-.835,2.028,2.028,0,0,0-1.21.039c-.009-.012.083-.1.3-.192a1.6,1.6,0,0,1,.97-.044,1.638,1.638,0,0,1,1.111.925c.115.252.186.522.285.776a1.039,1.039,0,0,0,.462.6c.469.225,1.047-.093,1.6-.1a2.081,2.081,0,0,1,1.359.49A1.5,1.5,0,0,1,171.962,332.879Z" transform="translate(-165.229 -329.004)" fill="#fafafa"/>
          </g>
        </g>
      </g>
    </g>
  </g>
</svg>
